<svg version="1.1" xmlns="http://www.w3.org/2000/svg" xmlns:xlink="http://www.w3.org/1999/xlink" width="1001" height="2930"><desc>title%20Sequence%20Diagram%20for%20srcFacts%0A%0Aparticipant%20srcFacts%0Aparticipant%20xml_parser%0A%0Aactivecolor%20srcFacts%20%23coral%0Aactivecolor%20xml_parser%20%23crimson%0A%0Aactivate%20srcFacts%0AsrcFacts%20-%3E%20xml_parser%3A%20parseBegin()%0Adeactivate%20srcFacts%0Aactivate%20xml_parser%0Axml_parser%20--%3E%20srcFacts%3A%20bytesRead%0Adeactivate%20xml_parser%0Aactivate%20srcFacts%0A%0A%23%20check%20isXML()%0AsrcFacts%20-%3E%20xml_parser%3A%20is%20XML%20Declaration%0Adeactivate%20srcFacts%0Aactivate%20xml_parser%0Axml_parser%20--%3E%20srcFacts%3A%20true%0Adeactivate%20xml_parser%0Aactivate%20srcFacts%0A%0A%23%20parse%20XML%20Declaration%0Agroup%20parse%20XML%20Declaration%0AsrcFacts%20-%3E%20xml_parser%3A%20parseXMLDeclaration(content%3A%20String)%0Adeactivate%20srcFacts%0Aactivate%20xml_parser%0Axml_parser%20-%3E%20xml_parser%3A%20parseVersion(content%3A%20String)%0Axml_parser%20-%3E%20xml_parser%3A%20parseEncodingAndStandalone(content%3A%20String)%0Axml_parser%20-%3E%20srcFacts%3A%0Adeactivate%20xml_parser%0Aactivate%20srcFacts%0Aend%20%0A%0A%23%20check%20isDOCTYPE()%0AsrcFacts%20-%3E%20xml_parser%3A%20is%20DOCTYPE%0Adeactivate%20srcFacts%0Aactivate%20xml_parser%0Axml_parser%20--%3E%20srcFacts%3A%20true%20%0Adeactivate%20xml_parser%0Aactivate%20srcFacts%0A%0A%23%20parse%20DOCTYPE%0Agroup%20parse%20DOCTYPE%0AsrcFacts%20-%3E%20xml_parser%3A%20parseDOCTYPE(content%3A%20String)%0Adeactivate%20srcFacts%0Aactivate%20xml_parser%0Axml_parser%20-%3E%20srcFacts%3A%20%0Adeactivate%20xml_parser%0Aactivate%20srcFacts%0Aend%0A%0Anote%20right%20of%20srcFacts%3A%20Begin%20while%20loop%0Agroup%20While%20loop%0AsrcFacts%20-%3E%20srcFacts%3A%20refill%20content%20preserve%20unprocessed%0Aactivate%20srcFacts%0Adeactivateafter%20srcFacts%0A%0A%23%20isCharacter(content%3AString%2C%20index%3Aint%2C%20character%3Achar%20%3D%20'%26')%0AsrcFacts%20-%3E%20xml_parser%3A%20is%20'%26'%0Adeactivate%20srcFacts%0Aactivate%20xml_parser%0Axml_parser%20--%3E%20srcFacts%3A%20true%0Adeactivate%20xml_parser%0Aactivate%20srcFacts%0A%0AsrcFacts%20-%3E%20xml_parser%3A%20parseCharacterEntityReference(content%3AString)%0Adeactivate%20srcFacts%0Aactivate%20xml_parser%0Axml_parser%20-%3E%20srcFacts%3A%20%0Adeactivate%20xml_parser%0Aactivate%20srcFacts%0A%0AsrcFacts%20-%3E%20xml_parser%3A%20%20is%20'%3C'%0Adeactivate%20srcFacts%0Aactivate%20xml_parser%0Axml_parser%20--%3E%20srcFacts%3A%20true%20%0Adeactivate%20xml_parser%0Aactivate%20srcFacts%0A%0AsrcFacts%20-%3E%20xml_parser%3A%20parseCharacterNotEntityReference(content%3AString)%0Adeactivate%20srcFacts%0Aactivate%20xml_parser%0Axml_parser%20--%3E%20srcFacts%3A%20characters%0Adeactivate%20xml_parser%0Aactivate%20srcFacts%0A%0AsrcFacts%20-%3E%20xml_parser%3A%20is%20XML%20Comment%0Adeactivate%20srcFacts%0Aactivate%20xml_parser%0Axml_parser%20--%3E%20srcFacts%3A%20true%0Adeactivate%20xml_parser%0Aactivate%20srcFacts%0A%0AsrcFacts%20-%3E%20xml_parser%3A%20parseComment(content%3AString%2C%20doneReading%3Abool)%0Adeactivate%20srcFacts%0Aactivate%20xml_parser%0Axml_parser%20--%3E%20srcFacts%3A%20bytesRead%20%2C%20doneReading%0Adeactivate%20xml_parser%0Aactivate%20srcFacts%0A%0AsrcFacts%20-%3E%20xml_parser%3A%20is%20CDATA%0Adeactivate%20srcFacts%0Aactivate%20xml_parser%0Axml_parser%20--%3E%20srcFacts%3A%20true%0Adeactivate%20xml_parser%0Aactivate%20srcFacts%0A%0AsrcFacts%20-%3E%20xml_parser%3A%20parseCDATA(content%3AString%2C%20doneReading%3Abool)%0Adeactivate%20srcFacts%0Aactivate%20xml_parser%0Axml_parser%20--%3E%20srcFacts%3A%20totalBytes%2C%20characters%2C%20doneReading%0Adeactivate%20xml_parser%0Aactivate%20srcFacts%0A%0AsrcFacts%20-%3E%20xml_parser%3A%20is%20'%3F'%0Adeactivate%20srcFacts%0Aactivate%20xml_parser%0Axml_parser%20--%3E%20srcFacts%3A%20true%0Adeactivate%20xml_parser%0Aactivate%20srcFacts%0A%0AsrcFacts%20-%3E%20xml_parser%3A%20parseProcessing(content%3AString)%0Adeactivate%20srcFacts%0Aactivate%20xml_parser%0Axml_parser%20-%3E%20srcFacts%3A%20%0Adeactivate%20xml_parser%0Aactivate%20srcFacts%0A%0AsrcFacts%20-%3E%20xml_parser%3A%20is%20'%2F'%0Adeactivate%20srcFacts%0Aactivate%20xml_parser%0Axml_parser%20--%3E%20srcFacts%3A%20true%0Adeactivate%20xml_parser%0Aactivate%20srcFacts%0A%0AsrcFacts%20-%3E%20xml_parser%3A%20parseEndTag(content%3AString)%0Adeactivate%20srcFacts%0Aactivate%20xml_parser%0Axml_parser%20-%3E%20srcFacts%3A%20%0Adeactivate%20xml_parser%0Aactivate%20srcFacts%0A%0AsrcFacts%20-%3E%20xml_parser%3A%20is%20'%3C'%0Adeactivate%20srcFacts%0Aactivate%20xml_parser%0Axml_parser%20--%3E%20srcFacts%3A%20true%0Adeactivate%20xml_parser%0Aactivate%20srcFacts%0A%0AsrcFacts%20-%3E%20xml_parser%3A%20parseStartTag(content%3AString%2C%20qName%3AString%2C%20prefix%3AString%2C%20localName%3AString)%0Adeactivate%20srcFacts%0Aactivate%20xml_parser%0Axml_parser%20--%3E%20srcFacts%3A%20qName%2C%20prefix%2C%20localName%0Adeactivate%20xml_parser%0Aactivate%20srcFacts%0A%0AsrcFacts%20-%3E%20srcFacts%3A%20Compare%20to%20srcML%20tag%20names%0Aactivate%20srcFacts%20%23blue%0Adeactivateafter%20srcFacts%0A%0AsrcFacts%20-%3E%20srcFacts%3A%20Update%20count%20variables%20%0Aactivate%20srcFacts%0Adeactivateafter%20srcFacts%0A%0AsrcFacts%20-%3E%20xml_parser%3A%20is%20Namespace%0Adeactivate%20srcFacts%0Aactivate%20xml_parser%0Axml_parser%20--%3E%20srcFacts%3A%20true%0Adeactivate%20xml_parser%0Aactivate%20srcFacts%0A%0Anote%20right%20of%20srcFacts%3A%20else%20parseAtrribute(content%3AString)%0A%0AsrcFacts%20-%3E%20xml_parser%3A%20parseNamespace(content%3AString)%0Adeactivate%20srcFacts%0Aactivate%20xml_parser%0Axml_parser%20-%3E%20srcFacts%3A%20%0Adeactivate%20xml_parser%0Aactivate%20srcFacts%0A%0A%0A%0AsrcFacts%20-%3E%20xml_parser%3A%20is%20%22%3E%22%0Adeactivate%20srcFacts%0Aactivate%20xml_parser%0Axml_parser%20--%3E%20srcFacts%3A%20true%0Adeactivate%20xml_parser%0Aactivate%20srcFacts%0A%0AsrcFacts%20-%3E%20xml_parser%3A%20is%20%22%2F%3E%22%0Adeactivate%20srcFacts%0Aactivate%20xml_parser%0Axml_parser%20--%3E%20srcFacts%3A%20true%0Adeactivate%20xml_parser%0Aactivate%20srcFacts%0A%0Aend</desc><defs/><g><g/><g/><g/><g/><g/><g/><g/><g/><g/><g/><g/><g/><g/><g/><g/><g/><g/><g/><g/><g/><g/><g/><g/><g/><g/><g/><g/><g/><g/><g/><g/><g/><g/><g/><g/><g/><g/><g/><g/><g/><g/><g/><g/><g/><g/><g/><g/><g/><g/><g/><g/><g/><g/><g><rect fill="white" stroke="none" x="0" y="0" width="1001" height="2930"/></g><g><text fill="black" stroke="none" font-family="sans-serif" font-size="16.5pt" font-style="normal" font-weight="normal" text-decoration="normal" x="346.30319628417965" y="24.50280495" text-anchor="start" dominant-baseline="alphabetic" xml:space="preserve">Sequence Diagram for srcFacts</text></g><g/><g><path fill="none" stroke="black" paint-order="fill stroke markers" d=" M 81.67601649999999 95.887643371 L 81.67601649999999 2930.045415920999" stroke-miterlimit="10" stroke-width="1.3612669416666667" stroke-dasharray="12.565541,5.445067766666667"/><path fill="none" stroke="black" paint-order="fill stroke markers" d=" M 645.1364277923177 95.887643371 L 645.1364277923177 2930.045415920999" stroke-miterlimit="10" stroke-width="1.3612669416666667" stroke-dasharray="12.565541,5.445067766666667"/></g><g><path fill="none" stroke="none"/><g><path fill="white" stroke="black" paint-order="fill stroke markers" d=" M 36.26085363434373 51.782594461 L 127.09117936565625 51.782594461 L 127.09117936565625 95.887643371 L 36.26085363434373 95.887643371 L 36.26085363434373 51.782594461 Z" stroke-miterlimit="10" stroke-width="2.613632528" stroke-dasharray=""/></g><g><g/><text fill="black" stroke="none" font-family="sans-serif" font-size="11pt" font-style="normal" font-weight="normal" text-decoration="normal" x="53.98454921484374" y="79.55244007099999" text-anchor="start" dominant-baseline="alphabetic" xml:space="preserve">srcFacts</text></g><path fill="none" stroke="none"/><g><path fill="white" stroke="black" paint-order="fill stroke markers" d=" M 591.1600695531263 51.782594461 L 699.1127860315091 51.782594461 L 699.1127860315091 95.887643371 L 591.1600695531263 95.887643371 L 591.1600695531263 51.782594461 Z" stroke-miterlimit="10" stroke-width="2.613632528" stroke-dasharray=""/></g><g><g/><text fill="black" stroke="none" font-family="sans-serif" font-size="11pt" font-style="normal" font-weight="normal" text-decoration="normal" x="608.8837651336263" y="79.55244007099999" text-anchor="start" dominant-baseline="alphabetic" xml:space="preserve">xml_parser</text></g></g><g><path fill="coral" stroke="black" paint-order="fill stroke markers" d=" M 73.50841485 104.05524502099999 L 89.84361814999998 104.05524502099999 L 89.84361814999998 149.793814261 L 73.50841485 149.793814261 L 73.50841485 104.05524502099999" stroke-miterlimit="10" stroke-width="1.3612669416666667" stroke-dasharray=""/><path fill="crimson" stroke="black" paint-order="fill stroke markers" d=" M 636.9688261423177 149.793814261 L 653.3040294423178 149.793814261 L 653.3040294423178 195.532383501 L 636.9688261423177 195.532383501 L 636.9688261423177 149.793814261" stroke-miterlimit="10" stroke-width="1.3612669416666667" stroke-dasharray=""/><path fill="coral" stroke="black" paint-order="fill stroke markers" d=" M 73.50841485 195.532383501 L 89.84361814999998 195.532383501 L 89.84361814999998 241.270952741 L 73.50841485 241.270952741 L 73.50841485 195.532383501" stroke-miterlimit="10" stroke-width="1.3612669416666667" stroke-dasharray=""/><path fill="crimson" stroke="black" paint-order="fill stroke markers" d=" M 636.9688261423177 241.270952741 L 653.3040294423178 241.270952741 L 653.3040294423178 287.009521981 L 636.9688261423177 287.009521981 L 636.9688261423177 241.270952741" stroke-miterlimit="10" stroke-width="1.3612669416666667" stroke-dasharray=""/><path fill="coral" stroke="black" paint-order="fill stroke markers" d=" M 73.50841485 287.009521981 L 89.84361814999998 287.009521981 L 89.84361814999998 376.853140131 L 73.50841485 376.853140131 L 73.50841485 287.009521981" stroke-miterlimit="10" stroke-width="1.3612669416666667" stroke-dasharray=""/><path fill="crimson" stroke="black" paint-order="fill stroke markers" d=" M 636.9688261423177 376.853140131 L 653.3040294423178 376.853140131 L 653.3040294423178 556.5403764309999 L 636.9688261423177 556.5403764309999 L 636.9688261423177 376.853140131" stroke-miterlimit="10" stroke-width="1.3612669416666667" stroke-dasharray=""/><path fill="coral" stroke="black" paint-order="fill stroke markers" d=" M 73.50841485 556.5403764309999 L 89.84361814999998 556.5403764309999 L 89.84361814999998 626.7817506209999 L 73.50841485 626.7817506209999 L 73.50841485 556.5403764309999" stroke-miterlimit="10" stroke-width="1.3612669416666667" stroke-dasharray=""/><path fill="crimson" stroke="black" paint-order="fill stroke markers" d=" M 636.9688261423177 626.7817506209999 L 653.3040294423178 626.7817506209999 L 653.3040294423178 672.5203198609998 L 636.9688261423177 672.5203198609998 L 636.9688261423177 626.7817506209999" stroke-miterlimit="10" stroke-width="1.3612669416666667" stroke-dasharray=""/><path fill="coral" stroke="black" paint-order="fill stroke markers" d=" M 73.50841485 672.5203198609998 L 89.84361814999998 672.5203198609998 L 89.84361814999998 762.3639380109997 L 73.50841485 762.3639380109997 L 73.50841485 672.5203198609998" stroke-miterlimit="10" stroke-width="1.3612669416666667" stroke-dasharray=""/><path fill="crimson" stroke="black" paint-order="fill stroke markers" d=" M 636.9688261423177 762.3639380109997 L 653.3040294423178 762.3639380109997 L 653.3040294423178 808.1025072509997 L 636.9688261423177 808.1025072509997 L 636.9688261423177 762.3639380109997" stroke-miterlimit="10" stroke-width="1.3612669416666667" stroke-dasharray=""/><path fill="coral" stroke="black" paint-order="fill stroke markers" d=" M 73.50841485 808.1025072509997 L 89.84361814999998 808.1025072509997 L 89.84361814999998 1051.4970364209998 L 73.50841485 1051.4970364209998 L 73.50841485 808.1025072509997" stroke-miterlimit="10" stroke-width="1.3612669416666667" stroke-dasharray=""/><path fill="coral" stroke="black" paint-order="fill stroke markers" d=" M 81.67601649999999 1005.7584671809998 L 98.01121979999998 1005.7584671809998 L 98.01121979999998 1017.1931094909997 L 81.67601649999999 1017.1931094909997 L 81.67601649999999 1005.7584671809998" stroke-miterlimit="10" stroke-width="1.3612669416666667" stroke-dasharray=""/><path fill="crimson" stroke="black" paint-order="fill stroke markers" d=" M 636.9688261423177 1051.4970364209998 L 653.3040294423178 1051.4970364209998 L 653.3040294423178 1097.235605661 L 636.9688261423177 1097.235605661 L 636.9688261423177 1051.4970364209998" stroke-miterlimit="10" stroke-width="1.3612669416666667" stroke-dasharray=""/><path fill="coral" stroke="black" paint-order="fill stroke markers" d=" M 73.50841485 1097.235605661 L 89.84361814999998 1097.235605661 L 89.84361814999998 1142.974174901 L 73.50841485 1142.974174901 L 73.50841485 1097.235605661" stroke-miterlimit="10" stroke-width="1.3612669416666667" stroke-dasharray=""/><path fill="crimson" stroke="black" paint-order="fill stroke markers" d=" M 636.9688261423177 1142.974174901 L 653.3040294423178 1142.974174901 L 653.3040294423178 1188.712744141 L 636.9688261423177 1188.712744141 L 636.9688261423177 1142.974174901" stroke-miterlimit="10" stroke-width="1.3612669416666667" stroke-dasharray=""/><path fill="coral" stroke="black" paint-order="fill stroke markers" d=" M 73.50841485 1188.712744141 L 89.84361814999998 1188.712744141 L 89.84361814999998 1234.451313381 L 73.50841485 1234.451313381 L 73.50841485 1188.712744141" stroke-miterlimit="10" stroke-width="1.3612669416666667" stroke-dasharray=""/><path fill="crimson" stroke="black" paint-order="fill stroke markers" d=" M 636.9688261423177 1234.451313381 L 653.3040294423178 1234.451313381 L 653.3040294423178 1280.1898826210002 L 636.9688261423177 1280.1898826210002 L 636.9688261423177 1234.451313381" stroke-miterlimit="10" stroke-width="1.3612669416666667" stroke-dasharray=""/><path fill="coral" stroke="black" paint-order="fill stroke markers" d=" M 73.50841485 1280.1898826210002 L 89.84361814999998 1280.1898826210002 L 89.84361814999998 1325.9284518610002 L 73.50841485 1325.9284518610002 L 73.50841485 1280.1898826210002" stroke-miterlimit="10" stroke-width="1.3612669416666667" stroke-dasharray=""/><path fill="crimson" stroke="black" paint-order="fill stroke markers" d=" M 636.9688261423177 1325.9284518610002 L 653.3040294423178 1325.9284518610002 L 653.3040294423178 1371.6670211010003 L 636.9688261423177 1371.6670211010003 L 636.9688261423177 1325.9284518610002" stroke-miterlimit="10" stroke-width="1.3612669416666667" stroke-dasharray=""/><path fill="coral" stroke="black" paint-order="fill stroke markers" d=" M 73.50841485 1371.6670211010003 L 89.84361814999998 1371.6670211010003 L 89.84361814999998 1417.4055903410003 L 73.50841485 1417.4055903410003 L 73.50841485 1371.6670211010003" stroke-miterlimit="10" stroke-width="1.3612669416666667" stroke-dasharray=""/><path fill="crimson" stroke="black" paint-order="fill stroke markers" d=" M 636.9688261423177 1417.4055903410003 L 653.3040294423178 1417.4055903410003 L 653.3040294423178 1463.1441595810004 L 636.9688261423177 1463.1441595810004 L 636.9688261423177 1417.4055903410003" stroke-miterlimit="10" stroke-width="1.3612669416666667" stroke-dasharray=""/><path fill="coral" stroke="black" paint-order="fill stroke markers" d=" M 73.50841485 1463.1441595810004 L 89.84361814999998 1463.1441595810004 L 89.84361814999998 1508.8827288210005 L 73.50841485 1508.8827288210005 L 73.50841485 1463.1441595810004" stroke-miterlimit="10" stroke-width="1.3612669416666667" stroke-dasharray=""/><path fill="crimson" stroke="black" paint-order="fill stroke markers" d=" M 636.9688261423177 1508.8827288210005 L 653.3040294423178 1508.8827288210005 L 653.3040294423178 1554.6212980610005 L 636.9688261423177 1554.6212980610005 L 636.9688261423177 1508.8827288210005" stroke-miterlimit="10" stroke-width="1.3612669416666667" stroke-dasharray=""/><path fill="coral" stroke="black" paint-order="fill stroke markers" d=" M 73.50841485 1554.6212980610005 L 89.84361814999998 1554.6212980610005 L 89.84361814999998 1600.3598673010006 L 73.50841485 1600.3598673010006 L 73.50841485 1554.6212980610005" stroke-miterlimit="10" stroke-width="1.3612669416666667" stroke-dasharray=""/><path fill="crimson" stroke="black" paint-order="fill stroke markers" d=" M 636.9688261423177 1600.3598673010006 L 653.3040294423178 1600.3598673010006 L 653.3040294423178 1646.0984365410006 L 636.9688261423177 1646.0984365410006 L 636.9688261423177 1600.3598673010006" stroke-miterlimit="10" stroke-width="1.3612669416666667" stroke-dasharray=""/><path fill="coral" stroke="black" paint-order="fill stroke markers" d=" M 73.50841485 1646.0984365410006 L 89.84361814999998 1646.0984365410006 L 89.84361814999998 1691.8370057810007 L 73.50841485 1691.8370057810007 L 73.50841485 1646.0984365410006" stroke-miterlimit="10" stroke-width="1.3612669416666667" stroke-dasharray=""/><path fill="crimson" stroke="black" paint-order="fill stroke markers" d=" M 636.9688261423177 1691.8370057810007 L 653.3040294423178 1691.8370057810007 L 653.3040294423178 1737.5755750210008 L 636.9688261423177 1737.5755750210008 L 636.9688261423177 1691.8370057810007" stroke-miterlimit="10" stroke-width="1.3612669416666667" stroke-dasharray=""/><path fill="coral" stroke="black" paint-order="fill stroke markers" d=" M 73.50841485 1737.5755750210008 L 89.84361814999998 1737.5755750210008 L 89.84361814999998 1783.3141442610008 L 73.50841485 1783.3141442610008 L 73.50841485 1737.5755750210008" stroke-miterlimit="10" stroke-width="1.3612669416666667" stroke-dasharray=""/><path fill="crimson" stroke="black" paint-order="fill stroke markers" d=" M 636.9688261423177 1783.3141442610008 L 653.3040294423178 1783.3141442610008 L 653.3040294423178 1829.0527135010009 L 636.9688261423177 1829.0527135010009 L 636.9688261423177 1783.3141442610008" stroke-miterlimit="10" stroke-width="1.3612669416666667" stroke-dasharray=""/><path fill="coral" stroke="black" paint-order="fill stroke markers" d=" M 73.50841485 1829.0527135010009 L 89.84361814999998 1829.0527135010009 L 89.84361814999998 1874.791282741001 L 73.50841485 1874.791282741001 L 73.50841485 1829.0527135010009" stroke-miterlimit="10" stroke-width="1.3612669416666667" stroke-dasharray=""/><path fill="crimson" stroke="black" paint-order="fill stroke markers" d=" M 636.9688261423177 1874.791282741001 L 653.3040294423178 1874.791282741001 L 653.3040294423178 1920.529851981001 L 636.9688261423177 1920.529851981001 L 636.9688261423177 1874.791282741001" stroke-miterlimit="10" stroke-width="1.3612669416666667" stroke-dasharray=""/><path fill="coral" stroke="black" paint-order="fill stroke markers" d=" M 73.50841485 1920.529851981001 L 89.84361814999998 1920.529851981001 L 89.84361814999998 1966.268421221001 L 73.50841485 1966.268421221001 L 73.50841485 1920.529851981001" stroke-miterlimit="10" stroke-width="1.3612669416666667" stroke-dasharray=""/><path fill="crimson" stroke="black" paint-order="fill stroke markers" d=" M 636.9688261423177 1966.268421221001 L 653.3040294423178 1966.268421221001 L 653.3040294423178 2012.0069904610011 L 636.9688261423177 2012.0069904610011 L 636.9688261423177 1966.268421221001" stroke-miterlimit="10" stroke-width="1.3612669416666667" stroke-dasharray=""/><path fill="coral" stroke="black" paint-order="fill stroke markers" d=" M 73.50841485 2012.0069904610011 L 89.84361814999998 2012.0069904610011 L 89.84361814999998 2057.745559701001 L 73.50841485 2057.745559701001 L 73.50841485 2012.0069904610011" stroke-miterlimit="10" stroke-width="1.3612669416666667" stroke-dasharray=""/><path fill="crimson" stroke="black" paint-order="fill stroke markers" d=" M 636.9688261423177 2057.745559701001 L 653.3040294423178 2057.745559701001 L 653.3040294423178 2103.484128941001 L 636.9688261423177 2103.484128941001 L 636.9688261423177 2057.745559701001" stroke-miterlimit="10" stroke-width="1.3612669416666667" stroke-dasharray=""/><path fill="coral" stroke="black" paint-order="fill stroke markers" d=" M 73.50841485 2103.484128941001 L 89.84361814999998 2103.484128941001 L 89.84361814999998 2149.222698181001 L 73.50841485 2149.222698181001 L 73.50841485 2103.484128941001" stroke-miterlimit="10" stroke-width="1.3612669416666667" stroke-dasharray=""/><path fill="crimson" stroke="black" paint-order="fill stroke markers" d=" M 636.9688261423177 2149.222698181001 L 653.3040294423178 2149.222698181001 L 653.3040294423178 2194.9612674210007 L 636.9688261423177 2194.9612674210007 L 636.9688261423177 2149.222698181001" stroke-miterlimit="10" stroke-width="1.3612669416666667" stroke-dasharray=""/><path fill="coral" stroke="black" paint-order="fill stroke markers" d=" M 73.50841485 2194.9612674210007 L 89.84361814999998 2194.9612674210007 L 89.84361814999998 2240.6998366610005 L 73.50841485 2240.6998366610005 L 73.50841485 2194.9612674210007" stroke-miterlimit="10" stroke-width="1.3612669416666667" stroke-dasharray=""/><path fill="crimson" stroke="black" paint-order="fill stroke markers" d=" M 636.9688261423177 2240.6998366610005 L 653.3040294423178 2240.6998366610005 L 653.3040294423178 2286.4384059010004 L 636.9688261423177 2286.4384059010004 L 636.9688261423177 2240.6998366610005" stroke-miterlimit="10" stroke-width="1.3612669416666667" stroke-dasharray=""/><path fill="coral" stroke="black" paint-order="fill stroke markers" d=" M 73.50841485 2286.4384059010004 L 89.84361814999998 2286.4384059010004 L 89.84361814999998 2466.125642201 L 73.50841485 2466.125642201 L 73.50841485 2286.4384059010004" stroke-miterlimit="10" stroke-width="1.3612669416666667" stroke-dasharray=""/><path fill="blue" stroke="black" paint-order="fill stroke markers" d=" M 81.67601649999999 2353.4127394310003 L 98.01121979999998 2353.4127394310003 L 98.01121979999998 2364.8473817410004 L 81.67601649999999 2364.8473817410004 L 81.67601649999999 2353.4127394310003" stroke-miterlimit="10" stroke-width="1.3612669416666667" stroke-dasharray=""/><path fill="coral" stroke="black" paint-order="fill stroke markers" d=" M 81.67601649999999 2420.3870729610003 L 98.01121979999998 2420.3870729610003 L 98.01121979999998 2431.8217152710004 L 81.67601649999999 2431.8217152710004 L 81.67601649999999 2420.3870729610003" stroke-miterlimit="10" stroke-width="1.3612669416666667" stroke-dasharray=""/><path fill="crimson" stroke="black" paint-order="fill stroke markers" d=" M 636.9688261423177 2466.125642201 L 653.3040294423178 2466.125642201 L 653.3040294423178 2511.864211441 L 636.9688261423177 2511.864211441 L 636.9688261423177 2466.125642201" stroke-miterlimit="10" stroke-width="1.3612669416666667" stroke-dasharray=""/><path fill="coral" stroke="black" paint-order="fill stroke markers" d=" M 73.50841485 2511.864211441 L 89.84361814999998 2511.864211441 L 89.84361814999998 2619.6765532209997 L 73.50841485 2619.6765532209997 L 73.50841485 2511.864211441" stroke-miterlimit="10" stroke-width="1.3612669416666667" stroke-dasharray=""/><path fill="crimson" stroke="black" paint-order="fill stroke markers" d=" M 636.9688261423177 2619.6765532209997 L 653.3040294423178 2619.6765532209997 L 653.3040294423178 2665.4151224609996 L 636.9688261423177 2665.4151224609996 L 636.9688261423177 2619.6765532209997" stroke-miterlimit="10" stroke-width="1.3612669416666667" stroke-dasharray=""/><path fill="coral" stroke="black" paint-order="fill stroke markers" d=" M 73.50841485 2665.4151224609996 L 89.84361814999998 2665.4151224609996 L 89.84361814999998 2711.1536917009994 L 73.50841485 2711.1536917009994 L 73.50841485 2665.4151224609996" stroke-miterlimit="10" stroke-width="1.3612669416666667" stroke-dasharray=""/><path fill="crimson" stroke="black" paint-order="fill stroke markers" d=" M 636.9688261423177 2711.1536917009994 L 653.3040294423178 2711.1536917009994 L 653.3040294423178 2756.892260940999 L 636.9688261423177 2756.892260940999 L 636.9688261423177 2711.1536917009994" stroke-miterlimit="10" stroke-width="1.3612669416666667" stroke-dasharray=""/><path fill="coral" stroke="black" paint-order="fill stroke markers" d=" M 73.50841485 2756.892260940999 L 89.84361814999998 2756.892260940999 L 89.84361814999998 2802.630830180999 L 73.50841485 2802.630830180999 L 73.50841485 2756.892260940999" stroke-miterlimit="10" stroke-width="1.3612669416666667" stroke-dasharray=""/><path fill="crimson" stroke="black" paint-order="fill stroke markers" d=" M 636.9688261423177 2802.630830180999 L 653.3040294423178 2802.630830180999 L 653.3040294423178 2848.369399420999 L 636.9688261423177 2848.369399420999 L 636.9688261423177 2802.630830180999" stroke-miterlimit="10" stroke-width="1.3612669416666667" stroke-dasharray=""/><path fill="coral" stroke="black" paint-order="fill stroke markers" d=" M 73.50841485 2848.369399420999 L 89.84361814999998 2848.369399420999 L 89.84361814999998 2913.710212620999 L 73.50841485 2913.710212620999 L 73.50841485 2848.369399420999" stroke-miterlimit="10" stroke-width="1.3612669416666667" stroke-dasharray=""/><g><g><rect fill="white" stroke="none" x="318.9910444953971" y="128.558049971" width="88.83035530152344" height="21.23576429"/></g><text fill="black" stroke="none" font-family="sans-serif" font-size="11pt" font-style="normal" font-weight="normal" text-decoration="normal" x="321.4413249903971" y="143.259732941" text-anchor="start" dominant-baseline="alphabetic" xml:space="preserve">parseBegin()</text></g><g><path fill="none" stroke="black" paint-order="fill stroke markers" d=" M 89.84361814999998 149.793814261 L 623.519508758651 149.793814261" stroke-miterlimit="10" stroke-width="1.3612669416666667" stroke-dasharray=""/><g transform="translate(636.9688261423177,149.793814261) translate(-636.9688261423177,-149.793814261)"><path fill="black" stroke="none" paint-order="stroke fill markers" d=" M 623.356156725651 142.98747955266666 L 636.9688261423177 149.793814261 L 623.356156725651 156.60014896933333 Z"/></g></g><g><g><rect fill="white" stroke="none" x="325.91300341873693" y="174.296619211" width="74.98643745484375" height="21.23576429"/></g><text fill="black" stroke="none" font-family="sans-serif" font-size="11pt" font-style="normal" font-weight="normal" text-decoration="normal" x="328.36328391373695" y="188.99830218099999" text-anchor="start" dominant-baseline="alphabetic" xml:space="preserve">bytesRead</text></g><g><path fill="none" stroke="black" paint-order="fill stroke markers" d=" M 636.9688261423177 195.532383501 L 103.29293553366665 195.532383501" stroke-miterlimit="10" stroke-width="1.3612669416666667" stroke-dasharray="6.53408132"/><g transform="translate(89.84361814999998,195.532383501) translate(-89.84361814999998,-195.532383501)"><path fill="black" stroke="none" paint-order="stroke fill markers" d=" M 103.45628756666665 188.72604879266666 L 89.84361814999998 195.532383501 L 103.45628756666665 202.33871820933334 Z"/></g></g><g><g><rect fill="white" stroke="none" x="299.44201037674475" y="220.035188451" width="127.92842353882813" height="21.23576429"/></g><text fill="black" stroke="none" font-family="sans-serif" font-size="11pt" font-style="normal" font-weight="normal" text-decoration="normal" x="301.89229087174476" y="234.736871421" text-anchor="start" dominant-baseline="alphabetic" xml:space="preserve">is XML Declaration</text></g><g><path fill="none" stroke="black" paint-order="fill stroke markers" d=" M 89.84361814999998 241.270952741 L 623.519508758651 241.270952741" stroke-miterlimit="10" stroke-width="1.3612669416666667" stroke-dasharray=""/><g transform="translate(636.9688261423177,241.270952741) translate(-636.9688261423177,-241.270952741)"><path fill="black" stroke="none" paint-order="stroke fill markers" d=" M 623.356156725651 234.46461803266666 L 636.9688261423177 241.270952741 L 623.356156725651 248.07728744933334 Z"/></g></g><g><g><rect fill="white" stroke="none" x="348.32531115799475" y="265.77375769099996" width="30.161821976328124" height="21.23576429"/></g><text fill="black" stroke="none" font-family="sans-serif" font-size="11pt" font-style="normal" font-weight="normal" text-decoration="normal" x="350.77559165299476" y="280.47544066099994" text-anchor="start" dominant-baseline="alphabetic" xml:space="preserve">true</text></g><g><path fill="none" stroke="black" paint-order="fill stroke markers" d=" M 636.9688261423177 287.009521981 L 103.29293553366665 287.009521981" stroke-miterlimit="10" stroke-width="1.3612669416666667" stroke-dasharray="6.53408132"/><g transform="translate(89.84361814999998,287.009521981) translate(-89.84361814999998,-287.009521981)"><path fill="black" stroke="none" paint-order="stroke fill markers" d=" M 103.45628756666665 280.20318727266664 L 89.84361814999998 287.009521981 L 103.45628756666665 293.8158566893333 Z"/></g></g><g><g><rect fill="white" stroke="none" x="238.3253645637565" y="355.61737584099996" width="250.1617151648047" height="21.23576429"/></g><text fill="black" stroke="none" font-family="sans-serif" font-size="11pt" font-style="normal" font-weight="normal" text-decoration="normal" x="240.77564505875648" y="370.31905881099993" text-anchor="start" dominant-baseline="alphabetic" xml:space="preserve">parseXMLDeclaration(content: String)</text></g><g><path fill="none" stroke="black" paint-order="fill stroke markers" d=" M 89.84361814999998 376.853140131 L 623.519508758651 376.853140131" stroke-miterlimit="10" stroke-width="1.3612669416666667" stroke-dasharray=""/><g transform="translate(636.9688261423177,376.853140131) translate(-636.9688261423177,-376.853140131)"><path fill="black" stroke="none" paint-order="stroke fill markers" d=" M 623.356156725651 370.04680542266664 L 636.9688261423177 376.853140131 L 623.356156725651 383.6594748393333 Z"/></g></g><g><g><rect fill="white" stroke="none" x="672.6340200139845" y="401.355945081" width="194.76443733277344" height="21.23576429"/></g><text fill="black" stroke="none" font-family="sans-serif" font-size="11pt" font-style="normal" font-weight="normal" text-decoration="normal" x="675.0843005089845" y="416.057628051" text-anchor="start" dominant-baseline="alphabetic" xml:space="preserve">parseVersion(content: String)</text></g><g><path fill="none" stroke="black" paint-order="fill stroke markers" d=" M 653.3040294423178 422.591709371 L 718.6448426423177 422.591709371 L 718.6448426423177 443.827473661 L 666.7533468259844 443.827473661" stroke-miterlimit="10" stroke-width="1.3612669416666667" stroke-dasharray=""/><g transform="translate(653.3040294423178,443.827473661) translate(-653.3040294423178,-443.827473661)"><path fill="black" stroke="none" paint-order="stroke fill markers" d=" M 666.9166988589844 437.02113895266666 L 653.3040294423178 443.827473661 L 666.9166988589844 450.63380836933334 Z"/></g></g><g><g><rect fill="white" stroke="none" x="672.6340200139845" y="468.330278611" width="307.262621536875" height="21.23576429"/></g><text fill="black" stroke="none" font-family="sans-serif" font-size="11pt" font-style="normal" font-weight="normal" text-decoration="normal" x="675.0843005089845" y="483.03196158099996" text-anchor="start" dominant-baseline="alphabetic" xml:space="preserve">parseEncodingAndStandalone(content: String)</text></g><g><path fill="none" stroke="black" paint-order="fill stroke markers" d=" M 653.3040294423178 489.56604290099995 L 718.6448426423177 489.56604290099995 L 718.6448426423177 510.80180719099997 L 666.7533468259844 510.80180719099997" stroke-miterlimit="10" stroke-width="1.3612669416666667" stroke-dasharray=""/><g transform="translate(653.3040294423178,510.80180719099997) translate(-653.3040294423178,-510.80180719099997)"><path fill="black" stroke="none" paint-order="stroke fill markers" d=" M 666.9166988589844 503.9954724826666 L 653.3040294423178 510.80180719099997 L 666.9166988589844 517.6081418993333 Z"/></g></g><g><g><rect fill="white" stroke="none" x="360.9559416511588" y="535.3046121409999" width="4.90056099" height="21.23576429"/></g><text fill="black" stroke="none" font-family="sans-serif" font-size="11pt" font-style="normal" font-weight="normal" text-decoration="normal" x="363.4062221461588" y="550.0062951109999" text-anchor="start" dominant-baseline="alphabetic" xml:space="preserve"></text></g><g><path fill="none" stroke="black" paint-order="fill stroke markers" d=" M 636.9688261423177 556.5403764309999 L 103.29293553366665 556.5403764309999" stroke-miterlimit="10" stroke-width="1.3612669416666667" stroke-dasharray=""/><g transform="translate(89.84361814999998,556.5403764309999) translate(-89.84361814999998,-556.5403764309999)"><path fill="black" stroke="none" paint-order="stroke fill markers" d=" M 103.45628756666665 549.7340417226666 L 89.84361814999998 556.5403764309999 L 103.45628756666665 563.3467111393333 Z"/></g></g><g><g><rect fill="white" stroke="none" x="318.1928801277213" y="605.5459863309999" width="90.426684036875" height="21.23576429"/></g><text fill="black" stroke="none" font-family="sans-serif" font-size="11pt" font-style="normal" font-weight="normal" text-decoration="normal" x="320.6431606227213" y="620.2476693009999" text-anchor="start" dominant-baseline="alphabetic" xml:space="preserve">is DOCTYPE</text></g><g><path fill="none" stroke="black" paint-order="fill stroke markers" d=" M 89.84361814999998 626.7817506209999 L 623.519508758651 626.7817506209999" stroke-miterlimit="10" stroke-width="1.3612669416666667" stroke-dasharray=""/><g transform="translate(636.9688261423177,626.7817506209999) translate(-636.9688261423177,-626.7817506209999)"><path fill="black" stroke="none" paint-order="stroke fill markers" d=" M 623.356156725651 619.9754159126666 L 636.9688261423177 626.7817506209999 L 623.356156725651 633.5880853293332 Z"/></g></g><g><g><rect fill="white" stroke="none" x="346.2888045051627" y="651.2845555709998" width="34.23483528199219" height="21.23576429"/></g><text fill="black" stroke="none" font-family="sans-serif" font-size="11pt" font-style="normal" font-weight="normal" text-decoration="normal" x="348.73908500016273" y="665.9862385409998" text-anchor="start" dominant-baseline="alphabetic" xml:space="preserve">true </text></g><g><path fill="none" stroke="black" paint-order="fill stroke markers" d=" M 636.9688261423177 672.5203198609998 L 103.29293553366665 672.5203198609998" stroke-miterlimit="10" stroke-width="1.3612669416666667" stroke-dasharray="6.53408132"/><g transform="translate(89.84361814999998,672.5203198609998) translate(-89.84361814999998,-672.5203198609998)"><path fill="black" stroke="none" paint-order="stroke fill markers" d=" M 103.45628756666665 665.7139851526665 L 89.84361814999998 672.5203198609998 L 103.45628756666665 679.3266545693332 Z"/></g></g><g><g><rect fill="white" stroke="none" x="255.03972766190103" y="741.1281737209997" width="216.73298896851563" height="21.23576429"/></g><text fill="black" stroke="none" font-family="sans-serif" font-size="11pt" font-style="normal" font-weight="normal" text-decoration="normal" x="257.490008156901" y="755.8298566909997" text-anchor="start" dominant-baseline="alphabetic" xml:space="preserve">parseDOCTYPE(content: String)</text></g><g><path fill="none" stroke="black" paint-order="fill stroke markers" d=" M 89.84361814999998 762.3639380109997 L 623.519508758651 762.3639380109997" stroke-miterlimit="10" stroke-width="1.3612669416666667" stroke-dasharray=""/><g transform="translate(636.9688261423177,762.3639380109997) translate(-636.9688261423177,-762.3639380109997)"><path fill="black" stroke="none" paint-order="stroke fill markers" d=" M 623.356156725651 755.5576033026664 L 636.9688261423177 762.3639380109997 L 623.356156725651 769.1702727193331 Z"/></g></g><g><g><rect fill="white" stroke="none" x="360.9559416511588" y="786.8667429609997" width="4.90056099" height="21.23576429"/></g><text fill="black" stroke="none" font-family="sans-serif" font-size="11pt" font-style="normal" font-weight="normal" text-decoration="normal" x="363.4062221461588" y="801.5684259309996" text-anchor="start" dominant-baseline="alphabetic" xml:space="preserve"></text></g><g><path fill="none" stroke="black" paint-order="fill stroke markers" d=" M 636.9688261423177 808.1025072509997 L 103.29293553366665 808.1025072509997" stroke-miterlimit="10" stroke-width="1.3612669416666667" stroke-dasharray=""/><g transform="translate(89.84361814999998,808.1025072509997) translate(-89.84361814999998,-808.1025072509997)"><path fill="black" stroke="none" paint-order="stroke fill markers" d=" M 103.45628756666665 801.2961725426663 L 89.84361814999998 808.1025072509997 L 103.45628756666665 814.908841959333 Z"/></g></g><path fill="white" stroke="black" paint-order="fill stroke markers" d=" M 89.84361814999998 875.8936009459998 L 98.01121979999998 875.8936009459998 M 98.01121979999998 857.1081171509998 L 235.81255614324218 857.1081171509998 L 250.51423911324218 871.8098001209997 L 250.51423911324218 894.6790847409998 L 98.01121979999998 894.6790847409998 L 98.01121979999998 857.1081171509998 M 235.81255614324218 857.1081171509998 L 235.81255614324218 871.8098001209997 L 250.51423911324218 871.8098001209997" stroke-miterlimit="10" stroke-width="1.3612669416666667" stroke-dasharray=""/><g><text fill="black" stroke="none" font-family="sans-serif" font-size="11pt" font-style="normal" font-weight="normal" text-decoration="normal" x="120.88050441999997" y="879.9774017709998" text-anchor="start" dominant-baseline="alphabetic" xml:space="preserve">Begin while loop</text></g><g><g><rect fill="white" stroke="none" x="117.34121037166665" y="963.2869386009997" width="233.06793464722656" height="21.23576429"/></g><text fill="black" stroke="none" font-family="sans-serif" font-size="11pt" font-style="normal" font-weight="normal" text-decoration="normal" x="119.79149086666665" y="977.9886215709997" text-anchor="start" dominant-baseline="alphabetic" xml:space="preserve">refill content preserve unprocessed</text></g><g><path fill="none" stroke="black" paint-order="fill stroke markers" d=" M 89.84361814999998 984.5227028909998 L 163.352033 984.5227028909998 L 163.352033 1005.7584671809998 L 111.46053718366666 1005.7584671809998" stroke-miterlimit="10" stroke-width="1.3612669416666667" stroke-dasharray=""/><g transform="translate(98.01121979999999,1005.7584671809998) translate(-98.01121979999999,-1005.7584671809998)"><path fill="black" stroke="none" paint-order="stroke fill markers" d=" M 111.62388921666665 998.9521324726664 L 98.01121979999999 1005.7584671809998 L 111.62388921666665 1012.5648018893331 Z"/></g></g><g><g><rect fill="white" stroke="none" x="345.9380659797721" y="1030.261272131" width="34.93631233277344" height="21.23576429"/></g><text fill="black" stroke="none" font-family="sans-serif" font-size="11pt" font-style="normal" font-weight="normal" text-decoration="normal" x="348.3883464747721" y="1044.962955101" text-anchor="start" dominant-baseline="alphabetic" xml:space="preserve">is '&amp;'</text></g><g><path fill="none" stroke="black" paint-order="fill stroke markers" d=" M 89.84361814999998 1051.4970364209998 L 623.519508758651 1051.4970364209998" stroke-miterlimit="10" stroke-width="1.3612669416666667" stroke-dasharray=""/><g transform="translate(636.9688261423177,1051.4970364209998) translate(-636.9688261423177,-1051.4970364209998)"><path fill="black" stroke="none" paint-order="stroke fill markers" d=" M 623.356156725651 1044.6907017126666 L 636.9688261423177 1051.4970364209998 L 623.356156725651 1058.303371129333 Z"/></g></g><g><g><rect fill="white" stroke="none" x="348.32531115799475" y="1075.999841371" width="30.161821976328124" height="21.23576429"/></g><text fill="black" stroke="none" font-family="sans-serif" font-size="11pt" font-style="normal" font-weight="normal" text-decoration="normal" x="350.77559165299476" y="1090.701524341" text-anchor="start" dominant-baseline="alphabetic" xml:space="preserve">true</text></g><g><path fill="none" stroke="black" paint-order="fill stroke markers" d=" M 636.9688261423177 1097.235605661 L 103.29293553366665 1097.235605661" stroke-miterlimit="10" stroke-width="1.3612669416666667" stroke-dasharray="6.53408132"/><g transform="translate(89.84361814999998,1097.235605661) translate(-89.84361814999998,-1097.235605661)"><path fill="black" stroke="none" paint-order="stroke fill markers" d=" M 103.45628756666665 1090.4292709526667 L 89.84361814999998 1097.235605661 L 103.45628756666665 1104.0419403693331 Z"/></g></g><g><g><rect fill="white" stroke="none" x="208.17505786209634" y="1121.738410611" width="310.462328568125" height="21.23576429"/></g><text fill="black" stroke="none" font-family="sans-serif" font-size="11pt" font-style="normal" font-weight="normal" text-decoration="normal" x="210.62533835709633" y="1136.4400935810002" text-anchor="start" dominant-baseline="alphabetic" xml:space="preserve">parseCharacterEntityReference(content:String)</text></g><g><path fill="none" stroke="black" paint-order="fill stroke markers" d=" M 89.84361814999998 1142.974174901 L 623.519508758651 1142.974174901" stroke-miterlimit="10" stroke-width="1.3612669416666667" stroke-dasharray=""/><g transform="translate(636.9688261423177,1142.974174901) translate(-636.9688261423177,-1142.974174901)"><path fill="black" stroke="none" paint-order="stroke fill markers" d=" M 623.356156725651 1136.1678401926667 L 636.9688261423177 1142.974174901 L 623.356156725651 1149.7805096093332 Z"/></g></g><g><g><rect fill="white" stroke="none" x="360.9559416511588" y="1167.4769798510001" width="4.90056099" height="21.23576429"/></g><text fill="black" stroke="none" font-family="sans-serif" font-size="11pt" font-style="normal" font-weight="normal" text-decoration="normal" x="363.4062221461588" y="1182.1786628210002" text-anchor="start" dominant-baseline="alphabetic" xml:space="preserve"></text></g><g><path fill="none" stroke="black" paint-order="fill stroke markers" d=" M 636.9688261423177 1188.712744141 L 103.29293553366665 1188.712744141" stroke-miterlimit="10" stroke-width="1.3612669416666667" stroke-dasharray=""/><g transform="translate(89.84361814999998,1188.712744141) translate(-89.84361814999998,-1188.712744141)"><path fill="black" stroke="none" paint-order="stroke fill markers" d=" M 103.45628756666665 1181.9064094326668 L 89.84361814999998 1188.712744141 L 103.45628756666665 1195.5190788493333 Z"/></g></g><g><g><rect fill="white" stroke="none" x="344.51000354080725" y="1213.2155490910002" width="37.79243721070313" height="21.23576429"/></g><text fill="black" stroke="none" font-family="sans-serif" font-size="11pt" font-style="normal" font-weight="normal" text-decoration="normal" x="346.96028403580726" y="1227.9172320610003" text-anchor="start" dominant-baseline="alphabetic" xml:space="preserve"> is '&lt;'</text></g><g><path fill="none" stroke="black" paint-order="fill stroke markers" d=" M 89.84361814999998 1234.451313381 L 623.519508758651 1234.451313381" stroke-miterlimit="10" stroke-width="1.3612669416666667" stroke-dasharray=""/><g transform="translate(636.9688261423177,1234.451313381) translate(-636.9688261423177,-1234.451313381)"><path fill="black" stroke="none" paint-order="stroke fill markers" d=" M 623.356156725651 1227.6449786726669 L 636.9688261423177 1234.451313381 L 623.356156725651 1241.2576480893333 Z"/></g></g><g><g><rect fill="white" stroke="none" x="346.2888045051627" y="1258.9541183310002" width="34.23483528199219" height="21.23576429"/></g><text fill="black" stroke="none" font-family="sans-serif" font-size="11pt" font-style="normal" font-weight="normal" text-decoration="normal" x="348.73908500016273" y="1273.6558013010003" text-anchor="start" dominant-baseline="alphabetic" xml:space="preserve">true </text></g><g><path fill="none" stroke="black" paint-order="fill stroke markers" d=" M 636.9688261423177 1280.1898826210002 L 103.29293553366665 1280.1898826210002" stroke-miterlimit="10" stroke-width="1.3612669416666667" stroke-dasharray="6.53408132"/><g transform="translate(89.84361814999998,1280.1898826210002) translate(-89.84361814999998,-1280.1898826210002)"><path fill="black" stroke="none" paint-order="stroke fill markers" d=" M 103.45628756666665 1273.383547912667 L 89.84361814999998 1280.1898826210002 L 103.45628756666665 1286.9962173293334 Z"/></g></g><g><g><rect fill="white" stroke="none" x="196.76847216873696" y="1304.6926875710003" width="333.2754999548437" height="21.23576429"/></g><text fill="black" stroke="none" font-family="sans-serif" font-size="11pt" font-style="normal" font-weight="normal" text-decoration="normal" x="199.21875266373695" y="1319.3943705410004" text-anchor="start" dominant-baseline="alphabetic" xml:space="preserve">parseCharacterNotEntityReference(content:String)</text></g><g><path fill="none" stroke="black" paint-order="fill stroke markers" d=" M 89.84361814999998 1325.9284518610002 L 623.519508758651 1325.9284518610002" stroke-miterlimit="10" stroke-width="1.3612669416666667" stroke-dasharray=""/><g transform="translate(636.9688261423177,1325.9284518610002) translate(-636.9688261423177,-1325.9284518610002)"><path fill="black" stroke="none" paint-order="stroke fill markers" d=" M 623.356156725651 1319.122117152667 L 636.9688261423177 1325.9284518610002 L 623.356156725651 1332.7347865693334 Z"/></g></g><g><g><rect fill="white" stroke="none" x="326.7362074592643" y="1350.4312568110004" width="73.34002937378906" height="21.23576429"/></g><text fill="black" stroke="none" font-family="sans-serif" font-size="11pt" font-style="normal" font-weight="normal" text-decoration="normal" x="329.1864879542643" y="1365.1329397810005" text-anchor="start" dominant-baseline="alphabetic" xml:space="preserve">characters</text></g><g><path fill="none" stroke="black" paint-order="fill stroke markers" d=" M 636.9688261423177 1371.6670211010003 L 103.29293553366665 1371.6670211010003" stroke-miterlimit="10" stroke-width="1.3612669416666667" stroke-dasharray="6.53408132"/><g transform="translate(89.84361814999998,1371.6670211010003) translate(-89.84361814999998,-1371.6670211010003)"><path fill="black" stroke="none" paint-order="stroke fill markers" d=" M 103.45628756666665 1364.860686392667 L 89.84361814999998 1371.6670211010003 L 103.45628756666665 1378.4733558093335 Z"/></g></g><g><g><rect fill="white" stroke="none" x="304.7462172248893" y="1396.1698260510004" width="117.32000984253906" height="21.23576429"/></g><text fill="black" stroke="none" font-family="sans-serif" font-size="11pt" font-style="normal" font-weight="normal" text-decoration="normal" x="307.1964977198893" y="1410.8715090210005" text-anchor="start" dominant-baseline="alphabetic" xml:space="preserve">is XML Comment</text></g><g><path fill="none" stroke="black" paint-order="fill stroke markers" d=" M 89.84361814999998 1417.4055903410003 L 623.519508758651 1417.4055903410003" stroke-miterlimit="10" stroke-width="1.3612669416666667" stroke-dasharray=""/><g transform="translate(636.9688261423177,1417.4055903410003) translate(-636.9688261423177,-1417.4055903410003)"><path fill="black" stroke="none" paint-order="stroke fill markers" d=" M 623.356156725651 1410.599255632667 L 636.9688261423177 1417.4055903410003 L 623.356156725651 1424.2119250493336 Z"/></g></g><g><g><rect fill="white" stroke="none" x="348.32531115799475" y="1441.9083952910005" width="30.161821976328124" height="21.23576429"/></g><text fill="black" stroke="none" font-family="sans-serif" font-size="11pt" font-style="normal" font-weight="normal" text-decoration="normal" x="350.77559165299476" y="1456.6100782610006" text-anchor="start" dominant-baseline="alphabetic" xml:space="preserve">true</text></g><g><path fill="none" stroke="black" paint-order="fill stroke markers" d=" M 636.9688261423177 1463.1441595810004 L 103.29293553366665 1463.1441595810004" stroke-miterlimit="10" stroke-width="1.3612669416666667" stroke-dasharray="6.53408132"/><g transform="translate(89.84361814999998,1463.1441595810004) translate(-89.84361814999998,-1463.1441595810004)"><path fill="black" stroke="none" paint-order="stroke fill markers" d=" M 103.45628756666665 1456.3378248726672 L 89.84361814999998 1463.1441595810004 L 103.45628756666665 1469.9504942893336 Z"/></g></g><g><g><rect fill="white" stroke="none" x="197.15857836990884" y="1487.6469645310005" width="332.4952875525" height="21.23576429"/></g><text fill="black" stroke="none" font-family="sans-serif" font-size="11pt" font-style="normal" font-weight="normal" text-decoration="normal" x="199.60885886490883" y="1502.3486475010006" text-anchor="start" dominant-baseline="alphabetic" xml:space="preserve">parseComment(content:String, doneReading:bool)</text></g><g><path fill="none" stroke="black" paint-order="fill stroke markers" d=" M 89.84361814999998 1508.8827288210005 L 623.519508758651 1508.8827288210005" stroke-miterlimit="10" stroke-width="1.3612669416666667" stroke-dasharray=""/><g transform="translate(636.9688261423177,1508.8827288210005) translate(-636.9688261423177,-1508.8827288210005)"><path fill="black" stroke="none" paint-order="stroke fill markers" d=" M 623.356156725651 1502.0763941126672 L 636.9688261423177 1508.8827288210005 L 623.356156725651 1515.6890635293337 Z"/></g></g><g><g><rect fill="white" stroke="none" x="276.19218585281897" y="1533.3855337710006" width="174.4280725866797" height="21.23576429"/></g><text fill="black" stroke="none" font-family="sans-serif" font-size="11pt" font-style="normal" font-weight="normal" text-decoration="normal" x="278.642466347819" y="1548.0872167410007" text-anchor="start" dominant-baseline="alphabetic" xml:space="preserve">bytesRead , doneReading</text></g><g><path fill="none" stroke="black" paint-order="fill stroke markers" d=" M 636.9688261423177 1554.6212980610005 L 103.29293553366665 1554.6212980610005" stroke-miterlimit="10" stroke-width="1.3612669416666667" stroke-dasharray="6.53408132"/><g transform="translate(89.84361814999998,1554.6212980610005) translate(-89.84361814999998,-1554.6212980610005)"><path fill="black" stroke="none" paint-order="stroke fill markers" d=" M 103.45628756666665 1547.8149633526673 L 89.84361814999998 1554.6212980610005 L 103.45628756666665 1561.4276327693337 Z"/></g></g><g><g><rect fill="white" stroke="none" x="329.87147662430334" y="1579.1241030110007" width="67.06949104371094" height="21.23576429"/></g><text fill="black" stroke="none" font-family="sans-serif" font-size="11pt" font-style="normal" font-weight="normal" text-decoration="normal" x="332.32175711930336" y="1593.8257859810008" text-anchor="start" dominant-baseline="alphabetic" xml:space="preserve">is CDATA</text></g><g><path fill="none" stroke="black" paint-order="fill stroke markers" d=" M 89.84361814999998 1600.3598673010006 L 623.519508758651 1600.3598673010006" stroke-miterlimit="10" stroke-width="1.3612669416666667" stroke-dasharray=""/><g transform="translate(636.9688261423177,1600.3598673010006) translate(-636.9688261423177,-1600.3598673010006)"><path fill="black" stroke="none" paint-order="stroke fill markers" d=" M 623.356156725651 1593.5535325926674 L 636.9688261423177 1600.3598673010006 L 623.356156725651 1607.1662020093338 Z"/></g></g><g><g><rect fill="white" stroke="none" x="348.32531115799475" y="1624.8626722510007" width="30.161821976328124" height="21.23576429"/></g><text fill="black" stroke="none" font-family="sans-serif" font-size="11pt" font-style="normal" font-weight="normal" text-decoration="normal" x="350.77559165299476" y="1639.5643552210008" text-anchor="start" dominant-baseline="alphabetic" xml:space="preserve">true</text></g><g><path fill="none" stroke="black" paint-order="fill stroke markers" d=" M 636.9688261423177 1646.0984365410006 L 103.29293553366665 1646.0984365410006" stroke-miterlimit="10" stroke-width="1.3612669416666667" stroke-dasharray="6.53408132"/><g transform="translate(89.84361814999998,1646.0984365410006) translate(-89.84361814999998,-1646.0984365410006)"><path fill="black" stroke="none" paint-order="stroke fill markers" d=" M 103.45628756666665 1639.2921018326674 L 89.84361814999998 1646.0984365410006 L 103.45628756666665 1652.9047712493339 Z"/></g></g><g><g><rect fill="white" stroke="none" x="205.1757597663932" y="1670.6012414910008" width="316.4609247595312" height="21.23576429"/></g><text fill="black" stroke="none" font-family="sans-serif" font-size="11pt" font-style="normal" font-weight="normal" text-decoration="normal" x="207.6260402613932" y="1685.3029244610009" text-anchor="start" dominant-baseline="alphabetic" xml:space="preserve">parseCDATA(content:String, doneReading:bool)</text></g><g><path fill="none" stroke="black" paint-order="fill stroke markers" d=" M 89.84361814999998 1691.8370057810007 L 623.519508758651 1691.8370057810007" stroke-miterlimit="10" stroke-width="1.3612669416666667" stroke-dasharray=""/><g transform="translate(636.9688261423177,1691.8370057810007) translate(-636.9688261423177,-1691.8370057810007)"><path fill="black" stroke="none" paint-order="stroke fill markers" d=" M 623.356156725651 1685.0306710726675 L 636.9688261423177 1691.8370057810007 L 623.356156725651 1698.643340489334 Z"/></g></g><g><g><rect fill="white" stroke="none" x="242.79206988602212" y="1716.3398107310009" width="241.22830452027344" height="21.23576429"/></g><text fill="black" stroke="none" font-family="sans-serif" font-size="11pt" font-style="normal" font-weight="normal" text-decoration="normal" x="245.2423503810221" y="1731.041493701001" text-anchor="start" dominant-baseline="alphabetic" xml:space="preserve">totalBytes, characters, doneReading</text></g><g><path fill="none" stroke="black" paint-order="fill stroke markers" d=" M 636.9688261423177 1737.5755750210008 L 103.29293553366665 1737.5755750210008" stroke-miterlimit="10" stroke-width="1.3612669416666667" stroke-dasharray="6.53408132"/><g transform="translate(89.84361814999998,1737.5755750210008) translate(-89.84361814999998,-1737.5755750210008)"><path fill="black" stroke="none" paint-order="stroke fill markers" d=" M 103.45628756666665 1730.7692403126675 L 89.84361814999998 1737.5755750210008 L 103.45628756666665 1744.381909729334 Z"/></g></g><g><g><rect fill="white" stroke="none" x="346.7505202034049" y="1762.078379971001" width="33.311403885507815" height="21.23576429"/></g><text fill="black" stroke="none" font-family="sans-serif" font-size="11pt" font-style="normal" font-weight="normal" text-decoration="normal" x="349.2008006984049" y="1776.780062941001" text-anchor="start" dominant-baseline="alphabetic" xml:space="preserve">is '?'</text></g><g><path fill="none" stroke="black" paint-order="fill stroke markers" d=" M 89.84361814999998 1783.3141442610008 L 623.519508758651 1783.3141442610008" stroke-miterlimit="10" stroke-width="1.3612669416666667" stroke-dasharray=""/><g transform="translate(636.9688261423177,1783.3141442610008) translate(-636.9688261423177,-1783.3141442610008)"><path fill="black" stroke="none" paint-order="stroke fill markers" d=" M 623.356156725651 1776.5078095526676 L 636.9688261423177 1783.3141442610008 L 623.356156725651 1790.120478969334 Z"/></g></g><g><g><rect fill="white" stroke="none" x="348.32531115799475" y="1807.816949211001" width="30.161821976328124" height="21.23576429"/></g><text fill="black" stroke="none" font-family="sans-serif" font-size="11pt" font-style="normal" font-weight="normal" text-decoration="normal" x="350.77559165299476" y="1822.518632181001" text-anchor="start" dominant-baseline="alphabetic" xml:space="preserve">true</text></g><g><path fill="none" stroke="black" paint-order="fill stroke markers" d=" M 636.9688261423177 1829.0527135010009 L 103.29293553366665 1829.0527135010009" stroke-miterlimit="10" stroke-width="1.3612669416666667" stroke-dasharray="6.53408132"/><g transform="translate(89.84361814999998,1829.0527135010009) translate(-89.84361814999998,-1829.0527135010009)"><path fill="black" stroke="none" paint-order="stroke fill markers" d=" M 103.45628756666665 1822.2463787926677 L 89.84361814999998 1829.0527135010009 L 103.45628756666665 1835.859048209334 Z"/></g></g><g><g><rect fill="white" stroke="none" x="256.2494902351432" y="1853.555518451001" width="214.31346382203125" height="21.23576429"/></g><text fill="black" stroke="none" font-family="sans-serif" font-size="11pt" font-style="normal" font-weight="normal" text-decoration="normal" x="258.6997707301432" y="1868.2572014210011" text-anchor="start" dominant-baseline="alphabetic" xml:space="preserve">parseProcessing(content:String)</text></g><g><path fill="none" stroke="black" paint-order="fill stroke markers" d=" M 89.84361814999998 1874.791282741001 L 623.519508758651 1874.791282741001" stroke-miterlimit="10" stroke-width="1.3612669416666667" stroke-dasharray=""/><g transform="translate(636.9688261423177,1874.791282741001) translate(-636.9688261423177,-1874.791282741001)"><path fill="black" stroke="none" paint-order="stroke fill markers" d=" M 623.356156725651 1867.9849480326677 L 636.9688261423177 1874.791282741001 L 623.356156725651 1881.5976174493342 Z"/></g></g><g><g><rect fill="white" stroke="none" x="360.9559416511588" y="1899.294087691001" width="4.90056099" height="21.23576429"/></g><text fill="black" stroke="none" font-family="sans-serif" font-size="11pt" font-style="normal" font-weight="normal" text-decoration="normal" x="363.4062221461588" y="1913.9957706610012" text-anchor="start" dominant-baseline="alphabetic" xml:space="preserve"></text></g><g><path fill="none" stroke="black" paint-order="fill stroke markers" d=" M 636.9688261423177 1920.529851981001 L 103.29293553366665 1920.529851981001" stroke-miterlimit="10" stroke-width="1.3612669416666667" stroke-dasharray=""/><g transform="translate(89.84361814999998,1920.529851981001) translate(-89.84361814999998,-1920.529851981001)"><path fill="black" stroke="none" paint-order="stroke fill markers" d=" M 103.45628756666665 1913.7235172726678 L 89.84361814999998 1920.529851981001 L 103.45628756666665 1927.3361866893342 Z"/></g></g><g><g><rect fill="white" stroke="none" x="348.7906050422721" y="1945.0326569310012" width="29.231234207773436" height="21.23576429"/></g><text fill="black" stroke="none" font-family="sans-serif" font-size="11pt" font-style="normal" font-weight="normal" text-decoration="normal" x="351.2408855372721" y="1959.7343399010012" text-anchor="start" dominant-baseline="alphabetic" xml:space="preserve">is '/'</text></g><g><path fill="none" stroke="black" paint-order="fill stroke markers" d=" M 89.84361814999998 1966.268421221001 L 623.519508758651 1966.268421221001" stroke-miterlimit="10" stroke-width="1.3612669416666667" stroke-dasharray=""/><g transform="translate(636.9688261423177,1966.268421221001) translate(-636.9688261423177,-1966.268421221001)"><path fill="black" stroke="none" paint-order="stroke fill markers" d=" M 623.356156725651 1959.4620865126678 L 636.9688261423177 1966.268421221001 L 623.356156725651 1973.0747559293343 Z"/></g></g><g><g><rect fill="white" stroke="none" x="348.32531115799475" y="1990.7712261710012" width="30.161821976328124" height="21.23576429"/></g><text fill="black" stroke="none" font-family="sans-serif" font-size="11pt" font-style="normal" font-weight="normal" text-decoration="normal" x="350.77559165299476" y="2005.4729091410013" text-anchor="start" dominant-baseline="alphabetic" xml:space="preserve">true</text></g><g><path fill="none" stroke="black" paint-order="fill stroke markers" d=" M 636.9688261423177 2012.0069904610011 L 103.29293553366665 2012.0069904610011" stroke-miterlimit="10" stroke-width="1.3612669416666667" stroke-dasharray="6.53408132"/><g transform="translate(89.84361814999998,2012.0069904610011) translate(-89.84361814999998,-2012.0069904610011)"><path fill="black" stroke="none" paint-order="stroke fill markers" d=" M 103.45628756666665 2005.200655752668 L 89.84361814999998 2012.0069904610011 L 103.45628756666665 2018.8133251693343 Z"/></g></g><g><g><rect fill="white" stroke="none" x="267.64889666824865" y="2036.5097954110013" width="191.51465095582031" height="21.23576429"/></g><text fill="black" stroke="none" font-family="sans-serif" font-size="11pt" font-style="normal" font-weight="normal" text-decoration="normal" x="270.09917716324867" y="2051.211478381001" text-anchor="start" dominant-baseline="alphabetic" xml:space="preserve">parseEndTag(content:String)</text></g><g><path fill="none" stroke="black" paint-order="fill stroke markers" d=" M 89.84361814999998 2057.745559701001 L 623.519508758651 2057.745559701001" stroke-miterlimit="10" stroke-width="1.3612669416666667" stroke-dasharray=""/><g transform="translate(636.9688261423177,2057.745559701001) translate(-636.9688261423177,-2057.745559701001)"><path fill="black" stroke="none" paint-order="stroke fill markers" d=" M 623.356156725651 2050.9392249926677 L 636.9688261423177 2057.745559701001 L 623.356156725651 2064.5518944093346 Z"/></g></g><g><g><rect fill="white" stroke="none" x="360.9559416511588" y="2082.248364651001" width="4.90056099" height="21.23576429"/></g><text fill="black" stroke="none" font-family="sans-serif" font-size="11pt" font-style="normal" font-weight="normal" text-decoration="normal" x="363.4062221461588" y="2096.950047621001" text-anchor="start" dominant-baseline="alphabetic" xml:space="preserve"></text></g><g><path fill="none" stroke="black" paint-order="fill stroke markers" d=" M 636.9688261423177 2103.484128941001 L 103.29293553366665 2103.484128941001" stroke-miterlimit="10" stroke-width="1.3612669416666667" stroke-dasharray=""/><g transform="translate(89.84361814999998,2103.484128941001) translate(-89.84361814999998,-2103.484128941001)"><path fill="black" stroke="none" paint-order="stroke fill markers" d=" M 103.45628756666665 2096.6777942326676 L 89.84361814999998 2103.484128941001 L 103.45628756666665 2110.2904636493345 Z"/></g></g><g><g><rect fill="white" stroke="none" x="346.5465101936393" y="2127.9869338910007" width="33.719423905039065" height="21.23576429"/></g><text fill="black" stroke="none" font-family="sans-serif" font-size="11pt" font-style="normal" font-weight="normal" text-decoration="normal" x="348.9967906886393" y="2142.688616861001" text-anchor="start" dominant-baseline="alphabetic" xml:space="preserve">is '&lt;'</text></g><g><path fill="none" stroke="black" paint-order="fill stroke markers" d=" M 89.84361814999998 2149.222698181001 L 623.519508758651 2149.222698181001" stroke-miterlimit="10" stroke-width="1.3612669416666667" stroke-dasharray=""/><g transform="translate(636.9688261423177,2149.222698181001) translate(-636.9688261423177,-2149.222698181001)"><path fill="black" stroke="none" paint-order="stroke fill markers" d=" M 623.356156725651 2142.4163634726674 L 636.9688261423177 2149.222698181001 L 623.356156725651 2156.0290328893343 Z"/></g></g><g><g><rect fill="white" stroke="none" x="348.32531115799475" y="2173.7255031310006" width="30.161821976328124" height="21.23576429"/></g><text fill="black" stroke="none" font-family="sans-serif" font-size="11pt" font-style="normal" font-weight="normal" text-decoration="normal" x="350.77559165299476" y="2188.4271861010006" text-anchor="start" dominant-baseline="alphabetic" xml:space="preserve">true</text></g><g><path fill="none" stroke="black" paint-order="fill stroke markers" d=" M 636.9688261423177 2194.9612674210007 L 103.29293553366665 2194.9612674210007" stroke-miterlimit="10" stroke-width="1.3612669416666667" stroke-dasharray="6.53408132"/><g transform="translate(89.84361814999998,2194.9612674210007) translate(-89.84361814999998,-2194.9612674210007)"><path fill="black" stroke="none" paint-order="stroke fill markers" d=" M 103.45628756666665 2188.1549327126672 L 89.84361814999998 2194.9612674210007 L 103.45628756666665 2201.767602129334 Z"/></g></g><g><g><rect fill="white" stroke="none" x="113.25740954666664" y="2219.4640723710004" width="500.29762519898435" height="21.23576429"/></g><text fill="black" stroke="none" font-family="sans-serif" font-size="11pt" font-style="normal" font-weight="normal" text-decoration="normal" x="115.70769004166664" y="2234.1657553410005" text-anchor="start" dominant-baseline="alphabetic" xml:space="preserve">parseStartTag(content:String, qName:String, prefix:String, localName:String)</text></g><g><path fill="none" stroke="black" paint-order="fill stroke markers" d=" M 89.84361814999998 2240.6998366610005 L 623.519508758651 2240.6998366610005" stroke-miterlimit="10" stroke-width="1.3612669416666667" stroke-dasharray=""/><g transform="translate(636.9688261423177,2240.6998366610005) translate(-636.9688261423177,-2240.6998366610005)"><path fill="black" stroke="none" paint-order="stroke fill markers" d=" M 623.356156725651 2233.893501952667 L 636.9688261423177 2240.6998366610005 L 623.356156725651 2247.506171369334 Z"/></g></g><g><g><rect fill="white" stroke="none" x="276.628838990026" y="2265.202641611" width="173.55476631226563" height="21.23576429"/></g><text fill="black" stroke="none" font-family="sans-serif" font-size="11pt" font-style="normal" font-weight="normal" text-decoration="normal" x="279.079119485026" y="2279.9043245810003" text-anchor="start" dominant-baseline="alphabetic" xml:space="preserve">qName, prefix, localName</text></g><g><path fill="none" stroke="black" paint-order="fill stroke markers" d=" M 636.9688261423177 2286.4384059010004 L 103.29293553366665 2286.4384059010004" stroke-miterlimit="10" stroke-width="1.3612669416666667" stroke-dasharray="6.53408132"/><g transform="translate(89.84361814999998,2286.4384059010004) translate(-89.84361814999998,-2286.4384059010004)"><path fill="black" stroke="none" paint-order="stroke fill markers" d=" M 103.45628756666665 2279.632071192667 L 89.84361814999998 2286.4384059010004 L 103.45628756666665 2293.244740609334 Z"/></g></g><g><g><rect fill="white" stroke="none" x="117.34121037166665" y="2310.9412108510005" width="198.00000251832031" height="21.23576429"/></g><text fill="black" stroke="none" font-family="sans-serif" font-size="11pt" font-style="normal" font-weight="normal" text-decoration="normal" x="119.79149086666665" y="2325.6428938210006" text-anchor="start" dominant-baseline="alphabetic" xml:space="preserve">Compare to srcML tag names</text></g><g><path fill="none" stroke="black" paint-order="fill stroke markers" d=" M 89.84361814999998 2332.176975141 L 163.352033 2332.176975141 L 163.352033 2353.4127394310003 L 111.46053718366666 2353.4127394310003" stroke-miterlimit="10" stroke-width="1.3612669416666667" stroke-dasharray=""/><g transform="translate(98.01121979999999,2353.4127394310003) translate(-98.01121979999999,-2353.4127394310003)"><path fill="black" stroke="none" paint-order="stroke fill markers" d=" M 111.62388921666665 2346.606404722667 L 98.01121979999999 2353.4127394310003 L 111.62388921666665 2360.2190741393338 Z"/></g></g><g><g><rect fill="white" stroke="none" x="117.34121037166665" y="2377.9155443810005" width="158.92340339722656" height="21.23576429"/></g><text fill="black" stroke="none" font-family="sans-serif" font-size="11pt" font-style="normal" font-weight="normal" text-decoration="normal" x="119.79149086666665" y="2392.6172273510006" text-anchor="start" dominant-baseline="alphabetic" xml:space="preserve">Update count variables </text></g><g><path fill="none" stroke="black" paint-order="fill stroke markers" d=" M 89.84361814999998 2399.151308671 L 163.352033 2399.151308671 L 163.352033 2420.3870729610003 L 111.46053718366666 2420.3870729610003" stroke-miterlimit="10" stroke-width="1.3612669416666667" stroke-dasharray=""/><g transform="translate(98.01121979999999,2420.3870729610003) translate(-98.01121979999999,-2420.3870729610003)"><path fill="black" stroke="none" paint-order="stroke fill markers" d=" M 111.62388921666665 2413.580738252667 L 98.01121979999999 2420.3870729610003 L 111.62388921666665 2427.1934076693337 Z"/></g></g><g><g><rect fill="white" stroke="none" x="314.5135817268424" y="2444.889877911" width="97.78528083863281" height="21.23576429"/></g><text fill="black" stroke="none" font-family="sans-serif" font-size="11pt" font-style="normal" font-weight="normal" text-decoration="normal" x="316.9638622218424" y="2459.591560881" text-anchor="start" dominant-baseline="alphabetic" xml:space="preserve">is Namespace</text></g><g><path fill="none" stroke="black" paint-order="fill stroke markers" d=" M 89.84361814999998 2466.125642201 L 623.519508758651 2466.125642201" stroke-miterlimit="10" stroke-width="1.3612669416666667" stroke-dasharray=""/><g transform="translate(636.9688261423177,2466.125642201) translate(-636.9688261423177,-2466.125642201)"><path fill="black" stroke="none" paint-order="stroke fill markers" d=" M 623.356156725651 2459.3193074926667 L 636.9688261423177 2466.125642201 L 623.356156725651 2472.9319769093336 Z"/></g></g><g><g><rect fill="white" stroke="none" x="348.32531115799475" y="2490.628447151" width="30.161821976328124" height="21.23576429"/></g><text fill="black" stroke="none" font-family="sans-serif" font-size="11pt" font-style="normal" font-weight="normal" text-decoration="normal" x="350.77559165299476" y="2505.330130121" text-anchor="start" dominant-baseline="alphabetic" xml:space="preserve">true</text></g><g><path fill="none" stroke="black" paint-order="fill stroke markers" d=" M 636.9688261423177 2511.864211441 L 103.29293553366665 2511.864211441" stroke-miterlimit="10" stroke-width="1.3612669416666667" stroke-dasharray="6.53408132"/><g transform="translate(89.84361814999998,2511.864211441) translate(-89.84361814999998,-2511.864211441)"><path fill="black" stroke="none" paint-order="stroke fill markers" d=" M 103.45628756666665 2505.0578767326665 L 89.84361814999998 2511.864211441 L 103.45628756666665 2518.6705461493334 Z"/></g></g><path fill="white" stroke="black" paint-order="fill stroke markers" d=" M 89.84361814999998 2555.152500186 L 98.01121979999998 2555.152500186 M 98.01121979999998 2536.367016391 L 352.3121136383594 2536.367016391 L 367.01379660835937 2551.068699361 L 367.01379660835937 2573.937983981 L 98.01121979999998 2573.937983981 L 98.01121979999998 2536.367016391 M 352.3121136383594 2536.367016391 L 352.3121136383594 2551.068699361 L 367.01379660835937 2551.068699361" stroke-miterlimit="10" stroke-width="1.3612669416666667" stroke-dasharray=""/><g><text fill="black" stroke="none" font-family="sans-serif" font-size="11pt" font-style="normal" font-weight="normal" text-decoration="normal" x="120.88050441999997" y="2559.2363010110003" text-anchor="start" dominant-baseline="alphabetic" xml:space="preserve">else parseAtrribute(content:String)</text></g><g><g><rect fill="white" stroke="none" x="253.39693591385415" y="2598.4407889309996" width="220.01857246460938" height="21.23576429"/></g><text fill="black" stroke="none" font-family="sans-serif" font-size="11pt" font-style="normal" font-weight="normal" text-decoration="normal" x="255.84721640885414" y="2613.1424719009997" text-anchor="start" dominant-baseline="alphabetic" xml:space="preserve">parseNamespace(content:String)</text></g><g><path fill="none" stroke="black" paint-order="fill stroke markers" d=" M 89.84361814999998 2619.6765532209997 L 623.519508758651 2619.6765532209997" stroke-miterlimit="10" stroke-width="1.3612669416666667" stroke-dasharray=""/><g transform="translate(636.9688261423177,2619.6765532209997) translate(-636.9688261423177,-2619.6765532209997)"><path fill="black" stroke="none" paint-order="stroke fill markers" d=" M 623.356156725651 2612.8702185126663 L 636.9688261423177 2619.6765532209997 L 623.356156725651 2626.482887929333 Z"/></g></g><g><g><rect fill="white" stroke="none" x="360.9559416511588" y="2644.1793581709994" width="4.90056099" height="21.23576429"/></g><text fill="black" stroke="none" font-family="sans-serif" font-size="11pt" font-style="normal" font-weight="normal" text-decoration="normal" x="363.4062221461588" y="2658.8810411409995" text-anchor="start" dominant-baseline="alphabetic" xml:space="preserve"></text></g><g><path fill="none" stroke="black" paint-order="fill stroke markers" d=" M 636.9688261423177 2665.4151224609996 L 103.29293553366665 2665.4151224609996" stroke-miterlimit="10" stroke-width="1.3612669416666667" stroke-dasharray=""/><g transform="translate(89.84361814999998,2665.4151224609996) translate(-89.84361814999998,-2665.4151224609996)"><path fill="black" stroke="none" paint-order="stroke fill markers" d=" M 103.45628756666665 2658.608787752666 L 89.84361814999998 2665.4151224609996 L 103.45628756666665 2672.221457169333 Z"/></g></g><g><g><rect fill="white" stroke="none" x="344.1413435676627" y="2689.9179274109993" width="38.52975715699219" height="21.23576429"/></g><text fill="black" stroke="none" font-family="sans-serif" font-size="11pt" font-style="normal" font-weight="normal" text-decoration="normal" x="346.59162406266273" y="2704.6196103809993" text-anchor="start" dominant-baseline="alphabetic" xml:space="preserve">is "&gt;"</text></g><g><path fill="none" stroke="black" paint-order="fill stroke markers" d=" M 89.84361814999998 2711.1536917009994 L 623.519508758651 2711.1536917009994" stroke-miterlimit="10" stroke-width="1.3612669416666667" stroke-dasharray=""/><g transform="translate(636.9688261423177,2711.1536917009994) translate(-636.9688261423177,-2711.1536917009994)"><path fill="black" stroke="none" paint-order="stroke fill markers" d=" M 623.356156725651 2704.347356992666 L 636.9688261423177 2711.1536917009994 L 623.356156725651 2717.960026409333 Z"/></g></g><g><g><rect fill="white" stroke="none" x="348.32531115799475" y="2735.656496650999" width="30.161821976328124" height="21.23576429"/></g><text fill="black" stroke="none" font-family="sans-serif" font-size="11pt" font-style="normal" font-weight="normal" text-decoration="normal" x="350.77559165299476" y="2750.358179620999" text-anchor="start" dominant-baseline="alphabetic" xml:space="preserve">true</text></g><g><path fill="none" stroke="black" paint-order="fill stroke markers" d=" M 636.9688261423177 2756.892260940999 L 103.29293553366665 2756.892260940999" stroke-miterlimit="10" stroke-width="1.3612669416666667" stroke-dasharray="6.53408132"/><g transform="translate(89.84361814999998,2756.892260940999) translate(-89.84361814999998,-2756.892260940999)"><path fill="black" stroke="none" paint-order="stroke fill markers" d=" M 103.45628756666665 2750.0859262326658 L 89.84361814999998 2756.892260940999 L 103.45628756666665 2763.6985956493327 Z"/></g></g><g><g><rect fill="white" stroke="none" x="342.1048369148307" y="2781.395065890999" width="42.60277046265625" height="21.23576429"/></g><text fill="black" stroke="none" font-family="sans-serif" font-size="11pt" font-style="normal" font-weight="normal" text-decoration="normal" x="344.5551174098307" y="2796.096748860999" text-anchor="start" dominant-baseline="alphabetic" xml:space="preserve">is "/&gt;"</text></g><g><path fill="none" stroke="black" paint-order="fill stroke markers" d=" M 89.84361814999998 2802.630830180999 L 623.519508758651 2802.630830180999" stroke-miterlimit="10" stroke-width="1.3612669416666667" stroke-dasharray=""/><g transform="translate(636.9688261423177,2802.630830180999) translate(-636.9688261423177,-2802.630830180999)"><path fill="black" stroke="none" paint-order="stroke fill markers" d=" M 623.356156725651 2795.8244954726656 L 636.9688261423177 2802.630830180999 L 623.356156725651 2809.4371648893325 Z"/></g></g><g><g><rect fill="white" stroke="none" x="348.32531115799475" y="2827.1336351309988" width="30.161821976328124" height="21.23576429"/></g><text fill="black" stroke="none" font-family="sans-serif" font-size="11pt" font-style="normal" font-weight="normal" text-decoration="normal" x="350.77559165299476" y="2841.835318100999" text-anchor="start" dominant-baseline="alphabetic" xml:space="preserve">true</text></g><g><path fill="none" stroke="black" paint-order="fill stroke markers" d=" M 636.9688261423177 2848.369399420999 L 103.29293553366665 2848.369399420999" stroke-miterlimit="10" stroke-width="1.3612669416666667" stroke-dasharray="6.53408132"/><g transform="translate(89.84361814999998,2848.369399420999) translate(-89.84361814999998,-2848.369399420999)"><path fill="black" stroke="none" paint-order="stroke fill markers" d=" M 103.45628756666665 2841.5630647126654 L 89.84361814999998 2848.369399420999 L 103.45628756666665 2855.1757341293323 Z"/></g></g><g><g/><path fill="none" stroke="black" paint-order="fill stroke markers" d=" M 16.33520329999999 311.51232693099996 L 985.6139627058594 311.51232693099996 L 985.6139627058594 581.043181381 L 16.33520329999999 581.043181381 L 16.33520329999999 311.51232693099996 Z" stroke-miterlimit="10" stroke-width="2.3336004714285714" stroke-dasharray=""/><path fill="white" stroke="black" paint-order="fill stroke markers" d=" M 16.33520329999999 311.51232693099996 L 16.33520329999999 331.11457089099997 L 175.46953812265625 331.11457089099997 L 185.27066010265625 321.31344891099997 L 185.27066010265625 311.51232693099996 L 16.33520329999999 311.51232693099996" stroke-miterlimit="10" stroke-width="2.3336004714285714" stroke-dasharray=""/><text fill="black" stroke="none" font-family="sans-serif" font-size="8.8pt" font-style="normal" font-weight="bold" text-decoration="normal" x="32.67040659999999" y="324.580489571" text-anchor="start" dominant-baseline="alphabetic" xml:space="preserve">parse XML Declaration</text></g><g><g/><path fill="none" stroke="black" paint-order="fill stroke markers" d=" M 16.33520329999999 697.0231248109998 L 702.3096393423177 697.0231248109998 L 702.3096393423177 832.6053122009997 L 16.33520329999999 832.6053122009997 L 16.33520329999999 697.0231248109998 Z" stroke-miterlimit="10" stroke-width="2.3336004714285714" stroke-dasharray=""/><path fill="white" stroke="black" paint-order="fill stroke markers" d=" M 16.33520329999999 697.0231248109998 L 16.33520329999999 716.6253687709998 L 140.26812210703125 716.6253687709998 L 150.06924408703125 706.8242467909997 L 150.06924408703125 697.0231248109998 L 16.33520329999999 697.0231248109998" stroke-miterlimit="10" stroke-width="2.3336004714285714" stroke-dasharray=""/><text fill="black" stroke="none" font-family="sans-serif" font-size="8.8pt" font-style="normal" font-weight="bold" text-decoration="normal" x="32.67040659999999" y="710.0912874509997" text-anchor="start" dominant-baseline="alphabetic" xml:space="preserve">parse DOCTYPE</text></g><g><g/><path fill="none" stroke="black" paint-order="fill stroke markers" d=" M 16.33520329999999 919.1818896909998 L 702.3096393423177 919.1818896909998 L 702.3096393423177 2872.872204370999 L 16.33520329999999 2872.872204370999 L 16.33520329999999 919.1818896909998 Z" stroke-miterlimit="10" stroke-width="2.3336004714285714" stroke-dasharray=""/><path fill="white" stroke="black" paint-order="fill stroke markers" d=" M 16.33520329999999 919.1818896909998 L 16.33520329999999 938.7841336509998 L 108.29700699472656 938.7841336509998 L 118.09812897472656 928.9830116709998 L 118.09812897472656 919.1818896909998 L 16.33520329999999 919.1818896909998" stroke-miterlimit="10" stroke-width="2.3336004714285714" stroke-dasharray=""/><text fill="black" stroke="none" font-family="sans-serif" font-size="8.8pt" font-style="normal" font-weight="bold" text-decoration="normal" x="32.67040659999999" y="932.2500523309998" text-anchor="start" dominant-baseline="alphabetic" xml:space="preserve">While loop</text></g></g><g/><g/></g></svg>