<svg version="1.1" xmlns="http://www.w3.org/2000/svg" xmlns:xlink="http://www.w3.org/1999/xlink" width="802" height="3472"><desc>title%20Sequence%20Diagram%20for%20srcFacts%0A%0Aparticipant%20srcFacts%0Aparticipant%20xml_parser%0A%0Aactivecolor%20srcFacts%20%23coral%0Aactivecolor%20xml_parser%20%23crimson%0A%0Aactivate%20srcFacts%0AsrcFacts%20-%3E%20xml_parser%3A%20parseBegin()%0Adeactivate%20srcFacts%0Aactivate%20xml_parser%0Axml_parser%20--%3E%20srcFacts%3A%20bytesRead%0Adeactivate%20xml_parser%0Aactivate%20srcFacts%0A%0A%23%20check%20isXML()%0AsrcFacts%20-%3E%20xml_parser%3A%20is%20XML%20Declaration%0Adeactivate%20srcFacts%0Aactivate%20xml_parser%0Axml_parser%20--%3E%20srcFacts%3A%20true%0Adeactivate%20xml_parser%0Aactivate%20srcFacts%0A%0A%23%20parse%20XML%20Declaration%0Agroup%20parse%20XML%20Declaration%0AsrcFacts%20-%3E%20xml_parser%3A%20parseXMLDeclaration(content)%0Adeactivate%20srcFacts%0Aactivate%20xml_parser%0Axml_parser%20-%3E%20xml_parser%3A%20parseVersion(content)%0Axml_parser%20-%3E%20xml_parser%3A%20parseEncodingAndStandalone(content)%0Axml_parser%20-%3E%20srcFacts%3A%0Adeactivate%20xml_parser%0Aactivate%20srcFacts%0Aend%20%0A%0A%23%20check%20isDOCTYPE()%0AsrcFacts%20-%3E%20xml_parser%3A%20is%20DOCTYPE%0Adeactivate%20srcFacts%0Aactivate%20xml_parser%0Axml_parser%20--%3E%20srcFacts%3A%20true%20%0Adeactivate%20xml_parser%0Aactivate%20srcFacts%0A%0A%23%20parse%20DOCTYPE%0Agroup%20parse%20DOCTYPE%0AsrcFacts%20-%3E%20xml_parser%3A%20parseDOCTYPE(content)%0Adeactivate%20srcFacts%0Aactivate%20xml_parser%0Axml_parser%20-%3E%20srcFacts%3A%20%0Adeactivate%20xml_parser%0Aactivate%20srcFacts%0Aend%0A%0Anote%20right%20of%20srcFacts%3A%20Begin%20while%20loop%0Agroup%20While%20loop%0AsrcFacts%20-%3E%20srcFacts%3A%20refillContent(content)%0Aactivate%20srcFacts%0Anote%20right%20of%20srcFacts%3A%20refill%20content%20preserve%20unprocessed%0Adeactivateafter%20srcFacts%0A%0Agroup%20parse%20Character%0A%23%20isCharacter(content%3AString%2C%20index%3Aint%2C%20character%3Achar%20%3D%20'%26')%0AsrcFacts%20-%3E%20xml_parser%3A%20is%20'%26'%0Adeactivate%20srcFacts%0Aactivate%20xml_parser%0Axml_parser%20--%3E%20srcFacts%3A%20true%0Adeactivate%20xml_parser%0Aactivate%20srcFacts%0A%0AsrcFacts%20-%3E%20xml_parser%3A%20parseCharacterEntityReference(content)%0Adeactivate%20srcFacts%0Aactivate%20xml_parser%0Axml_parser%20-%3E%20srcFacts%3A%20%0Adeactivate%20xml_parser%0Aactivate%20srcFacts%0A%0AsrcFacts%20-%3E%20xml_parser%3A%20%20is%20'%3C'%0Adeactivate%20srcFacts%0Aactivate%20xml_parser%0Axml_parser%20--%3E%20srcFacts%3A%20true%20%0Adeactivate%20xml_parser%0Aactivate%20srcFacts%0A%0AsrcFacts%20-%3E%20xml_parser%3A%20parseCharacterNotEntityReference(content)%0Adeactivate%20srcFacts%0Aactivate%20xml_parser%0Axml_parser%20--%3E%20srcFacts%3A%20characters%0Adeactivate%20xml_parser%0Aactivate%20srcFacts%0Aend%0A%0Agroup%20parse%20Comment%0AsrcFacts%20-%3E%20xml_parser%3A%20is%20XML%20Comment%0Adeactivate%20srcFacts%0Aactivate%20xml_parser%0Axml_parser%20--%3E%20srcFacts%3A%20true%0Adeactivate%20xml_parser%0Aactivate%20srcFacts%0A%0AsrcFacts%20-%3E%20xml_parser%3A%20parseComment(content%2C%20doneReading)%0Adeactivate%20srcFacts%0Aactivate%20xml_parser%0Axml_parser%20--%3E%20srcFacts%3A%20bytesRead%20%2C%20doneReading%0Adeactivate%20xml_parser%0Aactivate%20srcFacts%0Aend%20%0A%0Agroup%20parse%20CDATA%0AsrcFacts%20-%3E%20xml_parser%3A%20is%20CDATA%0Adeactivate%20srcFacts%0Aactivate%20xml_parser%0Axml_parser%20--%3E%20srcFacts%3A%20true%0Adeactivate%20xml_parser%0Aactivate%20srcFacts%0A%0AsrcFacts%20-%3E%20xml_parser%3A%20parseCDATA(content%2C%20doneReading)%0Adeactivate%20srcFacts%0Aactivate%20xml_parser%0Axml_parser%20--%3E%20srcFacts%3A%20totalBytes%2C%20characters%2C%20doneReading%0Adeactivate%20xml_parser%0Aactivate%20srcFacts%0Aend%0A%0Agroup%20parse%20Processing%0AsrcFacts%20-%3E%20xml_parser%3A%20is%20'%3F'%0Adeactivate%20srcFacts%0Aactivate%20xml_parser%0Axml_parser%20--%3E%20srcFacts%3A%20true%0Adeactivate%20xml_parser%0Aactivate%20srcFacts%0A%0AsrcFacts%20-%3E%20xml_parser%3A%20parseProcessing(content)%0Adeactivate%20srcFacts%0Aactivate%20xml_parser%0Axml_parser%20-%3E%20srcFacts%3A%20%0Adeactivate%20xml_parser%0Aactivate%20srcFacts%0Aend%20%0A%0Agroup%20parse%20End%20Tag%0AsrcFacts%20-%3E%20xml_parser%3A%20is%20'%2F'%0Adeactivate%20srcFacts%0Aactivate%20xml_parser%0Axml_parser%20--%3E%20srcFacts%3A%20true%0Adeactivate%20xml_parser%0Aactivate%20srcFacts%0A%0AsrcFacts%20-%3E%20xml_parser%3A%20parseEndTag(content)%0Adeactivate%20srcFacts%0Aactivate%20xml_parser%0Axml_parser%20-%3E%20srcFacts%3A%20%0Adeactivate%20xml_parser%0Aactivate%20srcFacts%0Aend%20%0A%0Agroup%20parse%20Start%20Tag%0AsrcFacts%20-%3E%20xml_parser%3A%20is%20'%3C'%0Adeactivate%20srcFacts%0Aactivate%20xml_parser%0Axml_parser%20--%3E%20srcFacts%3A%20true%0Adeactivate%20xml_parser%0Aactivate%20srcFacts%0A%0AsrcFacts%20-%3E%20xml_parser%3A%20parseStartTag(content%2C%20qName%2C%20prefix%2C%20localName)%0Adeactivate%20srcFacts%0Aactivate%20xml_parser%0Axml_parser%20--%3E%20srcFacts%3A%20qName%2C%20prefix%2C%20localName%0Adeactivate%20xml_parser%0Aactivate%20srcFacts%0A%0AsrcFacts%20-%3E%20srcFacts%3A%20Compare%20to%20srcML%20tag%20names%0Aactivate%20srcFacts%20%23blue%0Adeactivateafter%20srcFacts%0A%0AsrcFacts%20-%3E%20srcFacts%3A%20Update%20count%20variables%20%0Aactivate%20srcFacts%0Adeactivateafter%20srcFacts%0Aend%20%0A%0Agroup%20parse%20Namespace%0AsrcFacts%20-%3E%20xml_parser%3A%20is%20Namespace%0Adeactivate%20srcFacts%0Aactivate%20xml_parser%0Axml_parser%20--%3E%20srcFacts%3A%20true%0Adeactivate%20xml_parser%0Aactivate%20srcFacts%0Aend%0A%0Anote%20right%20of%20srcFacts%3A%20else%20parseAtribute(content)%0A%0AsrcFacts%20-%3E%20xml_parser%3A%20parseNamespace(content)%0Adeactivate%20srcFacts%0Aactivate%20xml_parser%0Axml_parser%20-%3E%20srcFacts%3A%20%0Adeactivate%20xml_parser%0Aactivate%20srcFacts%0A%0A%0A%0AsrcFacts%20-%3E%20xml_parser%3A%20is%20%22%3E%22%0Adeactivate%20srcFacts%0Aactivate%20xml_parser%0Axml_parser%20--%3E%20srcFacts%3A%20true%0Adeactivate%20xml_parser%0Aactivate%20srcFacts%0A%0AsrcFacts%20-%3E%20xml_parser%3A%20is%20%22%2F%3E%22%0Adeactivate%20srcFacts%0Aactivate%20xml_parser%0Axml_parser%20--%3E%20srcFacts%3A%20true%0Adeactivate%20xml_parser%0Aactivate%20srcFacts%0A%0Aend</desc><defs/><g><g/><g/><g/><g/><g/><g/><g/><g/><g/><g/><g/><g/><g/><g/><g/><g/><g/><g/><g/><g/><g/><g/><g/><g/><g/><g/><g/><g/><g/><g/><g/><g/><g/><g/><g/><g/><g/><g/><g/><g/><g/><g/><g/><g/><g/><g/><g/><g/><g/><g/><g/><g/><g/><g/><g><rect fill="white" stroke="none" x="0" y="0" width="802" height="3472"/></g><g><text fill="black" stroke="none" font-family="sans-serif" font-size="16.5pt" font-style="normal" font-weight="normal" text-decoration="normal" x="246.51094380820314" y="24.50280495" text-anchor="start" dominant-baseline="alphabetic" xml:space="preserve">Sequence Diagram for srcFacts</text></g><g/><g><path fill="none" stroke="black" paint-order="fill stroke markers" d=" M 98.01121979999999 95.887643371 L 98.01121979999999 3472.3741654809974" stroke-miterlimit="10" stroke-width="1.3612669416666667" stroke-dasharray="12.565541,5.445067766666667"/><path fill="none" stroke="black" paint-order="fill stroke markers" d=" M 491.99427513528644 95.887643371 L 491.99427513528644 3472.3741654809974" stroke-miterlimit="10" stroke-width="1.3612669416666667" stroke-dasharray="12.565541,5.445067766666667"/></g><g><path fill="none" stroke="none"/><g><path fill="white" stroke="black" paint-order="fill stroke markers" d=" M 52.596056934343736 51.782594461 L 143.42638266565626 51.782594461 L 143.42638266565626 95.887643371 L 52.596056934343736 95.887643371 L 52.596056934343736 51.782594461 Z" stroke-miterlimit="10" stroke-width="2.613632528" stroke-dasharray=""/></g><g><g/><text fill="black" stroke="none" font-family="sans-serif" font-size="11pt" font-style="normal" font-weight="normal" text-decoration="normal" x="70.31975251484374" y="79.55244007099999" text-anchor="start" dominant-baseline="alphabetic" xml:space="preserve">srcFacts</text></g><path fill="none" stroke="none"/><g><path fill="white" stroke="black" paint-order="fill stroke markers" d=" M 438.017916896095 51.782594461 L 545.9706333744779 51.782594461 L 545.9706333744779 95.887643371 L 438.017916896095 95.887643371 L 438.017916896095 51.782594461 Z" stroke-miterlimit="10" stroke-width="2.613632528" stroke-dasharray=""/></g><g><g/><text fill="black" stroke="none" font-family="sans-serif" font-size="11pt" font-style="normal" font-weight="normal" text-decoration="normal" x="455.74161247659504" y="79.55244007099999" text-anchor="start" dominant-baseline="alphabetic" xml:space="preserve">xml_parser</text></g></g><g><path fill="coral" stroke="black" paint-order="fill stroke markers" d=" M 89.84361815 104.05524502099999 L 106.17882144999999 104.05524502099999 L 106.17882144999999 149.793814261 L 89.84361815 149.793814261 L 89.84361815 104.05524502099999" stroke-miterlimit="10" stroke-width="1.3612669416666667" stroke-dasharray=""/><path fill="crimson" stroke="black" paint-order="fill stroke markers" d=" M 483.82667348528645 149.793814261 L 500.16187678528644 149.793814261 L 500.16187678528644 195.532383501 L 483.82667348528645 195.532383501 L 483.82667348528645 149.793814261" stroke-miterlimit="10" stroke-width="1.3612669416666667" stroke-dasharray=""/><path fill="coral" stroke="black" paint-order="fill stroke markers" d=" M 89.84361815 195.532383501 L 106.17882144999999 195.532383501 L 106.17882144999999 241.270952741 L 89.84361815 241.270952741 L 89.84361815 195.532383501" stroke-miterlimit="10" stroke-width="1.3612669416666667" stroke-dasharray=""/><path fill="crimson" stroke="black" paint-order="fill stroke markers" d=" M 483.82667348528645 241.270952741 L 500.16187678528644 241.270952741 L 500.16187678528644 287.009521981 L 483.82667348528645 287.009521981 L 483.82667348528645 241.270952741" stroke-miterlimit="10" stroke-width="1.3612669416666667" stroke-dasharray=""/><path fill="coral" stroke="black" paint-order="fill stroke markers" d=" M 89.84361815 287.009521981 L 106.17882144999999 287.009521981 L 106.17882144999999 376.853140131 L 89.84361815 376.853140131 L 89.84361815 287.009521981" stroke-miterlimit="10" stroke-width="1.3612669416666667" stroke-dasharray=""/><path fill="crimson" stroke="black" paint-order="fill stroke markers" d=" M 483.82667348528645 376.853140131 L 500.16187678528644 376.853140131 L 500.16187678528644 556.5403764309999 L 483.82667348528645 556.5403764309999 L 483.82667348528645 376.853140131" stroke-miterlimit="10" stroke-width="1.3612669416666667" stroke-dasharray=""/><path fill="coral" stroke="black" paint-order="fill stroke markers" d=" M 89.84361815 556.5403764309999 L 106.17882144999999 556.5403764309999 L 106.17882144999999 626.7817506209999 L 89.84361815 626.7817506209999 L 89.84361815 556.5403764309999" stroke-miterlimit="10" stroke-width="1.3612669416666667" stroke-dasharray=""/><path fill="crimson" stroke="black" paint-order="fill stroke markers" d=" M 483.82667348528645 626.7817506209999 L 500.16187678528644 626.7817506209999 L 500.16187678528644 672.5203198609998 L 483.82667348528645 672.5203198609998 L 483.82667348528645 626.7817506209999" stroke-miterlimit="10" stroke-width="1.3612669416666667" stroke-dasharray=""/><path fill="coral" stroke="black" paint-order="fill stroke markers" d=" M 89.84361815 672.5203198609998 L 106.17882144999999 672.5203198609998 L 106.17882144999999 762.3639380109997 L 89.84361815 762.3639380109997 L 89.84361815 672.5203198609998" stroke-miterlimit="10" stroke-width="1.3612669416666667" stroke-dasharray=""/><path fill="crimson" stroke="black" paint-order="fill stroke markers" d=" M 483.82667348528645 762.3639380109997 L 500.16187678528644 762.3639380109997 L 500.16187678528644 808.1025072509997 L 483.82667348528645 808.1025072509997 L 483.82667348528645 762.3639380109997" stroke-miterlimit="10" stroke-width="1.3612669416666667" stroke-dasharray=""/><path fill="coral" stroke="black" paint-order="fill stroke markers" d=" M 89.84361815 808.1025072509997 L 106.17882144999999 808.1025072509997 L 106.17882144999999 1157.6758578709998 L 89.84361815 1157.6758578709998 L 89.84361815 808.1025072509997" stroke-miterlimit="10" stroke-width="1.3612669416666667" stroke-dasharray=""/><path fill="coral" stroke="black" paint-order="fill stroke markers" d=" M 98.01121979999999 1005.7584671809998 L 114.34642309999998 1005.7584671809998 L 114.34642309999998 1079.2668820309998 L 98.01121979999999 1079.2668820309998 L 98.01121979999999 1005.7584671809998" stroke-miterlimit="10" stroke-width="1.3612669416666667" stroke-dasharray=""/><path fill="crimson" stroke="black" paint-order="fill stroke markers" d=" M 483.82667348528645 1157.6758578709998 L 500.16187678528644 1157.6758578709998 L 500.16187678528644 1203.414427111 L 483.82667348528645 1203.414427111 L 483.82667348528645 1157.6758578709998" stroke-miterlimit="10" stroke-width="1.3612669416666667" stroke-dasharray=""/><path fill="coral" stroke="black" paint-order="fill stroke markers" d=" M 89.84361815 1203.414427111 L 106.17882144999999 1203.414427111 L 106.17882144999999 1249.152996351 L 89.84361815 1249.152996351 L 89.84361815 1203.414427111" stroke-miterlimit="10" stroke-width="1.3612669416666667" stroke-dasharray=""/><path fill="crimson" stroke="black" paint-order="fill stroke markers" d=" M 483.82667348528645 1249.152996351 L 500.16187678528644 1249.152996351 L 500.16187678528644 1294.891565591 L 483.82667348528645 1294.891565591 L 483.82667348528645 1249.152996351" stroke-miterlimit="10" stroke-width="1.3612669416666667" stroke-dasharray=""/><path fill="coral" stroke="black" paint-order="fill stroke markers" d=" M 89.84361815 1294.891565591 L 106.17882144999999 1294.891565591 L 106.17882144999999 1340.630134831 L 89.84361815 1340.630134831 L 89.84361815 1294.891565591" stroke-miterlimit="10" stroke-width="1.3612669416666667" stroke-dasharray=""/><path fill="crimson" stroke="black" paint-order="fill stroke markers" d=" M 483.82667348528645 1340.630134831 L 500.16187678528644 1340.630134831 L 500.16187678528644 1386.3687040710001 L 483.82667348528645 1386.3687040710001 L 483.82667348528645 1340.630134831" stroke-miterlimit="10" stroke-width="1.3612669416666667" stroke-dasharray=""/><path fill="coral" stroke="black" paint-order="fill stroke markers" d=" M 89.84361815 1386.3687040710001 L 106.17882144999999 1386.3687040710001 L 106.17882144999999 1432.1072733110002 L 89.84361815 1432.1072733110002 L 89.84361815 1386.3687040710001" stroke-miterlimit="10" stroke-width="1.3612669416666667" stroke-dasharray=""/><path fill="crimson" stroke="black" paint-order="fill stroke markers" d=" M 483.82667348528645 1432.1072733110002 L 500.16187678528644 1432.1072733110002 L 500.16187678528644 1477.8458425510003 L 483.82667348528645 1477.8458425510003 L 483.82667348528645 1432.1072733110002" stroke-miterlimit="10" stroke-width="1.3612669416666667" stroke-dasharray=""/><path fill="coral" stroke="black" paint-order="fill stroke markers" d=" M 89.84361815 1477.8458425510003 L 106.17882144999999 1477.8458425510003 L 106.17882144999999 1592.1922656510003 L 89.84361815 1592.1922656510003 L 89.84361815 1477.8458425510003" stroke-miterlimit="10" stroke-width="1.3612669416666667" stroke-dasharray=""/><path fill="crimson" stroke="black" paint-order="fill stroke markers" d=" M 483.82667348528645 1592.1922656510003 L 500.16187678528644 1592.1922656510003 L 500.16187678528644 1637.9308348910004 L 483.82667348528645 1637.9308348910004 L 483.82667348528645 1592.1922656510003" stroke-miterlimit="10" stroke-width="1.3612669416666667" stroke-dasharray=""/><path fill="coral" stroke="black" paint-order="fill stroke markers" d=" M 89.84361815 1637.9308348910004 L 106.17882144999999 1637.9308348910004 L 106.17882144999999 1683.6694041310004 L 89.84361815 1683.6694041310004 L 89.84361815 1637.9308348910004" stroke-miterlimit="10" stroke-width="1.3612669416666667" stroke-dasharray=""/><path fill="crimson" stroke="black" paint-order="fill stroke markers" d=" M 483.82667348528645 1683.6694041310004 L 500.16187678528644 1683.6694041310004 L 500.16187678528644 1729.4079733710005 L 483.82667348528645 1729.4079733710005 L 483.82667348528645 1683.6694041310004" stroke-miterlimit="10" stroke-width="1.3612669416666667" stroke-dasharray=""/><path fill="coral" stroke="black" paint-order="fill stroke markers" d=" M 89.84361815 1729.4079733710005 L 106.17882144999999 1729.4079733710005 L 106.17882144999999 1843.7543964710005 L 89.84361815 1843.7543964710005 L 89.84361815 1729.4079733710005" stroke-miterlimit="10" stroke-width="1.3612669416666667" stroke-dasharray=""/><path fill="crimson" stroke="black" paint-order="fill stroke markers" d=" M 483.82667348528645 1843.7543964710005 L 500.16187678528644 1843.7543964710005 L 500.16187678528644 1889.4929657110006 L 483.82667348528645 1889.4929657110006 L 483.82667348528645 1843.7543964710005" stroke-miterlimit="10" stroke-width="1.3612669416666667" stroke-dasharray=""/><path fill="coral" stroke="black" paint-order="fill stroke markers" d=" M 89.84361815 1889.4929657110006 L 106.17882144999999 1889.4929657110006 L 106.17882144999999 1935.2315349510006 L 89.84361815 1935.2315349510006 L 89.84361815 1889.4929657110006" stroke-miterlimit="10" stroke-width="1.3612669416666667" stroke-dasharray=""/><path fill="crimson" stroke="black" paint-order="fill stroke markers" d=" M 483.82667348528645 1935.2315349510006 L 500.16187678528644 1935.2315349510006 L 500.16187678528644 1980.9701041910007 L 483.82667348528645 1980.9701041910007 L 483.82667348528645 1935.2315349510006" stroke-miterlimit="10" stroke-width="1.3612669416666667" stroke-dasharray=""/><path fill="coral" stroke="black" paint-order="fill stroke markers" d=" M 89.84361815 1980.9701041910007 L 106.17882144999999 1980.9701041910007 L 106.17882144999999 2095.3165272910005 L 89.84361815 2095.3165272910005 L 89.84361815 1980.9701041910007" stroke-miterlimit="10" stroke-width="1.3612669416666667" stroke-dasharray=""/><path fill="crimson" stroke="black" paint-order="fill stroke markers" d=" M 483.82667348528645 2095.3165272910005 L 500.16187678528644 2095.3165272910005 L 500.16187678528644 2141.0550965310003 L 483.82667348528645 2141.0550965310003 L 483.82667348528645 2095.3165272910005" stroke-miterlimit="10" stroke-width="1.3612669416666667" stroke-dasharray=""/><path fill="coral" stroke="black" paint-order="fill stroke markers" d=" M 89.84361815 2141.0550965310003 L 106.17882144999999 2141.0550965310003 L 106.17882144999999 2186.793665771 L 89.84361815 2186.793665771 L 89.84361815 2141.0550965310003" stroke-miterlimit="10" stroke-width="1.3612669416666667" stroke-dasharray=""/><path fill="crimson" stroke="black" paint-order="fill stroke markers" d=" M 483.82667348528645 2186.793665771 L 500.16187678528644 2186.793665771 L 500.16187678528644 2232.532235011 L 483.82667348528645 2232.532235011 L 483.82667348528645 2186.793665771" stroke-miterlimit="10" stroke-width="1.3612669416666667" stroke-dasharray=""/><path fill="coral" stroke="black" paint-order="fill stroke markers" d=" M 89.84361815 2232.532235011 L 106.17882144999999 2232.532235011 L 106.17882144999999 2346.878658111 L 89.84361815 2346.878658111 L 89.84361815 2232.532235011" stroke-miterlimit="10" stroke-width="1.3612669416666667" stroke-dasharray=""/><path fill="crimson" stroke="black" paint-order="fill stroke markers" d=" M 483.82667348528645 2346.878658111 L 500.16187678528644 2346.878658111 L 500.16187678528644 2392.6172273509997 L 483.82667348528645 2392.6172273509997 L 483.82667348528645 2346.878658111" stroke-miterlimit="10" stroke-width="1.3612669416666667" stroke-dasharray=""/><path fill="coral" stroke="black" paint-order="fill stroke markers" d=" M 89.84361815 2392.6172273509997 L 106.17882144999999 2392.6172273509997 L 106.17882144999999 2438.3557965909995 L 89.84361815 2438.3557965909995 L 89.84361815 2392.6172273509997" stroke-miterlimit="10" stroke-width="1.3612669416666667" stroke-dasharray=""/><path fill="crimson" stroke="black" paint-order="fill stroke markers" d=" M 483.82667348528645 2438.3557965909995 L 500.16187678528644 2438.3557965909995 L 500.16187678528644 2484.0943658309993 L 483.82667348528645 2484.0943658309993 L 483.82667348528645 2438.3557965909995" stroke-miterlimit="10" stroke-width="1.3612669416666667" stroke-dasharray=""/><path fill="coral" stroke="black" paint-order="fill stroke markers" d=" M 89.84361815 2484.0943658309993 L 106.17882144999999 2484.0943658309993 L 106.17882144999999 2598.440788930999 L 89.84361815 2598.440788930999 L 89.84361815 2484.0943658309993" stroke-miterlimit="10" stroke-width="1.3612669416666667" stroke-dasharray=""/><path fill="crimson" stroke="black" paint-order="fill stroke markers" d=" M 483.82667348528645 2598.440788930999 L 500.16187678528644 2598.440788930999 L 500.16187678528644 2644.179358170999 L 483.82667348528645 2644.179358170999 L 483.82667348528645 2598.440788930999" stroke-miterlimit="10" stroke-width="1.3612669416666667" stroke-dasharray=""/><path fill="coral" stroke="black" paint-order="fill stroke markers" d=" M 89.84361815 2644.179358170999 L 106.17882144999999 2644.179358170999 L 106.17882144999999 2689.917927410999 L 89.84361815 2689.917927410999 L 89.84361815 2644.179358170999" stroke-miterlimit="10" stroke-width="1.3612669416666667" stroke-dasharray=""/><path fill="crimson" stroke="black" paint-order="fill stroke markers" d=" M 483.82667348528645 2689.917927410999 L 500.16187678528644 2689.917927410999 L 500.16187678528644 2735.6564966509986 L 483.82667348528645 2735.6564966509986 L 483.82667348528645 2689.917927410999" stroke-miterlimit="10" stroke-width="1.3612669416666667" stroke-dasharray=""/><path fill="coral" stroke="black" paint-order="fill stroke markers" d=" M 89.84361815 2735.6564966509986 L 106.17882144999999 2735.6564966509986 L 106.17882144999999 2983.9515868109984 L 89.84361815 2983.9515868109984 L 89.84361815 2735.6564966509986" stroke-miterlimit="10" stroke-width="1.3612669416666667" stroke-dasharray=""/><path fill="blue" stroke="black" paint-order="fill stroke markers" d=" M 98.01121979999999 2802.6308301809986 L 114.34642309999998 2802.6308301809986 L 114.34642309999998 2814.0654724909987 L 98.01121979999999 2814.0654724909987 L 98.01121979999999 2802.6308301809986" stroke-miterlimit="10" stroke-width="1.3612669416666667" stroke-dasharray=""/><path fill="coral" stroke="black" paint-order="fill stroke markers" d=" M 98.01121979999999 2869.6051637109986 L 114.34642309999998 2869.6051637109986 L 114.34642309999998 2881.0398060209986 L 98.01121979999999 2881.0398060209986 L 98.01121979999999 2869.6051637109986" stroke-miterlimit="10" stroke-width="1.3612669416666667" stroke-dasharray=""/><path fill="crimson" stroke="black" paint-order="fill stroke markers" d=" M 483.82667348528645 2983.9515868109984 L 500.16187678528644 2983.9515868109984 L 500.16187678528644 3029.690156050998 L 483.82667348528645 3029.690156050998 L 483.82667348528645 2983.9515868109984" stroke-miterlimit="10" stroke-width="1.3612669416666667" stroke-dasharray=""/><path fill="coral" stroke="black" paint-order="fill stroke markers" d=" M 89.84361815 3029.690156050998 L 106.17882144999999 3029.690156050998 L 106.17882144999999 3162.005302780998 L 89.84361815 3162.005302780998 L 89.84361815 3029.690156050998" stroke-miterlimit="10" stroke-width="1.3612669416666667" stroke-dasharray=""/><path fill="crimson" stroke="black" paint-order="fill stroke markers" d=" M 483.82667348528645 3162.005302780998 L 500.16187678528644 3162.005302780998 L 500.16187678528644 3207.743872020998 L 483.82667348528645 3207.743872020998 L 483.82667348528645 3162.005302780998" stroke-miterlimit="10" stroke-width="1.3612669416666667" stroke-dasharray=""/><path fill="coral" stroke="black" paint-order="fill stroke markers" d=" M 89.84361815 3207.743872020998 L 106.17882144999999 3207.743872020998 L 106.17882144999999 3253.482441260998 L 89.84361815 3253.482441260998 L 89.84361815 3207.743872020998" stroke-miterlimit="10" stroke-width="1.3612669416666667" stroke-dasharray=""/><path fill="crimson" stroke="black" paint-order="fill stroke markers" d=" M 483.82667348528645 3253.482441260998 L 500.16187678528644 3253.482441260998 L 500.16187678528644 3299.2210105009976 L 483.82667348528645 3299.2210105009976 L 483.82667348528645 3253.482441260998" stroke-miterlimit="10" stroke-width="1.3612669416666667" stroke-dasharray=""/><path fill="coral" stroke="black" paint-order="fill stroke markers" d=" M 89.84361815 3299.2210105009976 L 106.17882144999999 3299.2210105009976 L 106.17882144999999 3344.9595797409975 L 89.84361815 3344.9595797409975 L 89.84361815 3299.2210105009976" stroke-miterlimit="10" stroke-width="1.3612669416666667" stroke-dasharray=""/><path fill="crimson" stroke="black" paint-order="fill stroke markers" d=" M 483.82667348528645 3344.9595797409975 L 500.16187678528644 3344.9595797409975 L 500.16187678528644 3390.6981489809973 L 483.82667348528645 3390.6981489809973 L 483.82667348528645 3344.9595797409975" stroke-miterlimit="10" stroke-width="1.3612669416666667" stroke-dasharray=""/><path fill="coral" stroke="black" paint-order="fill stroke markers" d=" M 89.84361815 3390.6981489809973 L 106.17882144999999 3390.6981489809973 L 106.17882144999999 3456.0389621809973 L 89.84361815 3456.0389621809973 L 89.84361815 3390.6981489809973" stroke-miterlimit="10" stroke-width="1.3612669416666667" stroke-dasharray=""/><g><g><rect fill="white" stroke="none" x="250.58756981688148" y="128.558049971" width="88.83035530152344" height="21.23576429"/></g><text fill="black" stroke="none" font-family="sans-serif" font-size="11pt" font-style="normal" font-weight="normal" text-decoration="normal" x="253.03785031188147" y="143.259732941" text-anchor="start" dominant-baseline="alphabetic" xml:space="preserve">parseBegin()</text></g><g><path fill="none" stroke="black" paint-order="fill stroke markers" d=" M 106.17882144999999 149.793814261 L 470.3773561016198 149.793814261" stroke-miterlimit="10" stroke-width="1.3612669416666667" stroke-dasharray=""/><g transform="translate(483.82667348528645,149.793814261) translate(-483.82667348528645,-149.793814261)"><path fill="black" stroke="none" paint-order="stroke fill markers" d=" M 470.2140040686198 142.98747955266666 L 483.82667348528645 149.793814261 L 470.2140040686198 156.60014896933333 Z"/></g></g><g><g><rect fill="white" stroke="none" x="257.5095287402213" y="174.296619211" width="74.98643745484375" height="21.23576429"/></g><text fill="black" stroke="none" font-family="sans-serif" font-size="11pt" font-style="normal" font-weight="normal" text-decoration="normal" x="259.9598092352213" y="188.99830218099999" text-anchor="start" dominant-baseline="alphabetic" xml:space="preserve">bytesRead</text></g><g><path fill="none" stroke="black" paint-order="fill stroke markers" d=" M 483.82667348528645 195.532383501 L 119.62813883366665 195.532383501" stroke-miterlimit="10" stroke-width="1.3612669416666667" stroke-dasharray="6.53408132"/><g transform="translate(106.17882144999999,195.532383501) translate(-106.17882144999999,-195.532383501)"><path fill="black" stroke="none" paint-order="stroke fill markers" d=" M 119.79149086666665 188.72604879266666 L 106.17882144999999 195.532383501 L 119.79149086666665 202.33871820933334 Z"/></g></g><g><g><rect fill="white" stroke="none" x="231.03853569822914" y="220.035188451" width="127.92842353882813" height="21.23576429"/></g><text fill="black" stroke="none" font-family="sans-serif" font-size="11pt" font-style="normal" font-weight="normal" text-decoration="normal" x="233.48881619322913" y="234.736871421" text-anchor="start" dominant-baseline="alphabetic" xml:space="preserve">is XML Declaration</text></g><g><path fill="none" stroke="black" paint-order="fill stroke markers" d=" M 106.17882144999999 241.270952741 L 470.3773561016198 241.270952741" stroke-miterlimit="10" stroke-width="1.3612669416666667" stroke-dasharray=""/><g transform="translate(483.82667348528645,241.270952741) translate(-483.82667348528645,-241.270952741)"><path fill="black" stroke="none" paint-order="stroke fill markers" d=" M 470.2140040686198 234.46461803266666 L 483.82667348528645 241.270952741 L 470.2140040686198 248.07728744933334 Z"/></g></g><g><g><rect fill="white" stroke="none" x="279.9218364794791" y="265.77375769099996" width="30.161821976328124" height="21.23576429"/></g><text fill="black" stroke="none" font-family="sans-serif" font-size="11pt" font-style="normal" font-weight="normal" text-decoration="normal" x="282.3721169744791" y="280.47544066099994" text-anchor="start" dominant-baseline="alphabetic" xml:space="preserve">true</text></g><g><path fill="none" stroke="black" paint-order="fill stroke markers" d=" M 483.82667348528645 287.009521981 L 119.62813883366665 287.009521981" stroke-miterlimit="10" stroke-width="1.3612669416666667" stroke-dasharray="6.53408132"/><g transform="translate(106.17882144999999,287.009521981) translate(-106.17882144999999,-287.009521981)"><path fill="black" stroke="none" paint-order="stroke fill markers" d=" M 119.79149086666665 280.20318727266664 L 106.17882144999999 287.009521981 L 119.79149086666665 293.8158566893333 Z"/></g></g><g><g><rect fill="white" stroke="none" x="193.1430660327018" y="355.61737584099996" width="203.71936286988281" height="21.23576429"/></g><text fill="black" stroke="none" font-family="sans-serif" font-size="11pt" font-style="normal" font-weight="normal" text-decoration="normal" x="195.59334652770178" y="370.31905881099993" text-anchor="start" dominant-baseline="alphabetic" xml:space="preserve">parseXMLDeclaration(content)</text></g><g><path fill="none" stroke="black" paint-order="fill stroke markers" d=" M 106.17882144999999 376.853140131 L 470.3773561016198 376.853140131" stroke-miterlimit="10" stroke-width="1.3612669416666667" stroke-dasharray=""/><g transform="translate(483.82667348528645,376.853140131) translate(-483.82667348528645,-376.853140131)"><path fill="black" stroke="none" paint-order="stroke fill markers" d=" M 470.2140040686198 370.04680542266664 L 483.82667348528645 376.853140131 L 470.2140040686198 383.6594748393333 Z"/></g></g><g><g><rect fill="white" stroke="none" x="519.4918673569531" y="401.355945081" width="148.32208503785156" height="21.23576429"/></g><text fill="black" stroke="none" font-family="sans-serif" font-size="11pt" font-style="normal" font-weight="normal" text-decoration="normal" x="521.9421478519531" y="416.057628051" text-anchor="start" dominant-baseline="alphabetic" xml:space="preserve">parseVersion(content)</text></g><g><path fill="none" stroke="black" paint-order="fill stroke markers" d=" M 500.16187678528644 422.591709371 L 565.5026899852865 422.591709371 L 565.5026899852865 443.827473661 L 513.6111941689531 443.827473661" stroke-miterlimit="10" stroke-width="1.3612669416666667" stroke-dasharray=""/><g transform="translate(500.16187678528644,443.827473661) translate(-500.16187678528644,-443.827473661)"><path fill="black" stroke="none" paint-order="stroke fill markers" d=" M 513.7745462019531 437.02113895266666 L 500.16187678528644 443.827473661 L 513.7745462019531 450.63380836933334 Z"/></g></g><g><g><rect fill="white" stroke="none" x="519.4918673569531" y="468.330278611" width="260.8202692419531" height="21.23576429"/></g><text fill="black" stroke="none" font-family="sans-serif" font-size="11pt" font-style="normal" font-weight="normal" text-decoration="normal" x="521.9421478519531" y="483.03196158099996" text-anchor="start" dominant-baseline="alphabetic" xml:space="preserve">parseEncodingAndStandalone(content)</text></g><g><path fill="none" stroke="black" paint-order="fill stroke markers" d=" M 500.16187678528644 489.56604290099995 L 565.5026899852865 489.56604290099995 L 565.5026899852865 510.80180719099997 L 513.6111941689531 510.80180719099997" stroke-miterlimit="10" stroke-width="1.3612669416666667" stroke-dasharray=""/><g transform="translate(500.16187678528644,510.80180719099997) translate(-500.16187678528644,-510.80180719099997)"><path fill="black" stroke="none" paint-order="stroke fill markers" d=" M 513.7745462019531 503.9954724826666 L 500.16187678528644 510.80180719099997 L 513.7745462019531 517.6081418993333 Z"/></g></g><g><g><rect fill="white" stroke="none" x="292.5524669726432" y="535.3046121409999" width="4.90056099" height="21.23576429"/></g><text fill="black" stroke="none" font-family="sans-serif" font-size="11pt" font-style="normal" font-weight="normal" text-decoration="normal" x="295.0027474676432" y="550.0062951109999" text-anchor="start" dominant-baseline="alphabetic" xml:space="preserve"></text></g><g><path fill="none" stroke="black" paint-order="fill stroke markers" d=" M 483.82667348528645 556.5403764309999 L 119.62813883366665 556.5403764309999" stroke-miterlimit="10" stroke-width="1.3612669416666667" stroke-dasharray=""/><g transform="translate(106.17882144999999,556.5403764309999) translate(-106.17882144999999,-556.5403764309999)"><path fill="black" stroke="none" paint-order="stroke fill markers" d=" M 119.79149086666665 549.7340417226666 L 106.17882144999999 556.5403764309999 L 119.79149086666665 563.3467111393333 Z"/></g></g><g><g><rect fill="white" stroke="none" x="249.7894054492057" y="605.5459863309999" width="90.426684036875" height="21.23576429"/></g><text fill="black" stroke="none" font-family="sans-serif" font-size="11pt" font-style="normal" font-weight="normal" text-decoration="normal" x="252.2396859442057" y="620.2476693009999" text-anchor="start" dominant-baseline="alphabetic" xml:space="preserve">is DOCTYPE</text></g><g><path fill="none" stroke="black" paint-order="fill stroke markers" d=" M 106.17882144999999 626.7817506209999 L 470.3773561016198 626.7817506209999" stroke-miterlimit="10" stroke-width="1.3612669416666667" stroke-dasharray=""/><g transform="translate(483.82667348528645,626.7817506209999) translate(-483.82667348528645,-626.7817506209999)"><path fill="black" stroke="none" paint-order="stroke fill markers" d=" M 470.2140040686198 619.9754159126666 L 483.82667348528645 626.7817506209999 L 470.2140040686198 633.5880853293332 Z"/></g></g><g><g><rect fill="white" stroke="none" x="277.8853298266471" y="651.2845555709998" width="34.23483528199219" height="21.23576429"/></g><text fill="black" stroke="none" font-family="sans-serif" font-size="11pt" font-style="normal" font-weight="normal" text-decoration="normal" x="280.3356103216471" y="665.9862385409998" text-anchor="start" dominant-baseline="alphabetic" xml:space="preserve">true </text></g><g><path fill="none" stroke="black" paint-order="fill stroke markers" d=" M 483.82667348528645 672.5203198609998 L 119.62813883366665 672.5203198609998" stroke-miterlimit="10" stroke-width="1.3612669416666667" stroke-dasharray="6.53408132"/><g transform="translate(106.17882144999999,672.5203198609998) translate(-106.17882144999999,-672.5203198609998)"><path fill="black" stroke="none" paint-order="stroke fill markers" d=" M 119.79149086666665 665.7139851526665 L 106.17882144999999 672.5203198609998 L 119.79149086666665 679.3266545693332 Z"/></g></g><g><g><rect fill="white" stroke="none" x="209.85742913084633" y="741.1281737209997" width="170.29063667359375" height="21.23576429"/></g><text fill="black" stroke="none" font-family="sans-serif" font-size="11pt" font-style="normal" font-weight="normal" text-decoration="normal" x="212.30770962584631" y="755.8298566909997" text-anchor="start" dominant-baseline="alphabetic" xml:space="preserve">parseDOCTYPE(content)</text></g><g><path fill="none" stroke="black" paint-order="fill stroke markers" d=" M 106.17882144999999 762.3639380109997 L 470.3773561016198 762.3639380109997" stroke-miterlimit="10" stroke-width="1.3612669416666667" stroke-dasharray=""/><g transform="translate(483.82667348528645,762.3639380109997) translate(-483.82667348528645,-762.3639380109997)"><path fill="black" stroke="none" paint-order="stroke fill markers" d=" M 470.2140040686198 755.5576033026664 L 483.82667348528645 762.3639380109997 L 470.2140040686198 769.1702727193331 Z"/></g></g><g><g><rect fill="white" stroke="none" x="292.5524669726432" y="786.8667429609997" width="4.90056099" height="21.23576429"/></g><text fill="black" stroke="none" font-family="sans-serif" font-size="11pt" font-style="normal" font-weight="normal" text-decoration="normal" x="295.0027474676432" y="801.5684259309996" text-anchor="start" dominant-baseline="alphabetic" xml:space="preserve"></text></g><g><path fill="none" stroke="black" paint-order="fill stroke markers" d=" M 483.82667348528645 808.1025072509997 L 119.62813883366665 808.1025072509997" stroke-miterlimit="10" stroke-width="1.3612669416666667" stroke-dasharray=""/><g transform="translate(106.17882144999999,808.1025072509997) translate(-106.17882144999999,-808.1025072509997)"><path fill="black" stroke="none" paint-order="stroke fill markers" d=" M 119.79149086666665 801.2961725426663 L 106.17882144999999 808.1025072509997 L 119.79149086666665 814.908841959333 Z"/></g></g><path fill="white" stroke="black" paint-order="fill stroke markers" d=" M 106.17882144999999 875.8936009459998 L 114.34642309999998 875.8936009459998 M 114.34642309999998 857.1081171509998 L 252.14775944324217 857.1081171509998 L 266.8494424132422 871.8098001209997 L 266.8494424132422 894.6790847409998 L 114.34642309999998 894.6790847409998 L 114.34642309999998 857.1081171509998 M 252.14775944324217 857.1081171509998 L 252.14775944324217 871.8098001209997 L 266.8494424132422 871.8098001209997" stroke-miterlimit="10" stroke-width="1.3612669416666667" stroke-dasharray=""/><g><text fill="black" stroke="none" font-family="sans-serif" font-size="11pt" font-style="normal" font-weight="normal" text-decoration="normal" x="137.21570771999998" y="879.9774017709998" text-anchor="start" dominant-baseline="alphabetic" xml:space="preserve">Begin while loop</text></g><g><g><rect fill="white" stroke="none" x="133.67641367166667" y="963.2869386009997" width="140.97780098023438" height="21.23576429"/></g><text fill="black" stroke="none" font-family="sans-serif" font-size="11pt" font-style="normal" font-weight="normal" text-decoration="normal" x="136.12669416666665" y="977.9886215709997" text-anchor="start" dominant-baseline="alphabetic" xml:space="preserve">refillContent(content)</text></g><g><path fill="none" stroke="black" paint-order="fill stroke markers" d=" M 106.17882144999999 984.5227028909998 L 179.6872363 984.5227028909998 L 179.6872363 1005.7584671809998 L 127.79574048366666 1005.7584671809998" stroke-miterlimit="10" stroke-width="1.3612669416666667" stroke-dasharray=""/><g transform="translate(114.3464231,1005.7584671809998) translate(-114.3464231,-1005.7584671809998)"><path fill="black" stroke="none" paint-order="stroke fill markers" d=" M 127.95909251666666 998.9521324726664 L 114.3464231 1005.7584671809998 L 127.95909251666666 1012.5648018893331 Z"/></g></g><path fill="white" stroke="black" paint-order="fill stroke markers" d=" M 114.3464231 1049.0467559259998 L 122.51402474999999 1049.0467559259998 M 122.51402474999999 1030.2612721309997 L 381.71828467722656 1030.2612721309997 L 396.41996764722654 1044.9629551009998 L 396.41996764722654 1067.8322397209997 L 122.51402474999999 1067.8322397209997 L 122.51402474999999 1030.2612721309997 M 381.71828467722656 1030.2612721309997 L 381.71828467722656 1044.9629551009998 L 396.41996764722654 1044.9629551009998" stroke-miterlimit="10" stroke-width="1.3612669416666667" stroke-dasharray=""/><g><text fill="black" stroke="none" font-family="sans-serif" font-size="11pt" font-style="normal" font-weight="normal" text-decoration="normal" x="145.38330937" y="1053.1305567509999" text-anchor="start" dominant-baseline="alphabetic" xml:space="preserve">refill content preserve unprocessed</text></g><g><g><rect fill="white" stroke="none" x="277.53459130125646" y="1136.440093581" width="34.93631233277344" height="21.23576429"/></g><text fill="black" stroke="none" font-family="sans-serif" font-size="11pt" font-style="normal" font-weight="normal" text-decoration="normal" x="279.98487179625647" y="1151.141776551" text-anchor="start" dominant-baseline="alphabetic" xml:space="preserve">is '&amp;'</text></g><g><path fill="none" stroke="black" paint-order="fill stroke markers" d=" M 106.17882144999999 1157.6758578709998 L 470.3773561016198 1157.6758578709998" stroke-miterlimit="10" stroke-width="1.3612669416666667" stroke-dasharray=""/><g transform="translate(483.82667348528645,1157.6758578709998) translate(-483.82667348528645,-1157.6758578709998)"><path fill="black" stroke="none" paint-order="stroke fill markers" d=" M 470.2140040686198 1150.8695231626666 L 483.82667348528645 1157.6758578709998 L 470.2140040686198 1164.482192579333 Z"/></g></g><g><g><rect fill="white" stroke="none" x="279.9218364794791" y="1182.178662821" width="30.161821976328124" height="21.23576429"/></g><text fill="black" stroke="none" font-family="sans-serif" font-size="11pt" font-style="normal" font-weight="normal" text-decoration="normal" x="282.3721169744791" y="1196.880345791" text-anchor="start" dominant-baseline="alphabetic" xml:space="preserve">true</text></g><g><path fill="none" stroke="black" paint-order="fill stroke markers" d=" M 483.82667348528645 1203.414427111 L 119.62813883366665 1203.414427111" stroke-miterlimit="10" stroke-width="1.3612669416666667" stroke-dasharray="6.53408132"/><g transform="translate(106.17882144999999,1203.414427111) translate(-106.17882144999999,-1203.414427111)"><path fill="black" stroke="none" paint-order="stroke fill markers" d=" M 119.79149086666665 1196.6080924026667 L 106.17882144999999 1203.414427111 L 119.79149086666665 1210.2207618193331 Z"/></g></g><g><g><rect fill="white" stroke="none" x="160.95624504881508" y="1227.917232061" width="268.0930048376562" height="21.23576429"/></g><text fill="black" stroke="none" font-family="sans-serif" font-size="11pt" font-style="normal" font-weight="normal" text-decoration="normal" x="163.40652554381506" y="1242.6189150310001" text-anchor="start" dominant-baseline="alphabetic" xml:space="preserve">parseCharacterEntityReference(content)</text></g><g><path fill="none" stroke="black" paint-order="fill stroke markers" d=" M 106.17882144999999 1249.152996351 L 470.3773561016198 1249.152996351" stroke-miterlimit="10" stroke-width="1.3612669416666667" stroke-dasharray=""/><g transform="translate(483.82667348528645,1249.152996351) translate(-483.82667348528645,-1249.152996351)"><path fill="black" stroke="none" paint-order="stroke fill markers" d=" M 470.2140040686198 1242.3466616426667 L 483.82667348528645 1249.152996351 L 470.2140040686198 1255.9593310593332 Z"/></g></g><g><g><rect fill="white" stroke="none" x="292.5524669726432" y="1273.655801301" width="4.90056099" height="21.23576429"/></g><text fill="black" stroke="none" font-family="sans-serif" font-size="11pt" font-style="normal" font-weight="normal" text-decoration="normal" x="295.0027474676432" y="1288.3574842710002" text-anchor="start" dominant-baseline="alphabetic" xml:space="preserve"></text></g><g><path fill="none" stroke="black" paint-order="fill stroke markers" d=" M 483.82667348528645 1294.891565591 L 119.62813883366665 1294.891565591" stroke-miterlimit="10" stroke-width="1.3612669416666667" stroke-dasharray=""/><g transform="translate(106.17882144999999,1294.891565591) translate(-106.17882144999999,-1294.891565591)"><path fill="black" stroke="none" paint-order="stroke fill markers" d=" M 119.79149086666665 1288.0852308826668 L 106.17882144999999 1294.891565591 L 119.79149086666665 1301.6979002993332 Z"/></g></g><g><g><rect fill="white" stroke="none" x="276.1065288622916" y="1319.3943705410002" width="37.79243721070313" height="21.23576429"/></g><text fill="black" stroke="none" font-family="sans-serif" font-size="11pt" font-style="normal" font-weight="normal" text-decoration="normal" x="278.5568093572916" y="1334.0960535110003" text-anchor="start" dominant-baseline="alphabetic" xml:space="preserve"> is '&lt;'</text></g><g><path fill="none" stroke="black" paint-order="fill stroke markers" d=" M 106.17882144999999 1340.630134831 L 470.3773561016198 1340.630134831" stroke-miterlimit="10" stroke-width="1.3612669416666667" stroke-dasharray=""/><g transform="translate(483.82667348528645,1340.630134831) translate(-483.82667348528645,-1340.630134831)"><path fill="black" stroke="none" paint-order="stroke fill markers" d=" M 470.2140040686198 1333.8238001226669 L 483.82667348528645 1340.630134831 L 470.2140040686198 1347.4364695393333 Z"/></g></g><g><g><rect fill="white" stroke="none" x="277.8853298266471" y="1365.1329397810002" width="34.23483528199219" height="21.23576429"/></g><text fill="black" stroke="none" font-family="sans-serif" font-size="11pt" font-style="normal" font-weight="normal" text-decoration="normal" x="280.3356103216471" y="1379.8346227510003" text-anchor="start" dominant-baseline="alphabetic" xml:space="preserve">true </text></g><g><path fill="none" stroke="black" paint-order="fill stroke markers" d=" M 483.82667348528645 1386.3687040710001 L 119.62813883366665 1386.3687040710001" stroke-miterlimit="10" stroke-width="1.3612669416666667" stroke-dasharray="6.53408132"/><g transform="translate(106.17882144999999,1386.3687040710001) translate(-106.17882144999999,-1386.3687040710001)"><path fill="black" stroke="none" paint-order="stroke fill markers" d=" M 119.79149086666665 1379.562369362667 L 106.17882144999999 1386.3687040710001 L 119.79149086666665 1393.1750387793334 Z"/></g></g><g><g><rect fill="white" stroke="none" x="149.5496593554557" y="1410.8715090210003" width="290.906176224375" height="21.23576429"/></g><text fill="black" stroke="none" font-family="sans-serif" font-size="11pt" font-style="normal" font-weight="normal" text-decoration="normal" x="151.9999398504557" y="1425.5731919910004" text-anchor="start" dominant-baseline="alphabetic" xml:space="preserve">parseCharacterNotEntityReference(content)</text></g><g><path fill="none" stroke="black" paint-order="fill stroke markers" d=" M 106.17882144999999 1432.1072733110002 L 470.3773561016198 1432.1072733110002" stroke-miterlimit="10" stroke-width="1.3612669416666667" stroke-dasharray=""/><g transform="translate(483.82667348528645,1432.1072733110002) translate(-483.82667348528645,-1432.1072733110002)"><path fill="black" stroke="none" paint-order="stroke fill markers" d=" M 470.2140040686198 1425.300938602667 L 483.82667348528645 1432.1072733110002 L 470.2140040686198 1438.9136080193334 Z"/></g></g><g><g><rect fill="white" stroke="none" x="258.33273278074864" y="1456.6100782610004" width="73.34002937378906" height="21.23576429"/></g><text fill="black" stroke="none" font-family="sans-serif" font-size="11pt" font-style="normal" font-weight="normal" text-decoration="normal" x="260.78301327574866" y="1471.3117612310004" text-anchor="start" dominant-baseline="alphabetic" xml:space="preserve">characters</text></g><g><path fill="none" stroke="black" paint-order="fill stroke markers" d=" M 483.82667348528645 1477.8458425510003 L 119.62813883366665 1477.8458425510003" stroke-miterlimit="10" stroke-width="1.3612669416666667" stroke-dasharray="6.53408132"/><g transform="translate(106.17882144999999,1477.8458425510003) translate(-106.17882144999999,-1477.8458425510003)"><path fill="black" stroke="none" paint-order="stroke fill markers" d=" M 119.79149086666665 1471.039507842667 L 106.17882144999999 1477.8458425510003 L 119.79149086666665 1484.6521772593335 Z"/></g></g><g><g><rect fill="white" stroke="none" x="236.34274254637367" y="1570.9565013610004" width="117.32000984253906" height="21.23576429"/></g><text fill="black" stroke="none" font-family="sans-serif" font-size="11pt" font-style="normal" font-weight="normal" text-decoration="normal" x="238.79302304137366" y="1585.6581843310005" text-anchor="start" dominant-baseline="alphabetic" xml:space="preserve">is XML Comment</text></g><g><path fill="none" stroke="black" paint-order="fill stroke markers" d=" M 106.17882144999999 1592.1922656510003 L 470.3773561016198 1592.1922656510003" stroke-miterlimit="10" stroke-width="1.3612669416666667" stroke-dasharray=""/><g transform="translate(483.82667348528645,1592.1922656510003) translate(-483.82667348528645,-1592.1922656510003)"><path fill="black" stroke="none" paint-order="stroke fill markers" d=" M 470.2140040686198 1585.385930942667 L 483.82667348528645 1592.1922656510003 L 470.2140040686198 1598.9986003593335 Z"/></g></g><g><g><rect fill="white" stroke="none" x="279.9218364794791" y="1616.6950706010005" width="30.161821976328124" height="21.23576429"/></g><text fill="black" stroke="none" font-family="sans-serif" font-size="11pt" font-style="normal" font-weight="normal" text-decoration="normal" x="282.3721169744791" y="1631.3967535710005" text-anchor="start" dominant-baseline="alphabetic" xml:space="preserve">true</text></g><g><path fill="none" stroke="black" paint-order="fill stroke markers" d=" M 483.82667348528645 1637.9308348910004 L 119.62813883366665 1637.9308348910004" stroke-miterlimit="10" stroke-width="1.3612669416666667" stroke-dasharray="6.53408132"/><g transform="translate(106.17882144999999,1637.9308348910004) translate(-106.17882144999999,-1637.9308348910004)"><path fill="black" stroke="none" paint-order="stroke fill markers" d=" M 119.79149086666665 1631.1245001826671 L 106.17882144999999 1637.9308348910004 L 119.79149086666665 1644.7371695993336 Z"/></g></g><g><g><rect fill="white" stroke="none" x="165.83454094725258" y="1662.4336398410005" width="258.3364130407812" height="21.23576429"/></g><text fill="black" stroke="none" font-family="sans-serif" font-size="11pt" font-style="normal" font-weight="normal" text-decoration="normal" x="168.28482144225256" y="1677.1353228110006" text-anchor="start" dominant-baseline="alphabetic" xml:space="preserve">parseComment(content, doneReading)</text></g><g><path fill="none" stroke="black" paint-order="fill stroke markers" d=" M 106.17882144999999 1683.6694041310004 L 470.3773561016198 1683.6694041310004" stroke-miterlimit="10" stroke-width="1.3612669416666667" stroke-dasharray=""/><g transform="translate(483.82667348528645,1683.6694041310004) translate(-483.82667348528645,-1683.6694041310004)"><path fill="black" stroke="none" paint-order="stroke fill markers" d=" M 470.2140040686198 1676.8630694226672 L 483.82667348528645 1683.6694041310004 L 470.2140040686198 1690.4757388393336 Z"/></g></g><g><g><rect fill="white" stroke="none" x="207.78871117430336" y="1708.1722090810006" width="174.4280725866797" height="21.23576429"/></g><text fill="black" stroke="none" font-family="sans-serif" font-size="11pt" font-style="normal" font-weight="normal" text-decoration="normal" x="210.23899166930335" y="1722.8738920510007" text-anchor="start" dominant-baseline="alphabetic" xml:space="preserve">bytesRead , doneReading</text></g><g><path fill="none" stroke="black" paint-order="fill stroke markers" d=" M 483.82667348528645 1729.4079733710005 L 119.62813883366665 1729.4079733710005" stroke-miterlimit="10" stroke-width="1.3612669416666667" stroke-dasharray="6.53408132"/><g transform="translate(106.17882144999999,1729.4079733710005) translate(-106.17882144999999,-1729.4079733710005)"><path fill="black" stroke="none" paint-order="stroke fill markers" d=" M 119.79149086666665 1722.6016386626673 L 106.17882144999999 1729.4079733710005 L 119.79149086666665 1736.2143080793337 Z"/></g></g><g><g><rect fill="white" stroke="none" x="261.4680019457877" y="1822.5186321810006" width="67.06949104371094" height="21.23576429"/></g><text fill="black" stroke="none" font-family="sans-serif" font-size="11pt" font-style="normal" font-weight="normal" text-decoration="normal" x="263.9182824407877" y="1837.2203151510007" text-anchor="start" dominant-baseline="alphabetic" xml:space="preserve">is CDATA</text></g><g><path fill="none" stroke="black" paint-order="fill stroke markers" d=" M 106.17882144999999 1843.7543964710005 L 470.3773561016198 1843.7543964710005" stroke-miterlimit="10" stroke-width="1.3612669416666667" stroke-dasharray=""/><g transform="translate(483.82667348528645,1843.7543964710005) translate(-483.82667348528645,-1843.7543964710005)"><path fill="black" stroke="none" paint-order="stroke fill markers" d=" M 470.2140040686198 1836.9480617626673 L 483.82667348528645 1843.7543964710005 L 470.2140040686198 1850.5607311793337 Z"/></g></g><g><g><rect fill="white" stroke="none" x="279.9218364794791" y="1868.2572014210007" width="30.161821976328124" height="21.23576429"/></g><text fill="black" stroke="none" font-family="sans-serif" font-size="11pt" font-style="normal" font-weight="normal" text-decoration="normal" x="282.3721169744791" y="1882.9588843910008" text-anchor="start" dominant-baseline="alphabetic" xml:space="preserve">true</text></g><g><path fill="none" stroke="black" paint-order="fill stroke markers" d=" M 483.82667348528645 1889.4929657110006 L 119.62813883366665 1889.4929657110006" stroke-miterlimit="10" stroke-width="1.3612669416666667" stroke-dasharray="6.53408132"/><g transform="translate(106.17882144999999,1889.4929657110006) translate(-106.17882144999999,-1889.4929657110006)"><path fill="black" stroke="none" paint-order="stroke fill markers" d=" M 119.79149086666665 1882.6866310026674 L 106.17882144999999 1889.4929657110006 L 119.79149086666665 1896.2993004193338 Z"/></g></g><g><g><rect fill="white" stroke="none" x="173.85171471434242" y="1913.9957706610007" width="242.30206550660156" height="21.23576429"/></g><text fill="black" stroke="none" font-family="sans-serif" font-size="11pt" font-style="normal" font-weight="normal" text-decoration="normal" x="176.3019952093424" y="1928.6974536310008" text-anchor="start" dominant-baseline="alphabetic" xml:space="preserve">parseCDATA(content, doneReading)</text></g><g><path fill="none" stroke="black" paint-order="fill stroke markers" d=" M 106.17882144999999 1935.2315349510006 L 470.3773561016198 1935.2315349510006" stroke-miterlimit="10" stroke-width="1.3612669416666667" stroke-dasharray=""/><g transform="translate(483.82667348528645,1935.2315349510006) translate(-483.82667348528645,-1935.2315349510006)"><path fill="black" stroke="none" paint-order="stroke fill markers" d=" M 470.2140040686198 1928.4252002426674 L 483.82667348528645 1935.2315349510006 L 470.2140040686198 1942.0378696593339 Z"/></g></g><g><g><rect fill="white" stroke="none" x="174.38859520750648" y="1959.7343399010008" width="241.22830452027344" height="21.23576429"/></g><text fill="black" stroke="none" font-family="sans-serif" font-size="11pt" font-style="normal" font-weight="normal" text-decoration="normal" x="176.83887570250647" y="1974.436022871001" text-anchor="start" dominant-baseline="alphabetic" xml:space="preserve">totalBytes, characters, doneReading</text></g><g><path fill="none" stroke="black" paint-order="fill stroke markers" d=" M 483.82667348528645 1980.9701041910007 L 119.62813883366665 1980.9701041910007" stroke-miterlimit="10" stroke-width="1.3612669416666667" stroke-dasharray="6.53408132"/><g transform="translate(106.17882144999999,1980.9701041910007) translate(-106.17882144999999,-1980.9701041910007)"><path fill="black" stroke="none" paint-order="stroke fill markers" d=" M 119.79149086666665 1974.1637694826675 L 106.17882144999999 1980.9701041910007 L 119.79149086666665 1987.776438899334 Z"/></g></g><g><g><rect fill="white" stroke="none" x="278.34704552488927" y="2074.0807630010004" width="33.311403885507815" height="21.23576429"/></g><text fill="black" stroke="none" font-family="sans-serif" font-size="11pt" font-style="normal" font-weight="normal" text-decoration="normal" x="280.7973260198893" y="2088.7824459710005" text-anchor="start" dominant-baseline="alphabetic" xml:space="preserve">is '?'</text></g><g><path fill="none" stroke="black" paint-order="fill stroke markers" d=" M 106.17882144999999 2095.3165272910005 L 470.3773561016198 2095.3165272910005" stroke-miterlimit="10" stroke-width="1.3612669416666667" stroke-dasharray=""/><g transform="translate(483.82667348528645,2095.3165272910005) translate(-483.82667348528645,-2095.3165272910005)"><path fill="black" stroke="none" paint-order="stroke fill markers" d=" M 470.2140040686198 2088.510192582667 L 483.82667348528645 2095.3165272910005 L 470.2140040686198 2102.122861999334 Z"/></g></g><g><g><rect fill="white" stroke="none" x="279.9218364794791" y="2119.819332241" width="30.161821976328124" height="21.23576429"/></g><text fill="black" stroke="none" font-family="sans-serif" font-size="11pt" font-style="normal" font-weight="normal" text-decoration="normal" x="282.3721169744791" y="2134.5210152110003" text-anchor="start" dominant-baseline="alphabetic" xml:space="preserve">true</text></g><g><path fill="none" stroke="black" paint-order="fill stroke markers" d=" M 483.82667348528645 2141.0550965310003 L 119.62813883366665 2141.0550965310003" stroke-miterlimit="10" stroke-width="1.3612669416666667" stroke-dasharray="6.53408132"/><g transform="translate(106.17882144999999,2141.0550965310003) translate(-106.17882144999999,-2141.0550965310003)"><path fill="black" stroke="none" paint-order="stroke fill markers" d=" M 119.79149086666665 2134.248761822667 L 106.17882144999999 2141.0550965310003 L 119.79149086666665 2147.861431239334 Z"/></g></g><g><g><rect fill="white" stroke="none" x="209.03068505125648" y="2165.557901481" width="171.94412483277344" height="21.23576429"/></g><text fill="black" stroke="none" font-family="sans-serif" font-size="11pt" font-style="normal" font-weight="normal" text-decoration="normal" x="211.48096554625647" y="2180.259584451" text-anchor="start" dominant-baseline="alphabetic" xml:space="preserve">parseProcessing(content)</text></g><g><path fill="none" stroke="black" paint-order="fill stroke markers" d=" M 106.17882144999999 2186.793665771 L 470.3773561016198 2186.793665771" stroke-miterlimit="10" stroke-width="1.3612669416666667" stroke-dasharray=""/><g transform="translate(483.82667348528645,2186.793665771) translate(-483.82667348528645,-2186.793665771)"><path fill="black" stroke="none" paint-order="stroke fill markers" d=" M 470.2140040686198 2179.9873310626667 L 483.82667348528645 2186.793665771 L 470.2140040686198 2193.6000004793336 Z"/></g></g><g><g><rect fill="white" stroke="none" x="292.5524669726432" y="2211.296470721" width="4.90056099" height="21.23576429"/></g><text fill="black" stroke="none" font-family="sans-serif" font-size="11pt" font-style="normal" font-weight="normal" text-decoration="normal" x="295.0027474676432" y="2225.998153691" text-anchor="start" dominant-baseline="alphabetic" xml:space="preserve"></text></g><g><path fill="none" stroke="black" paint-order="fill stroke markers" d=" M 483.82667348528645 2232.532235011 L 119.62813883366665 2232.532235011" stroke-miterlimit="10" stroke-width="1.3612669416666667" stroke-dasharray=""/><g transform="translate(106.17882144999999,2232.532235011) translate(-106.17882144999999,-2232.532235011)"><path fill="black" stroke="none" paint-order="stroke fill markers" d=" M 119.79149086666665 2225.7259003026666 L 106.17882144999999 2232.532235011 L 119.79149086666665 2239.3385697193335 Z"/></g></g><g><g><rect fill="white" stroke="none" x="280.38713036375646" y="2325.6428938209997" width="29.231234207773436" height="21.23576429"/></g><text fill="black" stroke="none" font-family="sans-serif" font-size="11pt" font-style="normal" font-weight="normal" text-decoration="normal" x="282.83741085875647" y="2340.344576791" text-anchor="start" dominant-baseline="alphabetic" xml:space="preserve">is '/'</text></g><g><path fill="none" stroke="black" paint-order="fill stroke markers" d=" M 106.17882144999999 2346.878658111 L 470.3773561016198 2346.878658111" stroke-miterlimit="10" stroke-width="1.3612669416666667" stroke-dasharray=""/><g transform="translate(483.82667348528645,2346.878658111) translate(-483.82667348528645,-2346.878658111)"><path fill="black" stroke="none" paint-order="stroke fill markers" d=" M 470.2140040686198 2340.0723234026664 L 483.82667348528645 2346.878658111 L 470.2140040686198 2353.6849928193333 Z"/></g></g><g><g><rect fill="white" stroke="none" x="279.9218364794791" y="2371.3814630609995" width="30.161821976328124" height="21.23576429"/></g><text fill="black" stroke="none" font-family="sans-serif" font-size="11pt" font-style="normal" font-weight="normal" text-decoration="normal" x="282.3721169744791" y="2386.0831460309996" text-anchor="start" dominant-baseline="alphabetic" xml:space="preserve">true</text></g><g><path fill="none" stroke="black" paint-order="fill stroke markers" d=" M 483.82667348528645 2392.6172273509997 L 119.62813883366665 2392.6172273509997" stroke-miterlimit="10" stroke-width="1.3612669416666667" stroke-dasharray="6.53408132"/><g transform="translate(106.17882144999999,2392.6172273509997) translate(-106.17882144999999,-2392.6172273509997)"><path fill="black" stroke="none" paint-order="stroke fill markers" d=" M 119.79149086666665 2385.810892642666 L 106.17882144999999 2392.6172273509997 L 119.79149086666665 2399.423562059333 Z"/></g></g><g><g><rect fill="white" stroke="none" x="220.43009148436195" y="2417.1200323009994" width="149.1453119665625" height="21.23576429"/></g><text fill="black" stroke="none" font-family="sans-serif" font-size="11pt" font-style="normal" font-weight="normal" text-decoration="normal" x="222.88037197936194" y="2431.8217152709994" text-anchor="start" dominant-baseline="alphabetic" xml:space="preserve">parseEndTag(content)</text></g><g><path fill="none" stroke="black" paint-order="fill stroke markers" d=" M 106.17882144999999 2438.3557965909995 L 470.3773561016198 2438.3557965909995" stroke-miterlimit="10" stroke-width="1.3612669416666667" stroke-dasharray=""/><g transform="translate(483.82667348528645,2438.3557965909995) translate(-483.82667348528645,-2438.3557965909995)"><path fill="black" stroke="none" paint-order="stroke fill markers" d=" M 470.2140040686198 2431.549461882666 L 483.82667348528645 2438.3557965909995 L 470.2140040686198 2445.162131299333 Z"/></g></g><g><g><rect fill="white" stroke="none" x="292.5524669726432" y="2462.858601540999" width="4.90056099" height="21.23576429"/></g><text fill="black" stroke="none" font-family="sans-serif" font-size="11pt" font-style="normal" font-weight="normal" text-decoration="normal" x="295.0027474676432" y="2477.5602845109993" text-anchor="start" dominant-baseline="alphabetic" xml:space="preserve"></text></g><g><path fill="none" stroke="black" paint-order="fill stroke markers" d=" M 483.82667348528645 2484.0943658309993 L 119.62813883366665 2484.0943658309993" stroke-miterlimit="10" stroke-width="1.3612669416666667" stroke-dasharray=""/><g transform="translate(106.17882144999999,2484.0943658309993) translate(-106.17882144999999,-2484.0943658309993)"><path fill="black" stroke="none" paint-order="stroke fill markers" d=" M 119.79149086666665 2477.288031122666 L 106.17882144999999 2484.0943658309993 L 119.79149086666665 2490.900700539333 Z"/></g></g><g><g><rect fill="white" stroke="none" x="278.14303551512364" y="2577.205024640999" width="33.719423905039065" height="21.23576429"/></g><text fill="black" stroke="none" font-family="sans-serif" font-size="11pt" font-style="normal" font-weight="normal" text-decoration="normal" x="280.59331601012366" y="2591.906707610999" text-anchor="start" dominant-baseline="alphabetic" xml:space="preserve">is '&lt;'</text></g><g><path fill="none" stroke="black" paint-order="fill stroke markers" d=" M 106.17882144999999 2598.440788930999 L 470.3773561016198 2598.440788930999" stroke-miterlimit="10" stroke-width="1.3612669416666667" stroke-dasharray=""/><g transform="translate(483.82667348528645,2598.440788930999) translate(-483.82667348528645,-2598.440788930999)"><path fill="black" stroke="none" paint-order="stroke fill markers" d=" M 470.2140040686198 2591.6344542226657 L 483.82667348528645 2598.440788930999 L 470.2140040686198 2605.2471236393326 Z"/></g></g><g><g><rect fill="white" stroke="none" x="279.9218364794791" y="2622.943593880999" width="30.161821976328124" height="21.23576429"/></g><text fill="black" stroke="none" font-family="sans-serif" font-size="11pt" font-style="normal" font-weight="normal" text-decoration="normal" x="282.3721169744791" y="2637.645276850999" text-anchor="start" dominant-baseline="alphabetic" xml:space="preserve">true</text></g><g><path fill="none" stroke="black" paint-order="fill stroke markers" d=" M 483.82667348528645 2644.179358170999 L 119.62813883366665 2644.179358170999" stroke-miterlimit="10" stroke-width="1.3612669416666667" stroke-dasharray="6.53408132"/><g transform="translate(106.17882144999999,2644.179358170999) translate(-106.17882144999999,-2644.179358170999)"><path fill="black" stroke="none" paint-order="stroke fill markers" d=" M 119.79149086666665 2637.3730234626655 L 106.17882144999999 2644.179358170999 L 119.79149086666665 2650.9856928793324 Z"/></g></g><g><g><rect fill="white" stroke="none" x="129.59261284666664" y="2668.6821631209987" width="330.8202692419531" height="21.23576429"/></g><text fill="black" stroke="none" font-family="sans-serif" font-size="11pt" font-style="normal" font-weight="normal" text-decoration="normal" x="132.04289334166663" y="2683.3838460909988" text-anchor="start" dominant-baseline="alphabetic" xml:space="preserve">parseStartTag(content, qName, prefix, localName)</text></g><g><path fill="none" stroke="black" paint-order="fill stroke markers" d=" M 106.17882144999999 2689.917927410999 L 470.3773561016198 2689.917927410999" stroke-miterlimit="10" stroke-width="1.3612669416666667" stroke-dasharray=""/><g transform="translate(483.82667348528645,2689.917927410999) translate(-483.82667348528645,-2689.917927410999)"><path fill="black" stroke="none" paint-order="stroke fill markers" d=" M 470.2140040686198 2683.1115927026653 L 483.82667348528645 2689.917927410999 L 470.2140040686198 2696.7242621193323 Z"/></g></g><g><g><rect fill="white" stroke="none" x="208.2253643115104" y="2714.4207323609985" width="173.55476631226563" height="21.23576429"/></g><text fill="black" stroke="none" font-family="sans-serif" font-size="11pt" font-style="normal" font-weight="normal" text-decoration="normal" x="210.67564480651038" y="2729.1224153309986" text-anchor="start" dominant-baseline="alphabetic" xml:space="preserve">qName, prefix, localName</text></g><g><path fill="none" stroke="black" paint-order="fill stroke markers" d=" M 483.82667348528645 2735.6564966509986 L 119.62813883366665 2735.6564966509986" stroke-miterlimit="10" stroke-width="1.3612669416666667" stroke-dasharray="6.53408132"/><g transform="translate(106.17882144999999,2735.6564966509986) translate(-106.17882144999999,-2735.6564966509986)"><path fill="black" stroke="none" paint-order="stroke fill markers" d=" M 119.79149086666665 2728.850161942665 L 106.17882144999999 2735.6564966509986 L 119.79149086666665 2742.462831359332 Z"/></g></g><g><g><rect fill="white" stroke="none" x="133.67641367166667" y="2760.159301600999" width="198.00000251832031" height="21.23576429"/></g><text fill="black" stroke="none" font-family="sans-serif" font-size="11pt" font-style="normal" font-weight="normal" text-decoration="normal" x="136.12669416666665" y="2774.860984570999" text-anchor="start" dominant-baseline="alphabetic" xml:space="preserve">Compare to srcML tag names</text></g><g><path fill="none" stroke="black" paint-order="fill stroke markers" d=" M 106.17882144999999 2781.3950658909985 L 179.6872363 2781.3950658909985 L 179.6872363 2802.6308301809986 L 127.79574048366666 2802.6308301809986" stroke-miterlimit="10" stroke-width="1.3612669416666667" stroke-dasharray=""/><g transform="translate(114.3464231,2802.6308301809986) translate(-114.3464231,-2802.6308301809986)"><path fill="black" stroke="none" paint-order="stroke fill markers" d=" M 127.95909251666666 2795.824495472665 L 114.3464231 2802.6308301809986 L 127.95909251666666 2809.437164889332 Z"/></g></g><g><g><rect fill="white" stroke="none" x="133.67641367166667" y="2827.1336351309988" width="158.92340339722656" height="21.23576429"/></g><text fill="black" stroke="none" font-family="sans-serif" font-size="11pt" font-style="normal" font-weight="normal" text-decoration="normal" x="136.12669416666665" y="2841.835318100999" text-anchor="start" dominant-baseline="alphabetic" xml:space="preserve">Update count variables </text></g><g><path fill="none" stroke="black" paint-order="fill stroke markers" d=" M 106.17882144999999 2848.3693994209984 L 179.6872363 2848.3693994209984 L 179.6872363 2869.6051637109986 L 127.79574048366666 2869.6051637109986" stroke-miterlimit="10" stroke-width="1.3612669416666667" stroke-dasharray=""/><g transform="translate(114.3464231,2869.6051637109986) translate(-114.3464231,-2869.6051637109986)"><path fill="black" stroke="none" paint-order="stroke fill markers" d=" M 127.95909251666666 2862.798829002665 L 114.3464231 2869.6051637109986 L 127.95909251666666 2876.411498419332 Z"/></g></g><g><g><rect fill="white" stroke="none" x="246.1101070483268" y="2962.7158225209982" width="97.78528083863281" height="21.23576429"/></g><text fill="black" stroke="none" font-family="sans-serif" font-size="11pt" font-style="normal" font-weight="normal" text-decoration="normal" x="248.56038754332678" y="2977.4175054909983" text-anchor="start" dominant-baseline="alphabetic" xml:space="preserve">is Namespace</text></g><g><path fill="none" stroke="black" paint-order="fill stroke markers" d=" M 106.17882144999999 2983.9515868109984 L 470.3773561016198 2983.9515868109984" stroke-miterlimit="10" stroke-width="1.3612669416666667" stroke-dasharray=""/><g transform="translate(483.82667348528645,2983.9515868109984) translate(-483.82667348528645,-2983.9515868109984)"><path fill="black" stroke="none" paint-order="stroke fill markers" d=" M 470.2140040686198 2977.145252102665 L 483.82667348528645 2983.9515868109984 L 470.2140040686198 2990.757921519332 Z"/></g></g><g><g><rect fill="white" stroke="none" x="279.9218364794791" y="3008.454391760998" width="30.161821976328124" height="21.23576429"/></g><text fill="black" stroke="none" font-family="sans-serif" font-size="11pt" font-style="normal" font-weight="normal" text-decoration="normal" x="282.3721169744791" y="3023.156074730998" text-anchor="start" dominant-baseline="alphabetic" xml:space="preserve">true</text></g><g><path fill="none" stroke="black" paint-order="fill stroke markers" d=" M 483.82667348528645 3029.690156050998 L 119.62813883366665 3029.690156050998" stroke-miterlimit="10" stroke-width="1.3612669416666667" stroke-dasharray="6.53408132"/><g transform="translate(106.17882144999999,3029.690156050998) translate(-106.17882144999999,-3029.690156050998)"><path fill="black" stroke="none" paint-order="stroke fill markers" d=" M 119.79149086666665 3022.8838213426648 L 106.17882144999999 3029.690156050998 L 119.79149086666665 3036.4964907593317 Z"/></g></g><path fill="white" stroke="black" paint-order="fill stroke markers" d=" M 106.17882144999999 3097.4812497459984 L 114.34642309999998 3097.4812497459984 M 114.34642309999998 3078.6957659509985 L 321.3960962352344 3078.6957659509985 L 336.09777920523436 3093.3974489209986 L 336.09777920523436 3116.2667335409983 L 114.34642309999998 3116.2667335409983 L 114.34642309999998 3078.6957659509985 M 321.3960962352344 3078.6957659509985 L 321.3960962352344 3093.3974489209986 L 336.09777920523436 3093.3974489209986" stroke-miterlimit="10" stroke-width="1.3612669416666667" stroke-dasharray=""/><g><text fill="black" stroke="none" font-family="sans-serif" font-size="11pt" font-style="normal" font-weight="normal" text-decoration="normal" x="137.21570771999998" y="3101.5650505709987" text-anchor="start" dominant-baseline="alphabetic" xml:space="preserve">else parseAtribute(content)</text></g><g><g><rect fill="white" stroke="none" x="206.17813072996742" y="3140.769538490998" width="177.64923347535156" height="21.23576429"/></g><text fill="black" stroke="none" font-family="sans-serif" font-size="11pt" font-style="normal" font-weight="normal" text-decoration="normal" x="208.6284112249674" y="3155.471221460998" text-anchor="start" dominant-baseline="alphabetic" xml:space="preserve">parseNamespace(content)</text></g><g><path fill="none" stroke="black" paint-order="fill stroke markers" d=" M 106.17882144999999 3162.005302780998 L 470.3773561016198 3162.005302780998" stroke-miterlimit="10" stroke-width="1.3612669416666667" stroke-dasharray=""/><g transform="translate(483.82667348528645,3162.005302780998) translate(-483.82667348528645,-3162.005302780998)"><path fill="black" stroke="none" paint-order="stroke fill markers" d=" M 470.2140040686198 3155.1989680726647 L 483.82667348528645 3162.005302780998 L 470.2140040686198 3168.8116374893316 Z"/></g></g><g><g><rect fill="white" stroke="none" x="292.5524669726432" y="3186.508107730998" width="4.90056099" height="21.23576429"/></g><text fill="black" stroke="none" font-family="sans-serif" font-size="11pt" font-style="normal" font-weight="normal" text-decoration="normal" x="295.0027474676432" y="3201.209790700998" text-anchor="start" dominant-baseline="alphabetic" xml:space="preserve"></text></g><g><path fill="none" stroke="black" paint-order="fill stroke markers" d=" M 483.82667348528645 3207.743872020998 L 119.62813883366665 3207.743872020998" stroke-miterlimit="10" stroke-width="1.3612669416666667" stroke-dasharray=""/><g transform="translate(106.17882144999999,3207.743872020998) translate(-106.17882144999999,-3207.743872020998)"><path fill="black" stroke="none" paint-order="stroke fill markers" d=" M 119.79149086666665 3200.9375373126645 L 106.17882144999999 3207.743872020998 L 119.79149086666665 3214.5502067293314 Z"/></g></g><g><g><rect fill="white" stroke="none" x="275.7378688891471" y="3232.2466769709977" width="38.52975715699219" height="21.23576429"/></g><text fill="black" stroke="none" font-family="sans-serif" font-size="11pt" font-style="normal" font-weight="normal" text-decoration="normal" x="278.1881493841471" y="3246.9483599409978" text-anchor="start" dominant-baseline="alphabetic" xml:space="preserve">is "&gt;"</text></g><g><path fill="none" stroke="black" paint-order="fill stroke markers" d=" M 106.17882144999999 3253.482441260998 L 470.3773561016198 3253.482441260998" stroke-miterlimit="10" stroke-width="1.3612669416666667" stroke-dasharray=""/><g transform="translate(483.82667348528645,3253.482441260998) translate(-483.82667348528645,-3253.482441260998)"><path fill="black" stroke="none" paint-order="stroke fill markers" d=" M 470.2140040686198 3246.6761065526644 L 483.82667348528645 3253.482441260998 L 470.2140040686198 3260.2887759693313 Z"/></g></g><g><g><rect fill="white" stroke="none" x="279.9218364794791" y="3277.9852462109975" width="30.161821976328124" height="21.23576429"/></g><text fill="black" stroke="none" font-family="sans-serif" font-size="11pt" font-style="normal" font-weight="normal" text-decoration="normal" x="282.3721169744791" y="3292.6869291809976" text-anchor="start" dominant-baseline="alphabetic" xml:space="preserve">true</text></g><g><path fill="none" stroke="black" paint-order="fill stroke markers" d=" M 483.82667348528645 3299.2210105009976 L 119.62813883366665 3299.2210105009976" stroke-miterlimit="10" stroke-width="1.3612669416666667" stroke-dasharray="6.53408132"/><g transform="translate(106.17882144999999,3299.2210105009976) translate(-106.17882144999999,-3299.2210105009976)"><path fill="black" stroke="none" paint-order="stroke fill markers" d=" M 119.79149086666665 3292.414675792664 L 106.17882144999999 3299.2210105009976 L 119.79149086666665 3306.027345209331 Z"/></g></g><g><g><rect fill="white" stroke="none" x="273.70136223631505" y="3323.7238154509973" width="42.60277046265625" height="21.23576429"/></g><text fill="black" stroke="none" font-family="sans-serif" font-size="11pt" font-style="normal" font-weight="normal" text-decoration="normal" x="276.15164273131506" y="3338.4254984209974" text-anchor="start" dominant-baseline="alphabetic" xml:space="preserve">is "/&gt;"</text></g><g><path fill="none" stroke="black" paint-order="fill stroke markers" d=" M 106.17882144999999 3344.9595797409975 L 470.3773561016198 3344.9595797409975" stroke-miterlimit="10" stroke-width="1.3612669416666667" stroke-dasharray=""/><g transform="translate(483.82667348528645,3344.9595797409975) translate(-483.82667348528645,-3344.9595797409975)"><path fill="black" stroke="none" paint-order="stroke fill markers" d=" M 470.2140040686198 3338.153245032664 L 483.82667348528645 3344.9595797409975 L 470.2140040686198 3351.765914449331 Z"/></g></g><g><g><rect fill="white" stroke="none" x="279.9218364794791" y="3369.462384690997" width="30.161821976328124" height="21.23576429"/></g><text fill="black" stroke="none" font-family="sans-serif" font-size="11pt" font-style="normal" font-weight="normal" text-decoration="normal" x="282.3721169744791" y="3384.1640676609973" text-anchor="start" dominant-baseline="alphabetic" xml:space="preserve">true</text></g><g><path fill="none" stroke="black" paint-order="fill stroke markers" d=" M 483.82667348528645 3390.6981489809973 L 119.62813883366665 3390.6981489809973" stroke-miterlimit="10" stroke-width="1.3612669416666667" stroke-dasharray="6.53408132"/><g transform="translate(106.17882144999999,3390.6981489809973) translate(-106.17882144999999,-3390.6981489809973)"><path fill="black" stroke="none" paint-order="stroke fill markers" d=" M 119.79149086666665 3383.891814272664 L 106.17882144999999 3390.6981489809973 L 119.79149086666665 3397.5044836893308 Z"/></g></g><g><g/><path fill="none" stroke="black" paint-order="fill stroke markers" d=" M 32.67040659999999 311.51232693099996 L 786.0294577539063 311.51232693099996 L 786.0294577539063 581.043181381 L 32.67040659999999 581.043181381 L 32.67040659999999 311.51232693099996 Z" stroke-miterlimit="10" stroke-width="2.3336004714285714" stroke-dasharray=""/><path fill="white" stroke="black" paint-order="fill stroke markers" d=" M 32.67040659999999 311.51232693099996 L 32.67040659999999 331.11457089099997 L 191.80474142265624 331.11457089099997 L 201.60586340265624 321.31344891099997 L 201.60586340265624 311.51232693099996 L 32.67040659999999 311.51232693099996" stroke-miterlimit="10" stroke-width="2.3336004714285714" stroke-dasharray=""/><text fill="black" stroke="none" font-family="sans-serif" font-size="8.8pt" font-style="normal" font-weight="bold" text-decoration="normal" x="49.005609899999996" y="324.580489571" text-anchor="start" dominant-baseline="alphabetic" xml:space="preserve">parse XML Declaration</text></g><g><g/><path fill="none" stroke="black" paint-order="fill stroke markers" d=" M 32.67040659999999 697.0231248109998 L 549.1674866852865 697.0231248109998 L 549.1674866852865 832.6053122009997 L 32.67040659999999 832.6053122009997 L 32.67040659999999 697.0231248109998 Z" stroke-miterlimit="10" stroke-width="2.3336004714285714" stroke-dasharray=""/><path fill="white" stroke="black" paint-order="fill stroke markers" d=" M 32.67040659999999 697.0231248109998 L 32.67040659999999 716.6253687709998 L 156.60332540703124 716.6253687709998 L 166.40444738703124 706.8242467909997 L 166.40444738703124 697.0231248109998 L 32.67040659999999 697.0231248109998" stroke-miterlimit="10" stroke-width="2.3336004714285714" stroke-dasharray=""/><text fill="black" stroke="none" font-family="sans-serif" font-size="8.8pt" font-style="normal" font-weight="bold" text-decoration="normal" x="49.005609899999996" y="710.0912874509997" text-anchor="start" dominant-baseline="alphabetic" xml:space="preserve">parse DOCTYPE</text></g><g><g/><path fill="none" stroke="black" paint-order="fill stroke markers" d=" M 16.335203299999996 919.1818896909998 L 565.5026899852865 919.1818896909998 L 565.5026899852865 3415.2009539309975 L 16.335203299999996 3415.2009539309975 L 16.335203299999996 919.1818896909998 Z" stroke-miterlimit="10" stroke-width="2.3336004714285714" stroke-dasharray=""/><path fill="white" stroke="black" paint-order="fill stroke markers" d=" M 16.335203299999996 919.1818896909998 L 16.335203299999996 938.7841336509998 L 108.29700699472656 938.7841336509998 L 118.09812897472656 928.9830116709998 L 118.09812897472656 919.1818896909998 L 16.335203299999996 919.1818896909998" stroke-miterlimit="10" stroke-width="2.3336004714285714" stroke-dasharray=""/><text fill="black" stroke="none" font-family="sans-serif" font-size="8.8pt" font-style="normal" font-weight="bold" text-decoration="normal" x="32.67040659999999" y="932.2500523309998" text-anchor="start" dominant-baseline="alphabetic" xml:space="preserve">While loop</text></g><g><g/><path fill="none" stroke="black" paint-order="fill stroke markers" d=" M 32.67040659999999 1092.3350446709999 L 549.1674866852865 1092.3350446709999 L 549.1674866852865 1502.3486475010002 L 32.67040659999999 1502.3486475010002 L 32.67040659999999 1092.3350446709999 Z" stroke-miterlimit="10" stroke-width="2.3336004714285714" stroke-dasharray=""/><path fill="white" stroke="black" paint-order="fill stroke markers" d=" M 32.67040659999999 1092.3350446709999 L 32.67040659999999 1111.9372886309998 L 154.6674275798828 1111.9372886309998 L 164.4685495598828 1102.136166651 L 164.4685495598828 1092.3350446709999 L 32.67040659999999 1092.3350446709999" stroke-miterlimit="10" stroke-width="2.3336004714285714" stroke-dasharray=""/><text fill="black" stroke="none" font-family="sans-serif" font-size="8.8pt" font-style="normal" font-weight="bold" text-decoration="normal" x="49.005609899999996" y="1105.4032073109997" text-anchor="start" dominant-baseline="alphabetic" xml:space="preserve">parse Character</text></g><g><g/><path fill="none" stroke="black" paint-order="fill stroke markers" d=" M 32.67040659999999 1526.8514524510003 L 549.1674866852865 1526.8514524510003 L 549.1674866852865 1753.9107783210004 L 32.67040659999999 1753.9107783210004 L 32.67040659999999 1526.8514524510003 Z" stroke-miterlimit="10" stroke-width="2.3336004714285714" stroke-dasharray=""/><path fill="white" stroke="black" paint-order="fill stroke markers" d=" M 32.67040659999999 1526.8514524510003 L 32.67040659999999 1546.4536964110002 L 153.99158529472655 1546.4536964110002 L 163.79270727472655 1536.6525744310004 L 163.79270727472655 1526.8514524510003 L 32.67040659999999 1526.8514524510003" stroke-miterlimit="10" stroke-width="2.3336004714285714" stroke-dasharray=""/><text fill="black" stroke="none" font-family="sans-serif" font-size="8.8pt" font-style="normal" font-weight="bold" text-decoration="normal" x="49.005609899999996" y="1539.9196150910002" text-anchor="start" dominant-baseline="alphabetic" xml:space="preserve">parse Comment</text></g><g><g/><path fill="none" stroke="black" paint-order="fill stroke markers" d=" M 32.67040659999999 1778.4135832710006 L 549.1674866852865 1778.4135832710006 L 549.1674866852865 2005.4729091410006 L 32.67040659999999 2005.4729091410006 L 32.67040659999999 1778.4135832710006 Z" stroke-miterlimit="10" stroke-width="2.3336004714285714" stroke-dasharray=""/><path fill="white" stroke="black" paint-order="fill stroke markers" d=" M 32.67040659999999 1778.4135832710006 L 32.67040659999999 1798.0158272310005 L 139.2088094158203 1798.0158272310005 L 149.0099313958203 1788.2147052510006 L 149.0099313958203 1778.4135832710006 L 32.67040659999999 1778.4135832710006" stroke-miterlimit="10" stroke-width="2.3336004714285714" stroke-dasharray=""/><text fill="black" stroke="none" font-family="sans-serif" font-size="8.8pt" font-style="normal" font-weight="bold" text-decoration="normal" x="49.005609899999996" y="1791.4817459110004" text-anchor="start" dominant-baseline="alphabetic" xml:space="preserve">parse CDATA</text></g><g><g/><path fill="none" stroke="black" paint-order="fill stroke markers" d=" M 32.67040659999999 2029.9757140910008 L 549.1674866852865 2029.9757140910008 L 549.1674866852865 2257.035039961 L 32.67040659999999 2257.035039961 L 32.67040659999999 2029.9757140910008 Z" stroke-miterlimit="10" stroke-width="2.3336004714285714" stroke-dasharray=""/><path fill="white" stroke="black" paint-order="fill stroke markers" d=" M 32.67040659999999 2029.9757140910008 L 32.67040659999999 2049.5779580510007 L 163.1384511394531 2049.5779580510007 L 172.93957311945312 2039.7768360710008 L 172.93957311945312 2029.9757140910008 L 32.67040659999999 2029.9757140910008" stroke-miterlimit="10" stroke-width="2.3336004714285714" stroke-dasharray=""/><text fill="black" stroke="none" font-family="sans-serif" font-size="8.8pt" font-style="normal" font-weight="bold" text-decoration="normal" x="49.005609899999996" y="2043.0438767310006" text-anchor="start" dominant-baseline="alphabetic" xml:space="preserve">parse Processing</text></g><g><g/><path fill="none" stroke="black" paint-order="fill stroke markers" d=" M 32.67040659999999 2281.537844911 L 549.1674866852865 2281.537844911 L 549.1674866852865 2508.5971707809995 L 32.67040659999999 2508.5971707809995 L 32.67040659999999 2281.537844911 Z" stroke-miterlimit="10" stroke-width="2.3336004714285714" stroke-dasharray=""/><path fill="white" stroke="black" paint-order="fill stroke markers" d=" M 32.67040659999999 2281.537844911 L 32.67040659999999 2301.140088871 L 145.29717306328124 2301.140088871 L 155.09829504328124 2291.338966891 L 155.09829504328124 2281.537844911 L 32.67040659999999 2281.537844911" stroke-miterlimit="10" stroke-width="2.3336004714285714" stroke-dasharray=""/><text fill="black" stroke="none" font-family="sans-serif" font-size="8.8pt" font-style="normal" font-weight="bold" text-decoration="normal" x="49.005609899999996" y="2294.606007551" text-anchor="start" dominant-baseline="alphabetic" xml:space="preserve">parse End Tag</text></g><g><g/><path fill="none" stroke="black" paint-order="fill stroke markers" d=" M 32.67040659999999 2533.099975730999 L 549.1674866852865 2533.099975730999 L 549.1674866852865 2894.1079686609987 L 32.67040659999999 2894.1079686609987 L 32.67040659999999 2533.099975730999 Z" stroke-miterlimit="10" stroke-width="2.3336004714285714" stroke-dasharray=""/><path fill="white" stroke="black" paint-order="fill stroke markers" d=" M 32.67040659999999 2533.099975730999 L 32.67040659999999 2552.7022196909993 L 149.86772970390624 2552.7022196909993 L 159.66885168390624 2542.9010977109992 L 159.66885168390624 2533.099975730999 L 32.67040659999999 2533.099975730999" stroke-miterlimit="10" stroke-width="2.3336004714285714" stroke-dasharray=""/><text fill="black" stroke="none" font-family="sans-serif" font-size="8.8pt" font-style="normal" font-weight="bold" text-decoration="normal" x="49.005609899999996" y="2546.1681383709993" text-anchor="start" dominant-baseline="alphabetic" xml:space="preserve">parse Start Tag</text></g><g><g/><path fill="none" stroke="black" paint-order="fill stroke markers" d=" M 32.67040659999999 2918.6107736109984 L 549.1674866852865 2918.6107736109984 L 549.1674866852865 3054.1929610009984 L 32.67040659999999 3054.1929610009984 L 32.67040659999999 2918.6107736109984 Z" stroke-miterlimit="10" stroke-width="2.3336004714285714" stroke-dasharray=""/><path fill="white" stroke="black" paint-order="fill stroke markers" d=" M 32.67040659999999 2918.6107736109984 L 32.67040659999999 2938.2130175709985 L 165.10875753593749 2938.2130175709985 L 174.9098795159375 2928.4118955909985 L 174.9098795159375 2918.6107736109984 L 32.67040659999999 2918.6107736109984" stroke-miterlimit="10" stroke-width="2.3336004714285714" stroke-dasharray=""/><text fill="black" stroke="none" font-family="sans-serif" font-size="8.8pt" font-style="normal" font-weight="bold" text-decoration="normal" x="49.005609899999996" y="2931.6789362509985" text-anchor="start" dominant-baseline="alphabetic" xml:space="preserve">parse Namespace</text></g></g><g/><g/></g></svg>