<svg version="1.1" xmlns="http://www.w3.org/2000/svg" xmlns:xlink="http://www.w3.org/1999/xlink" width="1018" height="3410"><desc>title%20Sequence%20Diagram%20for%20srcFacts%0A%0Aparticipant%20srcFacts%0Aparticipant%20xml_parser%0A%0Aactivecolor%20srcFacts%20%23coral%0Aactivecolor%20xml_parser%20%23crimson%0A%0Aactivate%20srcFacts%0AsrcFacts%20-%3E%20xml_parser%3A%20parseBegin()%0Adeactivate%20srcFacts%0Aactivate%20xml_parser%0Axml_parser%20--%3E%20srcFacts%3A%20bytesRead%0Adeactivate%20xml_parser%0Aactivate%20srcFacts%0A%0A%23%20check%20isXML()%0AsrcFacts%20-%3E%20xml_parser%3A%20is%20XML%20Declaration%0Adeactivate%20srcFacts%0Aactivate%20xml_parser%0Axml_parser%20--%3E%20srcFacts%3A%20true%0Adeactivate%20xml_parser%0Aactivate%20srcFacts%0A%0A%23%20parse%20XML%20Declaration%0Agroup%20parse%20XML%20Declaration%0AsrcFacts%20-%3E%20xml_parser%3A%20parseXMLDeclaration(content%3A%20String)%0Adeactivate%20srcFacts%0Aactivate%20xml_parser%0Axml_parser%20-%3E%20xml_parser%3A%20parseVersion(content%3A%20String)%0Axml_parser%20-%3E%20xml_parser%3A%20parseEncodingAndStandalone(content%3A%20String)%0Axml_parser%20-%3E%20srcFacts%3A%0Adeactivate%20xml_parser%0Aactivate%20srcFacts%0Aend%20%0A%0A%23%20check%20isDOCTYPE()%0AsrcFacts%20-%3E%20xml_parser%3A%20is%20DOCTYPE%0Adeactivate%20srcFacts%0Aactivate%20xml_parser%0Axml_parser%20--%3E%20srcFacts%3A%20true%20%0Adeactivate%20xml_parser%0Aactivate%20srcFacts%0A%0A%23%20parse%20DOCTYPE%0Agroup%20parse%20DOCTYPE%0AsrcFacts%20-%3E%20xml_parser%3A%20parseDOCTYPE(content%3A%20String)%0Adeactivate%20srcFacts%0Aactivate%20xml_parser%0Axml_parser%20-%3E%20srcFacts%3A%20%0Adeactivate%20xml_parser%0Aactivate%20srcFacts%0Aend%0A%0Anote%20right%20of%20srcFacts%3A%20Begin%20while%20loop%0Agroup%20While%20loop%0AsrcFacts%20-%3E%20srcFacts%3A%20refill%20content%20preserve%20unprocessed%0Aactivate%20srcFacts%0Adeactivateafter%20srcFacts%0A%0Agroup%20parse%20Character%0A%23%20isCharacter(content%3AString%2C%20index%3Aint%2C%20character%3Achar%20%3D%20'%26')%0AsrcFacts%20-%3E%20xml_parser%3A%20is%20'%26'%0Adeactivate%20srcFacts%0Aactivate%20xml_parser%0Axml_parser%20--%3E%20srcFacts%3A%20true%0Adeactivate%20xml_parser%0Aactivate%20srcFacts%0A%0AsrcFacts%20-%3E%20xml_parser%3A%20parseCharacterEntityReference(content%3AString)%0Adeactivate%20srcFacts%0Aactivate%20xml_parser%0Axml_parser%20-%3E%20srcFacts%3A%20%0Adeactivate%20xml_parser%0Aactivate%20srcFacts%0A%0AsrcFacts%20-%3E%20xml_parser%3A%20%20is%20'%3C'%0Adeactivate%20srcFacts%0Aactivate%20xml_parser%0Axml_parser%20--%3E%20srcFacts%3A%20true%20%0Adeactivate%20xml_parser%0Aactivate%20srcFacts%0A%0AsrcFacts%20-%3E%20xml_parser%3A%20parseCharacterNotEntityReference(content%3AString)%0Adeactivate%20srcFacts%0Aactivate%20xml_parser%0Axml_parser%20--%3E%20srcFacts%3A%20characters%0Adeactivate%20xml_parser%0Aactivate%20srcFacts%0Aend%0A%0Agroup%20parse%20Comment%0AsrcFacts%20-%3E%20xml_parser%3A%20is%20XML%20Comment%0Adeactivate%20srcFacts%0Aactivate%20xml_parser%0Axml_parser%20--%3E%20srcFacts%3A%20true%0Adeactivate%20xml_parser%0Aactivate%20srcFacts%0A%0AsrcFacts%20-%3E%20xml_parser%3A%20parseComment(content%3AString%2C%20doneReading%3Abool)%0Adeactivate%20srcFacts%0Aactivate%20xml_parser%0Axml_parser%20--%3E%20srcFacts%3A%20bytesRead%20%2C%20doneReading%0Adeactivate%20xml_parser%0Aactivate%20srcFacts%0Aend%20%0A%0Agroup%20parse%20CDATA%0AsrcFacts%20-%3E%20xml_parser%3A%20is%20CDATA%0Adeactivate%20srcFacts%0Aactivate%20xml_parser%0Axml_parser%20--%3E%20srcFacts%3A%20true%0Adeactivate%20xml_parser%0Aactivate%20srcFacts%0A%0AsrcFacts%20-%3E%20xml_parser%3A%20parseCDATA(content%3AString%2C%20doneReading%3Abool)%0Adeactivate%20srcFacts%0Aactivate%20xml_parser%0Axml_parser%20--%3E%20srcFacts%3A%20totalBytes%2C%20characters%2C%20doneReading%0Adeactivate%20xml_parser%0Aactivate%20srcFacts%0Aend%0A%0Agroup%20parse%20Processing%0AsrcFacts%20-%3E%20xml_parser%3A%20is%20'%3F'%0Adeactivate%20srcFacts%0Aactivate%20xml_parser%0Axml_parser%20--%3E%20srcFacts%3A%20true%0Adeactivate%20xml_parser%0Aactivate%20srcFacts%0A%0AsrcFacts%20-%3E%20xml_parser%3A%20parseProcessing(content%3AString)%0Adeactivate%20srcFacts%0Aactivate%20xml_parser%0Axml_parser%20-%3E%20srcFacts%3A%20%0Adeactivate%20xml_parser%0Aactivate%20srcFacts%0Aend%20%0A%0Agroup%20parse%20End%20Tag%0AsrcFacts%20-%3E%20xml_parser%3A%20is%20'%2F'%0Adeactivate%20srcFacts%0Aactivate%20xml_parser%0Axml_parser%20--%3E%20srcFacts%3A%20true%0Adeactivate%20xml_parser%0Aactivate%20srcFacts%0A%0AsrcFacts%20-%3E%20xml_parser%3A%20parseEndTag(content%3AString)%0Adeactivate%20srcFacts%0Aactivate%20xml_parser%0Axml_parser%20-%3E%20srcFacts%3A%20%0Adeactivate%20xml_parser%0Aactivate%20srcFacts%0Aend%20%0A%0Agroup%20parse%20Start%20Tag%0AsrcFacts%20-%3E%20xml_parser%3A%20is%20'%3C'%0Adeactivate%20srcFacts%0Aactivate%20xml_parser%0Axml_parser%20--%3E%20srcFacts%3A%20true%0Adeactivate%20xml_parser%0Aactivate%20srcFacts%0A%0AsrcFacts%20-%3E%20xml_parser%3A%20parseStartTag(content%3AString%2C%20qName%3AString%2C%20prefix%3AString%2C%20localName%3AString)%0Adeactivate%20srcFacts%0Aactivate%20xml_parser%0Axml_parser%20--%3E%20srcFacts%3A%20qName%2C%20prefix%2C%20localName%0Adeactivate%20xml_parser%0Aactivate%20srcFacts%0A%0AsrcFacts%20-%3E%20srcFacts%3A%20Compare%20to%20srcML%20tag%20names%0Aactivate%20srcFacts%20%23blue%0Adeactivateafter%20srcFacts%0A%0AsrcFacts%20-%3E%20srcFacts%3A%20Update%20count%20variables%20%0Aactivate%20srcFacts%0Adeactivateafter%20srcFacts%0Aend%20%0A%0Agroup%20parse%20Namespace%0AsrcFacts%20-%3E%20xml_parser%3A%20is%20Namespace%0Adeactivate%20srcFacts%0Aactivate%20xml_parser%0Axml_parser%20--%3E%20srcFacts%3A%20true%0Adeactivate%20xml_parser%0Aactivate%20srcFacts%0Aend%0A%0Anote%20right%20of%20srcFacts%3A%20else%20parseAtribute(content%3AString)%0A%0AsrcFacts%20-%3E%20xml_parser%3A%20parseNamespace(content%3AString)%0Adeactivate%20srcFacts%0Aactivate%20xml_parser%0Axml_parser%20-%3E%20srcFacts%3A%20%0Adeactivate%20xml_parser%0Aactivate%20srcFacts%0A%0A%0A%0AsrcFacts%20-%3E%20xml_parser%3A%20is%20%22%3E%22%0Adeactivate%20srcFacts%0Aactivate%20xml_parser%0Axml_parser%20--%3E%20srcFacts%3A%20true%0Adeactivate%20xml_parser%0Aactivate%20srcFacts%0A%0AsrcFacts%20-%3E%20xml_parser%3A%20is%20%22%2F%3E%22%0Adeactivate%20srcFacts%0Aactivate%20xml_parser%0Axml_parser%20--%3E%20srcFacts%3A%20true%0Adeactivate%20xml_parser%0Aactivate%20srcFacts%0A%0Aend</desc><defs/><g><g/><g/><g/><g/><g/><g/><g/><g/><g/><g/><g/><g/><g/><g/><g/><g/><g/><g/><g/><g/><g/><g/><g/><g/><g/><g/><g/><g/><g/><g/><g/><g/><g/><g/><g/><g/><g/><g/><g/><g/><g/><g/><g/><g/><g/><g/><g/><g/><g/><g/><g/><g/><g/><g><rect fill="white" stroke="none" x="0" y="0" width="1018" height="3410"/></g><g><text fill="black" stroke="none" font-family="sans-serif" font-size="16.5pt" font-style="normal" font-weight="normal" text-decoration="normal" x="354.4707979341797" y="24.50280495" text-anchor="start" dominant-baseline="alphabetic" xml:space="preserve">Sequence Diagram for srcFacts</text></g><g/><g><path fill="none" stroke="black" paint-order="fill stroke markers" d=" M 98.01121979999999 95.887643371 L 98.01121979999999 3410.300392940998" stroke-miterlimit="10" stroke-width="1.3612669416666667" stroke-dasharray="12.565541,5.445067766666667"/><path fill="none" stroke="black" paint-order="fill stroke markers" d=" M 661.4716310923177 95.887643371 L 661.4716310923177 3410.300392940998" stroke-miterlimit="10" stroke-width="1.3612669416666667" stroke-dasharray="12.565541,5.445067766666667"/></g><g><path fill="none" stroke="none"/><g><path fill="white" stroke="black" paint-order="fill stroke markers" d=" M 52.596056934343736 51.782594461 L 143.42638266565626 51.782594461 L 143.42638266565626 95.887643371 L 52.596056934343736 95.887643371 L 52.596056934343736 51.782594461 Z" stroke-miterlimit="10" stroke-width="2.613632528" stroke-dasharray=""/></g><g><g/><text fill="black" stroke="none" font-family="sans-serif" font-size="11pt" font-style="normal" font-weight="normal" text-decoration="normal" x="70.31975251484374" y="79.55244007099999" text-anchor="start" dominant-baseline="alphabetic" xml:space="preserve">srcFacts</text></g><path fill="none" stroke="none"/><g><path fill="white" stroke="black" paint-order="fill stroke markers" d=" M 607.4952728531263 51.782594461 L 715.4479893315091 51.782594461 L 715.4479893315091 95.887643371 L 607.4952728531263 95.887643371 L 607.4952728531263 51.782594461 Z" stroke-miterlimit="10" stroke-width="2.613632528" stroke-dasharray=""/></g><g><g/><text fill="black" stroke="none" font-family="sans-serif" font-size="11pt" font-style="normal" font-weight="normal" text-decoration="normal" x="625.2189684336263" y="79.55244007099999" text-anchor="start" dominant-baseline="alphabetic" xml:space="preserve">xml_parser</text></g></g><g><path fill="coral" stroke="black" paint-order="fill stroke markers" d=" M 89.84361815 104.05524502099999 L 106.17882144999999 104.05524502099999 L 106.17882144999999 149.793814261 L 89.84361815 149.793814261 L 89.84361815 104.05524502099999" stroke-miterlimit="10" stroke-width="1.3612669416666667" stroke-dasharray=""/><path fill="crimson" stroke="black" paint-order="fill stroke markers" d=" M 653.3040294423176 149.793814261 L 669.6392327423177 149.793814261 L 669.6392327423177 195.532383501 L 653.3040294423176 195.532383501 L 653.3040294423176 149.793814261" stroke-miterlimit="10" stroke-width="1.3612669416666667" stroke-dasharray=""/><path fill="coral" stroke="black" paint-order="fill stroke markers" d=" M 89.84361815 195.532383501 L 106.17882144999999 195.532383501 L 106.17882144999999 241.270952741 L 89.84361815 241.270952741 L 89.84361815 195.532383501" stroke-miterlimit="10" stroke-width="1.3612669416666667" stroke-dasharray=""/><path fill="crimson" stroke="black" paint-order="fill stroke markers" d=" M 653.3040294423176 241.270952741 L 669.6392327423177 241.270952741 L 669.6392327423177 287.009521981 L 653.3040294423176 287.009521981 L 653.3040294423176 241.270952741" stroke-miterlimit="10" stroke-width="1.3612669416666667" stroke-dasharray=""/><path fill="coral" stroke="black" paint-order="fill stroke markers" d=" M 89.84361815 287.009521981 L 106.17882144999999 287.009521981 L 106.17882144999999 376.853140131 L 89.84361815 376.853140131 L 89.84361815 287.009521981" stroke-miterlimit="10" stroke-width="1.3612669416666667" stroke-dasharray=""/><path fill="crimson" stroke="black" paint-order="fill stroke markers" d=" M 653.3040294423176 376.853140131 L 669.6392327423177 376.853140131 L 669.6392327423177 556.5403764309999 L 653.3040294423176 556.5403764309999 L 653.3040294423176 376.853140131" stroke-miterlimit="10" stroke-width="1.3612669416666667" stroke-dasharray=""/><path fill="coral" stroke="black" paint-order="fill stroke markers" d=" M 89.84361815 556.5403764309999 L 106.17882144999999 556.5403764309999 L 106.17882144999999 626.7817506209999 L 89.84361815 626.7817506209999 L 89.84361815 556.5403764309999" stroke-miterlimit="10" stroke-width="1.3612669416666667" stroke-dasharray=""/><path fill="crimson" stroke="black" paint-order="fill stroke markers" d=" M 653.3040294423176 626.7817506209999 L 669.6392327423177 626.7817506209999 L 669.6392327423177 672.5203198609998 L 653.3040294423176 672.5203198609998 L 653.3040294423176 626.7817506209999" stroke-miterlimit="10" stroke-width="1.3612669416666667" stroke-dasharray=""/><path fill="coral" stroke="black" paint-order="fill stroke markers" d=" M 89.84361815 672.5203198609998 L 106.17882144999999 672.5203198609998 L 106.17882144999999 762.3639380109997 L 89.84361815 762.3639380109997 L 89.84361815 672.5203198609998" stroke-miterlimit="10" stroke-width="1.3612669416666667" stroke-dasharray=""/><path fill="crimson" stroke="black" paint-order="fill stroke markers" d=" M 653.3040294423176 762.3639380109997 L 669.6392327423177 762.3639380109997 L 669.6392327423177 808.1025072509997 L 653.3040294423176 808.1025072509997 L 653.3040294423176 762.3639380109997" stroke-miterlimit="10" stroke-width="1.3612669416666667" stroke-dasharray=""/><path fill="coral" stroke="black" paint-order="fill stroke markers" d=" M 89.84361815 808.1025072509997 L 106.17882144999999 808.1025072509997 L 106.17882144999999 1095.602085331 L 89.84361815 1095.602085331 L 89.84361815 808.1025072509997" stroke-miterlimit="10" stroke-width="1.3612669416666667" stroke-dasharray=""/><path fill="coral" stroke="black" paint-order="fill stroke markers" d=" M 98.01121979999999 1005.7584671809998 L 114.34642309999998 1005.7584671809998 L 114.34642309999998 1017.1931094909997 L 98.01121979999999 1017.1931094909997 L 98.01121979999999 1005.7584671809998" stroke-miterlimit="10" stroke-width="1.3612669416666667" stroke-dasharray=""/><path fill="crimson" stroke="black" paint-order="fill stroke markers" d=" M 653.3040294423176 1095.602085331 L 669.6392327423177 1095.602085331 L 669.6392327423177 1141.340654571 L 653.3040294423176 1141.340654571 L 653.3040294423176 1095.602085331" stroke-miterlimit="10" stroke-width="1.3612669416666667" stroke-dasharray=""/><path fill="coral" stroke="black" paint-order="fill stroke markers" d=" M 89.84361815 1141.340654571 L 106.17882144999999 1141.340654571 L 106.17882144999999 1187.079223811 L 89.84361815 1187.079223811 L 89.84361815 1141.340654571" stroke-miterlimit="10" stroke-width="1.3612669416666667" stroke-dasharray=""/><path fill="crimson" stroke="black" paint-order="fill stroke markers" d=" M 653.3040294423176 1187.079223811 L 669.6392327423177 1187.079223811 L 669.6392327423177 1232.817793051 L 653.3040294423176 1232.817793051 L 653.3040294423176 1187.079223811" stroke-miterlimit="10" stroke-width="1.3612669416666667" stroke-dasharray=""/><path fill="coral" stroke="black" paint-order="fill stroke markers" d=" M 89.84361815 1232.817793051 L 106.17882144999999 1232.817793051 L 106.17882144999999 1278.5563622910001 L 89.84361815 1278.5563622910001 L 89.84361815 1232.817793051" stroke-miterlimit="10" stroke-width="1.3612669416666667" stroke-dasharray=""/><path fill="crimson" stroke="black" paint-order="fill stroke markers" d=" M 653.3040294423176 1278.5563622910001 L 669.6392327423177 1278.5563622910001 L 669.6392327423177 1324.2949315310002 L 653.3040294423176 1324.2949315310002 L 653.3040294423176 1278.5563622910001" stroke-miterlimit="10" stroke-width="1.3612669416666667" stroke-dasharray=""/><path fill="coral" stroke="black" paint-order="fill stroke markers" d=" M 89.84361815 1324.2949315310002 L 106.17882144999999 1324.2949315310002 L 106.17882144999999 1370.0335007710003 L 89.84361815 1370.0335007710003 L 89.84361815 1324.2949315310002" stroke-miterlimit="10" stroke-width="1.3612669416666667" stroke-dasharray=""/><path fill="crimson" stroke="black" paint-order="fill stroke markers" d=" M 653.3040294423176 1370.0335007710003 L 669.6392327423177 1370.0335007710003 L 669.6392327423177 1415.7720700110003 L 653.3040294423176 1415.7720700110003 L 653.3040294423176 1370.0335007710003" stroke-miterlimit="10" stroke-width="1.3612669416666667" stroke-dasharray=""/><path fill="coral" stroke="black" paint-order="fill stroke markers" d=" M 89.84361815 1415.7720700110003 L 106.17882144999999 1415.7720700110003 L 106.17882144999999 1530.1184931110004 L 89.84361815 1530.1184931110004 L 89.84361815 1415.7720700110003" stroke-miterlimit="10" stroke-width="1.3612669416666667" stroke-dasharray=""/><path fill="crimson" stroke="black" paint-order="fill stroke markers" d=" M 653.3040294423176 1530.1184931110004 L 669.6392327423177 1530.1184931110004 L 669.6392327423177 1575.8570623510004 L 653.3040294423176 1575.8570623510004 L 653.3040294423176 1530.1184931110004" stroke-miterlimit="10" stroke-width="1.3612669416666667" stroke-dasharray=""/><path fill="coral" stroke="black" paint-order="fill stroke markers" d=" M 89.84361815 1575.8570623510004 L 106.17882144999999 1575.8570623510004 L 106.17882144999999 1621.5956315910005 L 89.84361815 1621.5956315910005 L 89.84361815 1575.8570623510004" stroke-miterlimit="10" stroke-width="1.3612669416666667" stroke-dasharray=""/><path fill="crimson" stroke="black" paint-order="fill stroke markers" d=" M 653.3040294423176 1621.5956315910005 L 669.6392327423177 1621.5956315910005 L 669.6392327423177 1667.3342008310005 L 653.3040294423176 1667.3342008310005 L 653.3040294423176 1621.5956315910005" stroke-miterlimit="10" stroke-width="1.3612669416666667" stroke-dasharray=""/><path fill="coral" stroke="black" paint-order="fill stroke markers" d=" M 89.84361815 1667.3342008310005 L 106.17882144999999 1667.3342008310005 L 106.17882144999999 1781.6806239310006 L 89.84361815 1781.6806239310006 L 89.84361815 1667.3342008310005" stroke-miterlimit="10" stroke-width="1.3612669416666667" stroke-dasharray=""/><path fill="crimson" stroke="black" paint-order="fill stroke markers" d=" M 653.3040294423176 1781.6806239310006 L 669.6392327423177 1781.6806239310006 L 669.6392327423177 1827.4191931710006 L 653.3040294423176 1827.4191931710006 L 653.3040294423176 1781.6806239310006" stroke-miterlimit="10" stroke-width="1.3612669416666667" stroke-dasharray=""/><path fill="coral" stroke="black" paint-order="fill stroke markers" d=" M 89.84361815 1827.4191931710006 L 106.17882144999999 1827.4191931710006 L 106.17882144999999 1873.1577624110007 L 89.84361815 1873.1577624110007 L 89.84361815 1827.4191931710006" stroke-miterlimit="10" stroke-width="1.3612669416666667" stroke-dasharray=""/><path fill="crimson" stroke="black" paint-order="fill stroke markers" d=" M 653.3040294423176 1873.1577624110007 L 669.6392327423177 1873.1577624110007 L 669.6392327423177 1918.8963316510008 L 653.3040294423176 1918.8963316510008 L 653.3040294423176 1873.1577624110007" stroke-miterlimit="10" stroke-width="1.3612669416666667" stroke-dasharray=""/><path fill="coral" stroke="black" paint-order="fill stroke markers" d=" M 89.84361815 1918.8963316510008 L 106.17882144999999 1918.8963316510008 L 106.17882144999999 2033.2427547510008 L 89.84361815 2033.2427547510008 L 89.84361815 1918.8963316510008" stroke-miterlimit="10" stroke-width="1.3612669416666667" stroke-dasharray=""/><path fill="crimson" stroke="black" paint-order="fill stroke markers" d=" M 653.3040294423176 2033.2427547510008 L 669.6392327423177 2033.2427547510008 L 669.6392327423177 2078.981323991001 L 653.3040294423176 2078.981323991001 L 653.3040294423176 2033.2427547510008" stroke-miterlimit="10" stroke-width="1.3612669416666667" stroke-dasharray=""/><path fill="coral" stroke="black" paint-order="fill stroke markers" d=" M 89.84361815 2078.981323991001 L 106.17882144999999 2078.981323991001 L 106.17882144999999 2124.7198932310007 L 89.84361815 2124.7198932310007 L 89.84361815 2078.981323991001" stroke-miterlimit="10" stroke-width="1.3612669416666667" stroke-dasharray=""/><path fill="crimson" stroke="black" paint-order="fill stroke markers" d=" M 653.3040294423176 2124.7198932310007 L 669.6392327423177 2124.7198932310007 L 669.6392327423177 2170.4584624710005 L 653.3040294423176 2170.4584624710005 L 653.3040294423176 2124.7198932310007" stroke-miterlimit="10" stroke-width="1.3612669416666667" stroke-dasharray=""/><path fill="coral" stroke="black" paint-order="fill stroke markers" d=" M 89.84361815 2170.4584624710005 L 106.17882144999999 2170.4584624710005 L 106.17882144999999 2284.8048855710003 L 89.84361815 2284.8048855710003 L 89.84361815 2170.4584624710005" stroke-miterlimit="10" stroke-width="1.3612669416666667" stroke-dasharray=""/><path fill="crimson" stroke="black" paint-order="fill stroke markers" d=" M 653.3040294423176 2284.8048855710003 L 669.6392327423177 2284.8048855710003 L 669.6392327423177 2330.543454811 L 653.3040294423176 2330.543454811 L 653.3040294423176 2284.8048855710003" stroke-miterlimit="10" stroke-width="1.3612669416666667" stroke-dasharray=""/><path fill="coral" stroke="black" paint-order="fill stroke markers" d=" M 89.84361815 2330.543454811 L 106.17882144999999 2330.543454811 L 106.17882144999999 2376.282024051 L 89.84361815 2376.282024051 L 89.84361815 2330.543454811" stroke-miterlimit="10" stroke-width="1.3612669416666667" stroke-dasharray=""/><path fill="crimson" stroke="black" paint-order="fill stroke markers" d=" M 653.3040294423176 2376.282024051 L 669.6392327423177 2376.282024051 L 669.6392327423177 2422.020593291 L 653.3040294423176 2422.020593291 L 653.3040294423176 2376.282024051" stroke-miterlimit="10" stroke-width="1.3612669416666667" stroke-dasharray=""/><path fill="coral" stroke="black" paint-order="fill stroke markers" d=" M 89.84361815 2422.020593291 L 106.17882144999999 2422.020593291 L 106.17882144999999 2536.3670163909997 L 89.84361815 2536.3670163909997 L 89.84361815 2422.020593291" stroke-miterlimit="10" stroke-width="1.3612669416666667" stroke-dasharray=""/><path fill="crimson" stroke="black" paint-order="fill stroke markers" d=" M 653.3040294423176 2536.3670163909997 L 669.6392327423177 2536.3670163909997 L 669.6392327423177 2582.1055856309995 L 653.3040294423176 2582.1055856309995 L 653.3040294423176 2536.3670163909997" stroke-miterlimit="10" stroke-width="1.3612669416666667" stroke-dasharray=""/><path fill="coral" stroke="black" paint-order="fill stroke markers" d=" M 89.84361815 2582.1055856309995 L 106.17882144999999 2582.1055856309995 L 106.17882144999999 2627.8441548709993 L 89.84361815 2627.8441548709993 L 89.84361815 2582.1055856309995" stroke-miterlimit="10" stroke-width="1.3612669416666667" stroke-dasharray=""/><path fill="crimson" stroke="black" paint-order="fill stroke markers" d=" M 653.3040294423176 2627.8441548709993 L 669.6392327423177 2627.8441548709993 L 669.6392327423177 2673.582724110999 L 653.3040294423176 2673.582724110999 L 653.3040294423176 2627.8441548709993" stroke-miterlimit="10" stroke-width="1.3612669416666667" stroke-dasharray=""/><path fill="coral" stroke="black" paint-order="fill stroke markers" d=" M 89.84361815 2673.582724110999 L 106.17882144999999 2673.582724110999 L 106.17882144999999 2921.877814270999 L 89.84361815 2921.877814270999 L 89.84361815 2673.582724110999" stroke-miterlimit="10" stroke-width="1.3612669416666667" stroke-dasharray=""/><path fill="blue" stroke="black" paint-order="fill stroke markers" d=" M 98.01121979999999 2740.557057640999 L 114.34642309999998 2740.557057640999 L 114.34642309999998 2751.991699950999 L 98.01121979999999 2751.991699950999 L 98.01121979999999 2740.557057640999" stroke-miterlimit="10" stroke-width="1.3612669416666667" stroke-dasharray=""/><path fill="coral" stroke="black" paint-order="fill stroke markers" d=" M 98.01121979999999 2807.531391170999 L 114.34642309999998 2807.531391170999 L 114.34642309999998 2818.966033480999 L 98.01121979999999 2818.966033480999 L 98.01121979999999 2807.531391170999" stroke-miterlimit="10" stroke-width="1.3612669416666667" stroke-dasharray=""/><path fill="crimson" stroke="black" paint-order="fill stroke markers" d=" M 653.3040294423176 2921.877814270999 L 669.6392327423177 2921.877814270999 L 669.6392327423177 2967.6163835109987 L 653.3040294423176 2967.6163835109987 L 653.3040294423176 2921.877814270999" stroke-miterlimit="10" stroke-width="1.3612669416666667" stroke-dasharray=""/><path fill="coral" stroke="black" paint-order="fill stroke markers" d=" M 89.84361815 2967.6163835109987 L 106.17882144999999 2967.6163835109987 L 106.17882144999999 3099.9315302409987 L 89.84361815 3099.9315302409987 L 89.84361815 2967.6163835109987" stroke-miterlimit="10" stroke-width="1.3612669416666667" stroke-dasharray=""/><path fill="crimson" stroke="black" paint-order="fill stroke markers" d=" M 653.3040294423176 3099.9315302409987 L 669.6392327423177 3099.9315302409987 L 669.6392327423177 3145.6700994809985 L 653.3040294423176 3145.6700994809985 L 653.3040294423176 3099.9315302409987" stroke-miterlimit="10" stroke-width="1.3612669416666667" stroke-dasharray=""/><path fill="coral" stroke="black" paint-order="fill stroke markers" d=" M 89.84361815 3145.6700994809985 L 106.17882144999999 3145.6700994809985 L 106.17882144999999 3191.4086687209983 L 89.84361815 3191.4086687209983 L 89.84361815 3145.6700994809985" stroke-miterlimit="10" stroke-width="1.3612669416666667" stroke-dasharray=""/><path fill="crimson" stroke="black" paint-order="fill stroke markers" d=" M 653.3040294423176 3191.4086687209983 L 669.6392327423177 3191.4086687209983 L 669.6392327423177 3237.147237960998 L 653.3040294423176 3237.147237960998 L 653.3040294423176 3191.4086687209983" stroke-miterlimit="10" stroke-width="1.3612669416666667" stroke-dasharray=""/><path fill="coral" stroke="black" paint-order="fill stroke markers" d=" M 89.84361815 3237.147237960998 L 106.17882144999999 3237.147237960998 L 106.17882144999999 3282.885807200998 L 89.84361815 3282.885807200998 L 89.84361815 3237.147237960998" stroke-miterlimit="10" stroke-width="1.3612669416666667" stroke-dasharray=""/><path fill="crimson" stroke="black" paint-order="fill stroke markers" d=" M 653.3040294423176 3282.885807200998 L 669.6392327423177 3282.885807200998 L 669.6392327423177 3328.624376440998 L 653.3040294423176 3328.624376440998 L 653.3040294423176 3282.885807200998" stroke-miterlimit="10" stroke-width="1.3612669416666667" stroke-dasharray=""/><path fill="coral" stroke="black" paint-order="fill stroke markers" d=" M 89.84361815 3328.624376440998 L 106.17882144999999 3328.624376440998 L 106.17882144999999 3393.965189640998 L 89.84361815 3393.965189640998 L 89.84361815 3328.624376440998" stroke-miterlimit="10" stroke-width="1.3612669416666667" stroke-dasharray=""/><g><g><rect fill="white" stroke="none" x="335.3262477953971" y="128.558049971" width="88.83035530152344" height="21.23576429"/></g><text fill="black" stroke="none" font-family="sans-serif" font-size="11pt" font-style="normal" font-weight="normal" text-decoration="normal" x="337.7765282903971" y="143.259732941" text-anchor="start" dominant-baseline="alphabetic" xml:space="preserve">parseBegin()</text></g><g><path fill="none" stroke="black" paint-order="fill stroke markers" d=" M 106.17882144999999 149.793814261 L 639.854712058651 149.793814261" stroke-miterlimit="10" stroke-width="1.3612669416666667" stroke-dasharray=""/><g transform="translate(653.3040294423176,149.793814261) translate(-653.3040294423176,-149.793814261)"><path fill="black" stroke="none" paint-order="stroke fill markers" d=" M 639.691360025651 142.98747955266666 L 653.3040294423176 149.793814261 L 639.691360025651 156.60014896933333 Z"/></g></g><g><g><rect fill="white" stroke="none" x="342.2482067187369" y="174.296619211" width="74.98643745484375" height="21.23576429"/></g><text fill="black" stroke="none" font-family="sans-serif" font-size="11pt" font-style="normal" font-weight="normal" text-decoration="normal" x="344.69848721373694" y="188.99830218099999" text-anchor="start" dominant-baseline="alphabetic" xml:space="preserve">bytesRead</text></g><g><path fill="none" stroke="black" paint-order="fill stroke markers" d=" M 653.3040294423176 195.532383501 L 119.62813883366665 195.532383501" stroke-miterlimit="10" stroke-width="1.3612669416666667" stroke-dasharray="6.53408132"/><g transform="translate(106.17882144999999,195.532383501) translate(-106.17882144999999,-195.532383501)"><path fill="black" stroke="none" paint-order="stroke fill markers" d=" M 119.79149086666665 188.72604879266666 L 106.17882144999999 195.532383501 L 119.79149086666665 202.33871820933334 Z"/></g></g><g><g><rect fill="white" stroke="none" x="315.77721367674474" y="220.035188451" width="127.92842353882813" height="21.23576429"/></g><text fill="black" stroke="none" font-family="sans-serif" font-size="11pt" font-style="normal" font-weight="normal" text-decoration="normal" x="318.22749417174475" y="234.736871421" text-anchor="start" dominant-baseline="alphabetic" xml:space="preserve">is XML Declaration</text></g><g><path fill="none" stroke="black" paint-order="fill stroke markers" d=" M 106.17882144999999 241.270952741 L 639.854712058651 241.270952741" stroke-miterlimit="10" stroke-width="1.3612669416666667" stroke-dasharray=""/><g transform="translate(653.3040294423176,241.270952741) translate(-653.3040294423176,-241.270952741)"><path fill="black" stroke="none" paint-order="stroke fill markers" d=" M 639.691360025651 234.46461803266666 L 653.3040294423176 241.270952741 L 639.691360025651 248.07728744933334 Z"/></g></g><g><g><rect fill="white" stroke="none" x="364.66051445799474" y="265.77375769099996" width="30.161821976328124" height="21.23576429"/></g><text fill="black" stroke="none" font-family="sans-serif" font-size="11pt" font-style="normal" font-weight="normal" text-decoration="normal" x="367.11079495299475" y="280.47544066099994" text-anchor="start" dominant-baseline="alphabetic" xml:space="preserve">true</text></g><g><path fill="none" stroke="black" paint-order="fill stroke markers" d=" M 653.3040294423176 287.009521981 L 119.62813883366665 287.009521981" stroke-miterlimit="10" stroke-width="1.3612669416666667" stroke-dasharray="6.53408132"/><g transform="translate(106.17882144999999,287.009521981) translate(-106.17882144999999,-287.009521981)"><path fill="black" stroke="none" paint-order="stroke fill markers" d=" M 119.79149086666665 280.20318727266664 L 106.17882144999999 287.009521981 L 119.79149086666665 293.8158566893333 Z"/></g></g><g><g><rect fill="white" stroke="none" x="254.66056786375648" y="355.61737584099996" width="250.1617151648047" height="21.23576429"/></g><text fill="black" stroke="none" font-family="sans-serif" font-size="11pt" font-style="normal" font-weight="normal" text-decoration="normal" x="257.11084835875647" y="370.31905881099993" text-anchor="start" dominant-baseline="alphabetic" xml:space="preserve">parseXMLDeclaration(content: String)</text></g><g><path fill="none" stroke="black" paint-order="fill stroke markers" d=" M 106.17882144999999 376.853140131 L 639.854712058651 376.853140131" stroke-miterlimit="10" stroke-width="1.3612669416666667" stroke-dasharray=""/><g transform="translate(653.3040294423176,376.853140131) translate(-653.3040294423176,-376.853140131)"><path fill="black" stroke="none" paint-order="stroke fill markers" d=" M 639.691360025651 370.04680542266664 L 653.3040294423176 376.853140131 L 639.691360025651 383.6594748393333 Z"/></g></g><g><g><rect fill="white" stroke="none" x="688.9692233139845" y="401.355945081" width="194.76443733277344" height="21.23576429"/></g><text fill="black" stroke="none" font-family="sans-serif" font-size="11pt" font-style="normal" font-weight="normal" text-decoration="normal" x="691.4195038089845" y="416.057628051" text-anchor="start" dominant-baseline="alphabetic" xml:space="preserve">parseVersion(content: String)</text></g><g><path fill="none" stroke="black" paint-order="fill stroke markers" d=" M 669.6392327423177 422.591709371 L 734.9800459423177 422.591709371 L 734.9800459423177 443.827473661 L 683.0885501259844 443.827473661" stroke-miterlimit="10" stroke-width="1.3612669416666667" stroke-dasharray=""/><g transform="translate(669.6392327423177,443.827473661) translate(-669.6392327423177,-443.827473661)"><path fill="black" stroke="none" paint-order="stroke fill markers" d=" M 683.2519021589844 437.02113895266666 L 669.6392327423177 443.827473661 L 683.2519021589844 450.63380836933334 Z"/></g></g><g><g><rect fill="white" stroke="none" x="688.9692233139845" y="468.330278611" width="307.262621536875" height="21.23576429"/></g><text fill="black" stroke="none" font-family="sans-serif" font-size="11pt" font-style="normal" font-weight="normal" text-decoration="normal" x="691.4195038089845" y="483.03196158099996" text-anchor="start" dominant-baseline="alphabetic" xml:space="preserve">parseEncodingAndStandalone(content: String)</text></g><g><path fill="none" stroke="black" paint-order="fill stroke markers" d=" M 669.6392327423177 489.56604290099995 L 734.9800459423177 489.56604290099995 L 734.9800459423177 510.80180719099997 L 683.0885501259844 510.80180719099997" stroke-miterlimit="10" stroke-width="1.3612669416666667" stroke-dasharray=""/><g transform="translate(669.6392327423177,510.80180719099997) translate(-669.6392327423177,-510.80180719099997)"><path fill="black" stroke="none" paint-order="stroke fill markers" d=" M 683.2519021589844 503.9954724826666 L 669.6392327423177 510.80180719099997 L 683.2519021589844 517.6081418993333 Z"/></g></g><g><g><rect fill="white" stroke="none" x="377.2911449511588" y="535.3046121409999" width="4.90056099" height="21.23576429"/></g><text fill="black" stroke="none" font-family="sans-serif" font-size="11pt" font-style="normal" font-weight="normal" text-decoration="normal" x="379.7414254461588" y="550.0062951109999" text-anchor="start" dominant-baseline="alphabetic" xml:space="preserve"></text></g><g><path fill="none" stroke="black" paint-order="fill stroke markers" d=" M 653.3040294423176 556.5403764309999 L 119.62813883366665 556.5403764309999" stroke-miterlimit="10" stroke-width="1.3612669416666667" stroke-dasharray=""/><g transform="translate(106.17882144999999,556.5403764309999) translate(-106.17882144999999,-556.5403764309999)"><path fill="black" stroke="none" paint-order="stroke fill markers" d=" M 119.79149086666665 549.7340417226666 L 106.17882144999999 556.5403764309999 L 119.79149086666665 563.3467111393333 Z"/></g></g><g><g><rect fill="white" stroke="none" x="334.5280834277213" y="605.5459863309999" width="90.426684036875" height="21.23576429"/></g><text fill="black" stroke="none" font-family="sans-serif" font-size="11pt" font-style="normal" font-weight="normal" text-decoration="normal" x="336.9783639227213" y="620.2476693009999" text-anchor="start" dominant-baseline="alphabetic" xml:space="preserve">is DOCTYPE</text></g><g><path fill="none" stroke="black" paint-order="fill stroke markers" d=" M 106.17882144999999 626.7817506209999 L 639.854712058651 626.7817506209999" stroke-miterlimit="10" stroke-width="1.3612669416666667" stroke-dasharray=""/><g transform="translate(653.3040294423176,626.7817506209999) translate(-653.3040294423176,-626.7817506209999)"><path fill="black" stroke="none" paint-order="stroke fill markers" d=" M 639.691360025651 619.9754159126666 L 653.3040294423176 626.7817506209999 L 639.691360025651 633.5880853293332 Z"/></g></g><g><g><rect fill="white" stroke="none" x="362.6240078051627" y="651.2845555709998" width="34.23483528199219" height="21.23576429"/></g><text fill="black" stroke="none" font-family="sans-serif" font-size="11pt" font-style="normal" font-weight="normal" text-decoration="normal" x="365.0742883001627" y="665.9862385409998" text-anchor="start" dominant-baseline="alphabetic" xml:space="preserve">true </text></g><g><path fill="none" stroke="black" paint-order="fill stroke markers" d=" M 653.3040294423176 672.5203198609998 L 119.62813883366665 672.5203198609998" stroke-miterlimit="10" stroke-width="1.3612669416666667" stroke-dasharray="6.53408132"/><g transform="translate(106.17882144999999,672.5203198609998) translate(-106.17882144999999,-672.5203198609998)"><path fill="black" stroke="none" paint-order="stroke fill markers" d=" M 119.79149086666665 665.7139851526665 L 106.17882144999999 672.5203198609998 L 119.79149086666665 679.3266545693332 Z"/></g></g><g><g><rect fill="white" stroke="none" x="271.374930961901" y="741.1281737209997" width="216.73298896851563" height="21.23576429"/></g><text fill="black" stroke="none" font-family="sans-serif" font-size="11pt" font-style="normal" font-weight="normal" text-decoration="normal" x="273.825211456901" y="755.8298566909997" text-anchor="start" dominant-baseline="alphabetic" xml:space="preserve">parseDOCTYPE(content: String)</text></g><g><path fill="none" stroke="black" paint-order="fill stroke markers" d=" M 106.17882144999999 762.3639380109997 L 639.854712058651 762.3639380109997" stroke-miterlimit="10" stroke-width="1.3612669416666667" stroke-dasharray=""/><g transform="translate(653.3040294423176,762.3639380109997) translate(-653.3040294423176,-762.3639380109997)"><path fill="black" stroke="none" paint-order="stroke fill markers" d=" M 639.691360025651 755.5576033026664 L 653.3040294423176 762.3639380109997 L 639.691360025651 769.1702727193331 Z"/></g></g><g><g><rect fill="white" stroke="none" x="377.2911449511588" y="786.8667429609997" width="4.90056099" height="21.23576429"/></g><text fill="black" stroke="none" font-family="sans-serif" font-size="11pt" font-style="normal" font-weight="normal" text-decoration="normal" x="379.7414254461588" y="801.5684259309996" text-anchor="start" dominant-baseline="alphabetic" xml:space="preserve"></text></g><g><path fill="none" stroke="black" paint-order="fill stroke markers" d=" M 653.3040294423176 808.1025072509997 L 119.62813883366665 808.1025072509997" stroke-miterlimit="10" stroke-width="1.3612669416666667" stroke-dasharray=""/><g transform="translate(106.17882144999999,808.1025072509997) translate(-106.17882144999999,-808.1025072509997)"><path fill="black" stroke="none" paint-order="stroke fill markers" d=" M 119.79149086666665 801.2961725426663 L 106.17882144999999 808.1025072509997 L 119.79149086666665 814.908841959333 Z"/></g></g><path fill="white" stroke="black" paint-order="fill stroke markers" d=" M 106.17882144999999 875.8936009459998 L 114.34642309999998 875.8936009459998 M 114.34642309999998 857.1081171509998 L 252.14775944324217 857.1081171509998 L 266.8494424132422 871.8098001209997 L 266.8494424132422 894.6790847409998 L 114.34642309999998 894.6790847409998 L 114.34642309999998 857.1081171509998 M 252.14775944324217 857.1081171509998 L 252.14775944324217 871.8098001209997 L 266.8494424132422 871.8098001209997" stroke-miterlimit="10" stroke-width="1.3612669416666667" stroke-dasharray=""/><g><text fill="black" stroke="none" font-family="sans-serif" font-size="11pt" font-style="normal" font-weight="normal" text-decoration="normal" x="137.21570771999998" y="879.9774017709998" text-anchor="start" dominant-baseline="alphabetic" xml:space="preserve">Begin while loop</text></g><g><g><rect fill="white" stroke="none" x="133.67641367166667" y="963.2869386009997" width="233.06793464722656" height="21.23576429"/></g><text fill="black" stroke="none" font-family="sans-serif" font-size="11pt" font-style="normal" font-weight="normal" text-decoration="normal" x="136.12669416666665" y="977.9886215709997" text-anchor="start" dominant-baseline="alphabetic" xml:space="preserve">refill content preserve unprocessed</text></g><g><path fill="none" stroke="black" paint-order="fill stroke markers" d=" M 106.17882144999999 984.5227028909998 L 179.6872363 984.5227028909998 L 179.6872363 1005.7584671809998 L 127.79574048366666 1005.7584671809998" stroke-miterlimit="10" stroke-width="1.3612669416666667" stroke-dasharray=""/><g transform="translate(114.3464231,1005.7584671809998) translate(-114.3464231,-1005.7584671809998)"><path fill="black" stroke="none" paint-order="stroke fill markers" d=" M 127.95909251666666 998.9521324726664 L 114.3464231 1005.7584671809998 L 127.95909251666666 1012.5648018893331 Z"/></g></g><g><g><rect fill="white" stroke="none" x="362.2732692797721" y="1074.366321041" width="34.93631233277344" height="21.23576429"/></g><text fill="black" stroke="none" font-family="sans-serif" font-size="11pt" font-style="normal" font-weight="normal" text-decoration="normal" x="364.7235497747721" y="1089.068004011" text-anchor="start" dominant-baseline="alphabetic" xml:space="preserve">is '&amp;'</text></g><g><path fill="none" stroke="black" paint-order="fill stroke markers" d=" M 106.17882144999999 1095.602085331 L 639.854712058651 1095.602085331" stroke-miterlimit="10" stroke-width="1.3612669416666667" stroke-dasharray=""/><g transform="translate(653.3040294423176,1095.602085331) translate(-653.3040294423176,-1095.602085331)"><path fill="black" stroke="none" paint-order="stroke fill markers" d=" M 639.691360025651 1088.7957506226667 L 653.3040294423176 1095.602085331 L 639.691360025651 1102.4084200393331 Z"/></g></g><g><g><rect fill="white" stroke="none" x="364.66051445799474" y="1120.104890281" width="30.161821976328124" height="21.23576429"/></g><text fill="black" stroke="none" font-family="sans-serif" font-size="11pt" font-style="normal" font-weight="normal" text-decoration="normal" x="367.11079495299475" y="1134.8065732510001" text-anchor="start" dominant-baseline="alphabetic" xml:space="preserve">true</text></g><g><path fill="none" stroke="black" paint-order="fill stroke markers" d=" M 653.3040294423176 1141.340654571 L 119.62813883366665 1141.340654571" stroke-miterlimit="10" stroke-width="1.3612669416666667" stroke-dasharray="6.53408132"/><g transform="translate(106.17882144999999,1141.340654571) translate(-106.17882144999999,-1141.340654571)"><path fill="black" stroke="none" paint-order="stroke fill markers" d=" M 119.79149086666665 1134.5343198626667 L 106.17882144999999 1141.340654571 L 119.79149086666665 1148.1469892793332 Z"/></g></g><g><g><rect fill="white" stroke="none" x="224.51026116209633" y="1165.843459521" width="310.462328568125" height="21.23576429"/></g><text fill="black" stroke="none" font-family="sans-serif" font-size="11pt" font-style="normal" font-weight="normal" text-decoration="normal" x="226.96054165709631" y="1180.5451424910002" text-anchor="start" dominant-baseline="alphabetic" xml:space="preserve">parseCharacterEntityReference(content:String)</text></g><g><path fill="none" stroke="black" paint-order="fill stroke markers" d=" M 106.17882144999999 1187.079223811 L 639.854712058651 1187.079223811" stroke-miterlimit="10" stroke-width="1.3612669416666667" stroke-dasharray=""/><g transform="translate(653.3040294423176,1187.079223811) translate(-653.3040294423176,-1187.079223811)"><path fill="black" stroke="none" paint-order="stroke fill markers" d=" M 639.691360025651 1180.2728891026668 L 653.3040294423176 1187.079223811 L 639.691360025651 1193.8855585193332 Z"/></g></g><g><g><rect fill="white" stroke="none" x="377.2911449511588" y="1211.5820287610002" width="4.90056099" height="21.23576429"/></g><text fill="black" stroke="none" font-family="sans-serif" font-size="11pt" font-style="normal" font-weight="normal" text-decoration="normal" x="379.7414254461588" y="1226.2837117310003" text-anchor="start" dominant-baseline="alphabetic" xml:space="preserve"></text></g><g><path fill="none" stroke="black" paint-order="fill stroke markers" d=" M 653.3040294423176 1232.817793051 L 119.62813883366665 1232.817793051" stroke-miterlimit="10" stroke-width="1.3612669416666667" stroke-dasharray=""/><g transform="translate(106.17882144999999,1232.817793051) translate(-106.17882144999999,-1232.817793051)"><path fill="black" stroke="none" paint-order="stroke fill markers" d=" M 119.79149086666665 1226.0114583426669 L 106.17882144999999 1232.817793051 L 119.79149086666665 1239.6241277593333 Z"/></g></g><g><g><rect fill="white" stroke="none" x="360.84520684080724" y="1257.3205980010002" width="37.79243721070313" height="21.23576429"/></g><text fill="black" stroke="none" font-family="sans-serif" font-size="11pt" font-style="normal" font-weight="normal" text-decoration="normal" x="363.29548733580725" y="1272.0222809710003" text-anchor="start" dominant-baseline="alphabetic" xml:space="preserve"> is '&lt;'</text></g><g><path fill="none" stroke="black" paint-order="fill stroke markers" d=" M 106.17882144999999 1278.5563622910001 L 639.854712058651 1278.5563622910001" stroke-miterlimit="10" stroke-width="1.3612669416666667" stroke-dasharray=""/><g transform="translate(653.3040294423176,1278.5563622910001) translate(-653.3040294423176,-1278.5563622910001)"><path fill="black" stroke="none" paint-order="stroke fill markers" d=" M 639.691360025651 1271.750027582667 L 653.3040294423176 1278.5563622910001 L 639.691360025651 1285.3626969993334 Z"/></g></g><g><g><rect fill="white" stroke="none" x="362.6240078051627" y="1303.0591672410003" width="34.23483528199219" height="21.23576429"/></g><text fill="black" stroke="none" font-family="sans-serif" font-size="11pt" font-style="normal" font-weight="normal" text-decoration="normal" x="365.0742883001627" y="1317.7608502110004" text-anchor="start" dominant-baseline="alphabetic" xml:space="preserve">true </text></g><g><path fill="none" stroke="black" paint-order="fill stroke markers" d=" M 653.3040294423176 1324.2949315310002 L 119.62813883366665 1324.2949315310002" stroke-miterlimit="10" stroke-width="1.3612669416666667" stroke-dasharray="6.53408132"/><g transform="translate(106.17882144999999,1324.2949315310002) translate(-106.17882144999999,-1324.2949315310002)"><path fill="black" stroke="none" paint-order="stroke fill markers" d=" M 119.79149086666665 1317.488596822667 L 106.17882144999999 1324.2949315310002 L 119.79149086666665 1331.1012662393334 Z"/></g></g><g><g><rect fill="white" stroke="none" x="213.10367546873695" y="1348.7977364810004" width="333.2754999548437" height="21.23576429"/></g><text fill="black" stroke="none" font-family="sans-serif" font-size="11pt" font-style="normal" font-weight="normal" text-decoration="normal" x="215.55395596373694" y="1363.4994194510004" text-anchor="start" dominant-baseline="alphabetic" xml:space="preserve">parseCharacterNotEntityReference(content:String)</text></g><g><path fill="none" stroke="black" paint-order="fill stroke markers" d=" M 106.17882144999999 1370.0335007710003 L 639.854712058651 1370.0335007710003" stroke-miterlimit="10" stroke-width="1.3612669416666667" stroke-dasharray=""/><g transform="translate(653.3040294423176,1370.0335007710003) translate(-653.3040294423176,-1370.0335007710003)"><path fill="black" stroke="none" paint-order="stroke fill markers" d=" M 639.691360025651 1363.227166062667 L 653.3040294423176 1370.0335007710003 L 639.691360025651 1376.8398354793335 Z"/></g></g><g><g><rect fill="white" stroke="none" x="343.07141075926427" y="1394.5363057210004" width="73.34002937378906" height="21.23576429"/></g><text fill="black" stroke="none" font-family="sans-serif" font-size="11pt" font-style="normal" font-weight="normal" text-decoration="normal" x="345.5216912542643" y="1409.2379886910005" text-anchor="start" dominant-baseline="alphabetic" xml:space="preserve">characters</text></g><g><path fill="none" stroke="black" paint-order="fill stroke markers" d=" M 653.3040294423176 1415.7720700110003 L 119.62813883366665 1415.7720700110003" stroke-miterlimit="10" stroke-width="1.3612669416666667" stroke-dasharray="6.53408132"/><g transform="translate(106.17882144999999,1415.7720700110003) translate(-106.17882144999999,-1415.7720700110003)"><path fill="black" stroke="none" paint-order="stroke fill markers" d=" M 119.79149086666665 1408.965735302667 L 106.17882144999999 1415.7720700110003 L 119.79149086666665 1422.5784047193335 Z"/></g></g><g><g><rect fill="white" stroke="none" x="321.08142052488927" y="1508.8827288210005" width="117.32000984253906" height="21.23576429"/></g><text fill="black" stroke="none" font-family="sans-serif" font-size="11pt" font-style="normal" font-weight="normal" text-decoration="normal" x="323.5317010198893" y="1523.5844117910005" text-anchor="start" dominant-baseline="alphabetic" xml:space="preserve">is XML Comment</text></g><g><path fill="none" stroke="black" paint-order="fill stroke markers" d=" M 106.17882144999999 1530.1184931110004 L 639.854712058651 1530.1184931110004" stroke-miterlimit="10" stroke-width="1.3612669416666667" stroke-dasharray=""/><g transform="translate(653.3040294423176,1530.1184931110004) translate(-653.3040294423176,-1530.1184931110004)"><path fill="black" stroke="none" paint-order="stroke fill markers" d=" M 639.691360025651 1523.3121584026671 L 653.3040294423176 1530.1184931110004 L 639.691360025651 1536.9248278193336 Z"/></g></g><g><g><rect fill="white" stroke="none" x="364.66051445799474" y="1554.6212980610005" width="30.161821976328124" height="21.23576429"/></g><text fill="black" stroke="none" font-family="sans-serif" font-size="11pt" font-style="normal" font-weight="normal" text-decoration="normal" x="367.11079495299475" y="1569.3229810310006" text-anchor="start" dominant-baseline="alphabetic" xml:space="preserve">true</text></g><g><path fill="none" stroke="black" paint-order="fill stroke markers" d=" M 653.3040294423176 1575.8570623510004 L 119.62813883366665 1575.8570623510004" stroke-miterlimit="10" stroke-width="1.3612669416666667" stroke-dasharray="6.53408132"/><g transform="translate(106.17882144999999,1575.8570623510004) translate(-106.17882144999999,-1575.8570623510004)"><path fill="black" stroke="none" paint-order="stroke fill markers" d=" M 119.79149086666665 1569.0507276426672 L 106.17882144999999 1575.8570623510004 L 119.79149086666665 1582.6633970593336 Z"/></g></g><g><g><rect fill="white" stroke="none" x="213.49378166990883" y="1600.3598673010006" width="332.4952875525" height="21.23576429"/></g><text fill="black" stroke="none" font-family="sans-serif" font-size="11pt" font-style="normal" font-weight="normal" text-decoration="normal" x="215.94406216490881" y="1615.0615502710007" text-anchor="start" dominant-baseline="alphabetic" xml:space="preserve">parseComment(content:String, doneReading:bool)</text></g><g><path fill="none" stroke="black" paint-order="fill stroke markers" d=" M 106.17882144999999 1621.5956315910005 L 639.854712058651 1621.5956315910005" stroke-miterlimit="10" stroke-width="1.3612669416666667" stroke-dasharray=""/><g transform="translate(653.3040294423176,1621.5956315910005) translate(-653.3040294423176,-1621.5956315910005)"><path fill="black" stroke="none" paint-order="stroke fill markers" d=" M 639.691360025651 1614.7892968826673 L 653.3040294423176 1621.5956315910005 L 639.691360025651 1628.4019662993337 Z"/></g></g><g><g><rect fill="white" stroke="none" x="292.52738915281896" y="1646.0984365410006" width="174.4280725866797" height="21.23576429"/></g><text fill="black" stroke="none" font-family="sans-serif" font-size="11pt" font-style="normal" font-weight="normal" text-decoration="normal" x="294.97766964781897" y="1660.8001195110007" text-anchor="start" dominant-baseline="alphabetic" xml:space="preserve">bytesRead , doneReading</text></g><g><path fill="none" stroke="black" paint-order="fill stroke markers" d=" M 653.3040294423176 1667.3342008310005 L 119.62813883366665 1667.3342008310005" stroke-miterlimit="10" stroke-width="1.3612669416666667" stroke-dasharray="6.53408132"/><g transform="translate(106.17882144999999,1667.3342008310005) translate(-106.17882144999999,-1667.3342008310005)"><path fill="black" stroke="none" paint-order="stroke fill markers" d=" M 119.79149086666665 1660.5278661226673 L 106.17882144999999 1667.3342008310005 L 119.79149086666665 1674.1405355393338 Z"/></g></g><g><g><rect fill="white" stroke="none" x="346.20667992430333" y="1760.4448596410007" width="67.06949104371094" height="21.23576429"/></g><text fill="black" stroke="none" font-family="sans-serif" font-size="11pt" font-style="normal" font-weight="normal" text-decoration="normal" x="348.65696041930335" y="1775.1465426110008" text-anchor="start" dominant-baseline="alphabetic" xml:space="preserve">is CDATA</text></g><g><path fill="none" stroke="black" paint-order="fill stroke markers" d=" M 106.17882144999999 1781.6806239310006 L 639.854712058651 1781.6806239310006" stroke-miterlimit="10" stroke-width="1.3612669416666667" stroke-dasharray=""/><g transform="translate(653.3040294423176,1781.6806239310006) translate(-653.3040294423176,-1781.6806239310006)"><path fill="black" stroke="none" paint-order="stroke fill markers" d=" M 639.691360025651 1774.8742892226674 L 653.3040294423176 1781.6806239310006 L 639.691360025651 1788.4869586393338 Z"/></g></g><g><g><rect fill="white" stroke="none" x="364.66051445799474" y="1806.1834288810007" width="30.161821976328124" height="21.23576429"/></g><text fill="black" stroke="none" font-family="sans-serif" font-size="11pt" font-style="normal" font-weight="normal" text-decoration="normal" x="367.11079495299475" y="1820.8851118510008" text-anchor="start" dominant-baseline="alphabetic" xml:space="preserve">true</text></g><g><path fill="none" stroke="black" paint-order="fill stroke markers" d=" M 653.3040294423176 1827.4191931710006 L 119.62813883366665 1827.4191931710006" stroke-miterlimit="10" stroke-width="1.3612669416666667" stroke-dasharray="6.53408132"/><g transform="translate(106.17882144999999,1827.4191931710006) translate(-106.17882144999999,-1827.4191931710006)"><path fill="black" stroke="none" paint-order="stroke fill markers" d=" M 119.79149086666665 1820.6128584626674 L 106.17882144999999 1827.4191931710006 L 119.79149086666665 1834.2255278793339 Z"/></g></g><g><g><rect fill="white" stroke="none" x="221.5109630663932" y="1851.9219981210008" width="316.4609247595312" height="21.23576429"/></g><text fill="black" stroke="none" font-family="sans-serif" font-size="11pt" font-style="normal" font-weight="normal" text-decoration="normal" x="223.9612435613932" y="1866.623681091001" text-anchor="start" dominant-baseline="alphabetic" xml:space="preserve">parseCDATA(content:String, doneReading:bool)</text></g><g><path fill="none" stroke="black" paint-order="fill stroke markers" d=" M 106.17882144999999 1873.1577624110007 L 639.854712058651 1873.1577624110007" stroke-miterlimit="10" stroke-width="1.3612669416666667" stroke-dasharray=""/><g transform="translate(653.3040294423176,1873.1577624110007) translate(-653.3040294423176,-1873.1577624110007)"><path fill="black" stroke="none" paint-order="stroke fill markers" d=" M 639.691360025651 1866.3514277026675 L 653.3040294423176 1873.1577624110007 L 639.691360025651 1879.964097119334 Z"/></g></g><g><g><rect fill="white" stroke="none" x="259.1272731860221" y="1897.6605673610009" width="241.22830452027344" height="21.23576429"/></g><text fill="black" stroke="none" font-family="sans-serif" font-size="11pt" font-style="normal" font-weight="normal" text-decoration="normal" x="261.5775536810221" y="1912.362250331001" text-anchor="start" dominant-baseline="alphabetic" xml:space="preserve">totalBytes, characters, doneReading</text></g><g><path fill="none" stroke="black" paint-order="fill stroke markers" d=" M 653.3040294423176 1918.8963316510008 L 119.62813883366665 1918.8963316510008" stroke-miterlimit="10" stroke-width="1.3612669416666667" stroke-dasharray="6.53408132"/><g transform="translate(106.17882144999999,1918.8963316510008) translate(-106.17882144999999,-1918.8963316510008)"><path fill="black" stroke="none" paint-order="stroke fill markers" d=" M 119.79149086666665 1912.0899969426675 L 106.17882144999999 1918.8963316510008 L 119.79149086666665 1925.702666359334 Z"/></g></g><g><g><rect fill="white" stroke="none" x="363.0857235034049" y="2012.006990461001" width="33.311403885507815" height="21.23576429"/></g><text fill="black" stroke="none" font-family="sans-serif" font-size="11pt" font-style="normal" font-weight="normal" text-decoration="normal" x="365.5360039984049" y="2026.708673431001" text-anchor="start" dominant-baseline="alphabetic" xml:space="preserve">is '?'</text></g><g><path fill="none" stroke="black" paint-order="fill stroke markers" d=" M 106.17882144999999 2033.2427547510008 L 639.854712058651 2033.2427547510008" stroke-miterlimit="10" stroke-width="1.3612669416666667" stroke-dasharray=""/><g transform="translate(653.3040294423176,2033.2427547510008) translate(-653.3040294423176,-2033.2427547510008)"><path fill="black" stroke="none" paint-order="stroke fill markers" d=" M 639.691360025651 2026.4364200426676 L 653.3040294423176 2033.2427547510008 L 639.691360025651 2040.049089459334 Z"/></g></g><g><g><rect fill="white" stroke="none" x="364.66051445799474" y="2057.7455597010007" width="30.161821976328124" height="21.23576429"/></g><text fill="black" stroke="none" font-family="sans-serif" font-size="11pt" font-style="normal" font-weight="normal" text-decoration="normal" x="367.11079495299475" y="2072.447242671001" text-anchor="start" dominant-baseline="alphabetic" xml:space="preserve">true</text></g><g><path fill="none" stroke="black" paint-order="fill stroke markers" d=" M 653.3040294423176 2078.981323991001 L 119.62813883366665 2078.981323991001" stroke-miterlimit="10" stroke-width="1.3612669416666667" stroke-dasharray="6.53408132"/><g transform="translate(106.17882144999999,2078.981323991001) translate(-106.17882144999999,-2078.981323991001)"><path fill="black" stroke="none" paint-order="stroke fill markers" d=" M 119.79149086666665 2072.1749892826674 L 106.17882144999999 2078.981323991001 L 119.79149086666665 2085.7876586993343 Z"/></g></g><g><g><rect fill="white" stroke="none" x="272.5846935351432" y="2103.4841289410006" width="214.31346382203125" height="21.23576429"/></g><text fill="black" stroke="none" font-family="sans-serif" font-size="11pt" font-style="normal" font-weight="normal" text-decoration="normal" x="275.0349740301432" y="2118.1858119110007" text-anchor="start" dominant-baseline="alphabetic" xml:space="preserve">parseProcessing(content:String)</text></g><g><path fill="none" stroke="black" paint-order="fill stroke markers" d=" M 106.17882144999999 2124.7198932310007 L 639.854712058651 2124.7198932310007" stroke-miterlimit="10" stroke-width="1.3612669416666667" stroke-dasharray=""/><g transform="translate(653.3040294423176,2124.7198932310007) translate(-653.3040294423176,-2124.7198932310007)"><path fill="black" stroke="none" paint-order="stroke fill markers" d=" M 639.691360025651 2117.9135585226672 L 653.3040294423176 2124.7198932310007 L 639.691360025651 2131.526227939334 Z"/></g></g><g><g><rect fill="white" stroke="none" x="377.2911449511588" y="2149.2226981810004" width="4.90056099" height="21.23576429"/></g><text fill="black" stroke="none" font-family="sans-serif" font-size="11pt" font-style="normal" font-weight="normal" text-decoration="normal" x="379.7414254461588" y="2163.9243811510005" text-anchor="start" dominant-baseline="alphabetic" xml:space="preserve"></text></g><g><path fill="none" stroke="black" paint-order="fill stroke markers" d=" M 653.3040294423176 2170.4584624710005 L 119.62813883366665 2170.4584624710005" stroke-miterlimit="10" stroke-width="1.3612669416666667" stroke-dasharray=""/><g transform="translate(106.17882144999999,2170.4584624710005) translate(-106.17882144999999,-2170.4584624710005)"><path fill="black" stroke="none" paint-order="stroke fill markers" d=" M 119.79149086666665 2163.652127762667 L 106.17882144999999 2170.4584624710005 L 119.79149086666665 2177.264797179334 Z"/></g></g><g><g><rect fill="white" stroke="none" x="365.1258083422721" y="2263.569121281" width="29.231234207773436" height="21.23576429"/></g><text fill="black" stroke="none" font-family="sans-serif" font-size="11pt" font-style="normal" font-weight="normal" text-decoration="normal" x="367.5760888372721" y="2278.2708042510003" text-anchor="start" dominant-baseline="alphabetic" xml:space="preserve">is '/'</text></g><g><path fill="none" stroke="black" paint-order="fill stroke markers" d=" M 106.17882144999999 2284.8048855710003 L 639.854712058651 2284.8048855710003" stroke-miterlimit="10" stroke-width="1.3612669416666667" stroke-dasharray=""/><g transform="translate(653.3040294423176,2284.8048855710003) translate(-653.3040294423176,-2284.8048855710003)"><path fill="black" stroke="none" paint-order="stroke fill markers" d=" M 639.691360025651 2277.998550862667 L 653.3040294423176 2284.8048855710003 L 639.691360025651 2291.611220279334 Z"/></g></g><g><g><rect fill="white" stroke="none" x="364.66051445799474" y="2309.307690521" width="30.161821976328124" height="21.23576429"/></g><text fill="black" stroke="none" font-family="sans-serif" font-size="11pt" font-style="normal" font-weight="normal" text-decoration="normal" x="367.11079495299475" y="2324.009373491" text-anchor="start" dominant-baseline="alphabetic" xml:space="preserve">true</text></g><g><path fill="none" stroke="black" paint-order="fill stroke markers" d=" M 653.3040294423176 2330.543454811 L 119.62813883366665 2330.543454811" stroke-miterlimit="10" stroke-width="1.3612669416666667" stroke-dasharray="6.53408132"/><g transform="translate(106.17882144999999,2330.543454811) translate(-106.17882144999999,-2330.543454811)"><path fill="black" stroke="none" paint-order="stroke fill markers" d=" M 119.79149086666665 2323.7371201026667 L 106.17882144999999 2330.543454811 L 119.79149086666665 2337.3497895193336 Z"/></g></g><g><g><rect fill="white" stroke="none" x="283.98409996824864" y="2355.046259761" width="191.51465095582031" height="21.23576429"/></g><text fill="black" stroke="none" font-family="sans-serif" font-size="11pt" font-style="normal" font-weight="normal" text-decoration="normal" x="286.43438046324866" y="2369.747942731" text-anchor="start" dominant-baseline="alphabetic" xml:space="preserve">parseEndTag(content:String)</text></g><g><path fill="none" stroke="black" paint-order="fill stroke markers" d=" M 106.17882144999999 2376.282024051 L 639.854712058651 2376.282024051" stroke-miterlimit="10" stroke-width="1.3612669416666667" stroke-dasharray=""/><g transform="translate(653.3040294423176,2376.282024051) translate(-653.3040294423176,-2376.282024051)"><path fill="black" stroke="none" paint-order="stroke fill markers" d=" M 639.691360025651 2369.4756893426666 L 653.3040294423176 2376.282024051 L 639.691360025651 2383.0883587593335 Z"/></g></g><g><g><rect fill="white" stroke="none" x="377.2911449511588" y="2400.7848290009997" width="4.90056099" height="21.23576429"/></g><text fill="black" stroke="none" font-family="sans-serif" font-size="11pt" font-style="normal" font-weight="normal" text-decoration="normal" x="379.7414254461588" y="2415.486511971" text-anchor="start" dominant-baseline="alphabetic" xml:space="preserve"></text></g><g><path fill="none" stroke="black" paint-order="fill stroke markers" d=" M 653.3040294423176 2422.020593291 L 119.62813883366665 2422.020593291" stroke-miterlimit="10" stroke-width="1.3612669416666667" stroke-dasharray=""/><g transform="translate(106.17882144999999,2422.020593291) translate(-106.17882144999999,-2422.020593291)"><path fill="black" stroke="none" paint-order="stroke fill markers" d=" M 119.79149086666665 2415.2142585826664 L 106.17882144999999 2422.020593291 L 119.79149086666665 2428.8269279993333 Z"/></g></g><g><g><rect fill="white" stroke="none" x="362.88171349363927" y="2515.1312521009995" width="33.719423905039065" height="21.23576429"/></g><text fill="black" stroke="none" font-family="sans-serif" font-size="11pt" font-style="normal" font-weight="normal" text-decoration="normal" x="365.3319939886393" y="2529.8329350709996" text-anchor="start" dominant-baseline="alphabetic" xml:space="preserve">is '&lt;'</text></g><g><path fill="none" stroke="black" paint-order="fill stroke markers" d=" M 106.17882144999999 2536.3670163909997 L 639.854712058651 2536.3670163909997" stroke-miterlimit="10" stroke-width="1.3612669416666667" stroke-dasharray=""/><g transform="translate(653.3040294423176,2536.3670163909997) translate(-653.3040294423176,-2536.3670163909997)"><path fill="black" stroke="none" paint-order="stroke fill markers" d=" M 639.691360025651 2529.560681682666 L 653.3040294423176 2536.3670163909997 L 639.691360025651 2543.173351099333 Z"/></g></g><g><g><rect fill="white" stroke="none" x="364.66051445799474" y="2560.8698213409994" width="30.161821976328124" height="21.23576429"/></g><text fill="black" stroke="none" font-family="sans-serif" font-size="11pt" font-style="normal" font-weight="normal" text-decoration="normal" x="367.11079495299475" y="2575.5715043109994" text-anchor="start" dominant-baseline="alphabetic" xml:space="preserve">true</text></g><g><path fill="none" stroke="black" paint-order="fill stroke markers" d=" M 653.3040294423176 2582.1055856309995 L 119.62813883366665 2582.1055856309995" stroke-miterlimit="10" stroke-width="1.3612669416666667" stroke-dasharray="6.53408132"/><g transform="translate(106.17882144999999,2582.1055856309995) translate(-106.17882144999999,-2582.1055856309995)"><path fill="black" stroke="none" paint-order="stroke fill markers" d=" M 119.79149086666665 2575.299250922666 L 106.17882144999999 2582.1055856309995 L 119.79149086666665 2588.911920339333 Z"/></g></g><g><g><rect fill="white" stroke="none" x="129.59261284666664" y="2606.608390580999" width="500.29762519898435" height="21.23576429"/></g><text fill="black" stroke="none" font-family="sans-serif" font-size="11pt" font-style="normal" font-weight="normal" text-decoration="normal" x="132.04289334166663" y="2621.3100735509993" text-anchor="start" dominant-baseline="alphabetic" xml:space="preserve">parseStartTag(content:String, qName:String, prefix:String, localName:String)</text></g><g><path fill="none" stroke="black" paint-order="fill stroke markers" d=" M 106.17882144999999 2627.8441548709993 L 639.854712058651 2627.8441548709993" stroke-miterlimit="10" stroke-width="1.3612669416666667" stroke-dasharray=""/><g transform="translate(653.3040294423176,2627.8441548709993) translate(-653.3040294423176,-2627.8441548709993)"><path fill="black" stroke="none" paint-order="stroke fill markers" d=" M 639.691360025651 2621.037820162666 L 653.3040294423176 2627.8441548709993 L 639.691360025651 2634.6504895793328 Z"/></g></g><g><g><rect fill="white" stroke="none" x="292.964042290026" y="2652.346959820999" width="173.55476631226563" height="21.23576429"/></g><text fill="black" stroke="none" font-family="sans-serif" font-size="11pt" font-style="normal" font-weight="normal" text-decoration="normal" x="295.414322785026" y="2667.048642790999" text-anchor="start" dominant-baseline="alphabetic" xml:space="preserve">qName, prefix, localName</text></g><g><path fill="none" stroke="black" paint-order="fill stroke markers" d=" M 653.3040294423176 2673.582724110999 L 119.62813883366665 2673.582724110999" stroke-miterlimit="10" stroke-width="1.3612669416666667" stroke-dasharray="6.53408132"/><g transform="translate(106.17882144999999,2673.582724110999) translate(-106.17882144999999,-2673.582724110999)"><path fill="black" stroke="none" paint-order="stroke fill markers" d=" M 119.79149086666665 2666.7763894026657 L 106.17882144999999 2673.582724110999 L 119.79149086666665 2680.3890588193326 Z"/></g></g><g><g><rect fill="white" stroke="none" x="133.67641367166667" y="2698.0855290609993" width="198.00000251832031" height="21.23576429"/></g><text fill="black" stroke="none" font-family="sans-serif" font-size="11pt" font-style="normal" font-weight="normal" text-decoration="normal" x="136.12669416666665" y="2712.7872120309994" text-anchor="start" dominant-baseline="alphabetic" xml:space="preserve">Compare to srcML tag names</text></g><g><path fill="none" stroke="black" paint-order="fill stroke markers" d=" M 106.17882144999999 2719.321293350999 L 179.6872363 2719.321293350999 L 179.6872363 2740.557057640999 L 127.79574048366666 2740.557057640999" stroke-miterlimit="10" stroke-width="1.3612669416666667" stroke-dasharray=""/><g transform="translate(114.3464231,2740.557057640999) translate(-114.3464231,-2740.557057640999)"><path fill="black" stroke="none" paint-order="stroke fill markers" d=" M 127.95909251666666 2733.7507229326657 L 114.3464231 2740.557057640999 L 127.95909251666666 2747.3633923493326 Z"/></g></g><g><g><rect fill="white" stroke="none" x="133.67641367166667" y="2765.0598625909993" width="158.92340339722656" height="21.23576429"/></g><text fill="black" stroke="none" font-family="sans-serif" font-size="11pt" font-style="normal" font-weight="normal" text-decoration="normal" x="136.12669416666665" y="2779.7615455609994" text-anchor="start" dominant-baseline="alphabetic" xml:space="preserve">Update count variables </text></g><g><path fill="none" stroke="black" paint-order="fill stroke markers" d=" M 106.17882144999999 2786.295626880999 L 179.6872363 2786.295626880999 L 179.6872363 2807.531391170999 L 127.79574048366666 2807.531391170999" stroke-miterlimit="10" stroke-width="1.3612669416666667" stroke-dasharray=""/><g transform="translate(114.3464231,2807.531391170999) translate(-114.3464231,-2807.531391170999)"><path fill="black" stroke="none" paint-order="stroke fill markers" d=" M 127.95909251666666 2800.7250564626656 L 114.3464231 2807.531391170999 L 127.95909251666666 2814.3377258793325 Z"/></g></g><g><g><rect fill="white" stroke="none" x="330.8487850268424" y="2900.6420499809988" width="97.78528083863281" height="21.23576429"/></g><text fill="black" stroke="none" font-family="sans-serif" font-size="11pt" font-style="normal" font-weight="normal" text-decoration="normal" x="333.2990655218424" y="2915.343732950999" text-anchor="start" dominant-baseline="alphabetic" xml:space="preserve">is Namespace</text></g><g><path fill="none" stroke="black" paint-order="fill stroke markers" d=" M 106.17882144999999 2921.877814270999 L 639.854712058651 2921.877814270999" stroke-miterlimit="10" stroke-width="1.3612669416666667" stroke-dasharray=""/><g transform="translate(653.3040294423176,2921.877814270999) translate(-653.3040294423176,-2921.877814270999)"><path fill="black" stroke="none" paint-order="stroke fill markers" d=" M 639.691360025651 2915.0714795626654 L 653.3040294423176 2921.877814270999 L 639.691360025651 2928.6841489793323 Z"/></g></g><g><g><rect fill="white" stroke="none" x="364.66051445799474" y="2946.3806192209986" width="30.161821976328124" height="21.23576429"/></g><text fill="black" stroke="none" font-family="sans-serif" font-size="11pt" font-style="normal" font-weight="normal" text-decoration="normal" x="367.11079495299475" y="2961.0823021909987" text-anchor="start" dominant-baseline="alphabetic" xml:space="preserve">true</text></g><g><path fill="none" stroke="black" paint-order="fill stroke markers" d=" M 653.3040294423176 2967.6163835109987 L 119.62813883366665 2967.6163835109987" stroke-miterlimit="10" stroke-width="1.3612669416666667" stroke-dasharray="6.53408132"/><g transform="translate(106.17882144999999,2967.6163835109987) translate(-106.17882144999999,-2967.6163835109987)"><path fill="black" stroke="none" paint-order="stroke fill markers" d=" M 119.79149086666665 2960.8100488026653 L 106.17882144999999 2967.6163835109987 L 119.79149086666665 2974.422718219332 Z"/></g></g><path fill="white" stroke="black" paint-order="fill stroke markers" d=" M 106.17882144999999 3035.407477205999 L 114.34642309999998 3035.407477205999 M 114.34642309999998 3016.621993410999 L 363.7654352244922 3016.621993410999 L 378.4671181944922 3031.323676380999 L 378.4671181944922 3054.192961000999 L 114.34642309999998 3054.192961000999 L 114.34642309999998 3016.621993410999 M 363.7654352244922 3016.621993410999 L 363.7654352244922 3031.323676380999 L 378.4671181944922 3031.323676380999" stroke-miterlimit="10" stroke-width="1.3612669416666667" stroke-dasharray=""/><g><text fill="black" stroke="none" font-family="sans-serif" font-size="11pt" font-style="normal" font-weight="normal" text-decoration="normal" x="137.21570771999998" y="3039.491278030999" text-anchor="start" dominant-baseline="alphabetic" xml:space="preserve">else parseAtribute(content:String)</text></g><g><g><rect fill="white" stroke="none" x="269.7321392138541" y="3078.6957659509985" width="220.01857246460938" height="21.23576429"/></g><text fill="black" stroke="none" font-family="sans-serif" font-size="11pt" font-style="normal" font-weight="normal" text-decoration="normal" x="272.1824197088541" y="3093.3974489209986" text-anchor="start" dominant-baseline="alphabetic" xml:space="preserve">parseNamespace(content:String)</text></g><g><path fill="none" stroke="black" paint-order="fill stroke markers" d=" M 106.17882144999999 3099.9315302409987 L 639.854712058651 3099.9315302409987" stroke-miterlimit="10" stroke-width="1.3612669416666667" stroke-dasharray=""/><g transform="translate(653.3040294423176,3099.9315302409987) translate(-653.3040294423176,-3099.9315302409987)"><path fill="black" stroke="none" paint-order="stroke fill markers" d=" M 639.691360025651 3093.125195532665 L 653.3040294423176 3099.9315302409987 L 639.691360025651 3106.737864949332 Z"/></g></g><g><g><rect fill="white" stroke="none" x="377.2911449511588" y="3124.4343351909984" width="4.90056099" height="21.23576429"/></g><text fill="black" stroke="none" font-family="sans-serif" font-size="11pt" font-style="normal" font-weight="normal" text-decoration="normal" x="379.7414254461588" y="3139.1360181609984" text-anchor="start" dominant-baseline="alphabetic" xml:space="preserve"></text></g><g><path fill="none" stroke="black" paint-order="fill stroke markers" d=" M 653.3040294423176 3145.6700994809985 L 119.62813883366665 3145.6700994809985" stroke-miterlimit="10" stroke-width="1.3612669416666667" stroke-dasharray=""/><g transform="translate(106.17882144999999,3145.6700994809985) translate(-106.17882144999999,-3145.6700994809985)"><path fill="black" stroke="none" paint-order="stroke fill markers" d=" M 119.79149086666665 3138.863764772665 L 106.17882144999999 3145.6700994809985 L 119.79149086666665 3152.476434189332 Z"/></g></g><g><g><rect fill="white" stroke="none" x="360.4765468676627" y="3170.172904430998" width="38.52975715699219" height="21.23576429"/></g><text fill="black" stroke="none" font-family="sans-serif" font-size="11pt" font-style="normal" font-weight="normal" text-decoration="normal" x="362.9268273626627" y="3184.8745874009983" text-anchor="start" dominant-baseline="alphabetic" xml:space="preserve">is "&gt;"</text></g><g><path fill="none" stroke="black" paint-order="fill stroke markers" d=" M 106.17882144999999 3191.4086687209983 L 639.854712058651 3191.4086687209983" stroke-miterlimit="10" stroke-width="1.3612669416666667" stroke-dasharray=""/><g transform="translate(653.3040294423176,3191.4086687209983) translate(-653.3040294423176,-3191.4086687209983)"><path fill="black" stroke="none" paint-order="stroke fill markers" d=" M 639.691360025651 3184.602334012665 L 653.3040294423176 3191.4086687209983 L 639.691360025651 3198.215003429332 Z"/></g></g><g><g><rect fill="white" stroke="none" x="364.66051445799474" y="3215.911473670998" width="30.161821976328124" height="21.23576429"/></g><text fill="black" stroke="none" font-family="sans-serif" font-size="11pt" font-style="normal" font-weight="normal" text-decoration="normal" x="367.11079495299475" y="3230.613156640998" text-anchor="start" dominant-baseline="alphabetic" xml:space="preserve">true</text></g><g><path fill="none" stroke="black" paint-order="fill stroke markers" d=" M 653.3040294423176 3237.147237960998 L 119.62813883366665 3237.147237960998" stroke-miterlimit="10" stroke-width="1.3612669416666667" stroke-dasharray="6.53408132"/><g transform="translate(106.17882144999999,3237.147237960998) translate(-106.17882144999999,-3237.147237960998)"><path fill="black" stroke="none" paint-order="stroke fill markers" d=" M 119.79149086666665 3230.3409032526647 L 106.17882144999999 3237.147237960998 L 119.79149086666665 3243.9535726693316 Z"/></g></g><g><g><rect fill="white" stroke="none" x="358.4400402148307" y="3261.650042910998" width="42.60277046265625" height="21.23576429"/></g><text fill="black" stroke="none" font-family="sans-serif" font-size="11pt" font-style="normal" font-weight="normal" text-decoration="normal" x="360.8903207098307" y="3276.351725880998" text-anchor="start" dominant-baseline="alphabetic" xml:space="preserve">is "/&gt;"</text></g><g><path fill="none" stroke="black" paint-order="fill stroke markers" d=" M 106.17882144999999 3282.885807200998 L 639.854712058651 3282.885807200998" stroke-miterlimit="10" stroke-width="1.3612669416666667" stroke-dasharray=""/><g transform="translate(653.3040294423176,3282.885807200998) translate(-653.3040294423176,-3282.885807200998)"><path fill="black" stroke="none" paint-order="stroke fill markers" d=" M 639.691360025651 3276.0794724926645 L 653.3040294423176 3282.885807200998 L 639.691360025651 3289.6921419093314 Z"/></g></g><g><g><rect fill="white" stroke="none" x="364.66051445799474" y="3307.3886121509977" width="30.161821976328124" height="21.23576429"/></g><text fill="black" stroke="none" font-family="sans-serif" font-size="11pt" font-style="normal" font-weight="normal" text-decoration="normal" x="367.11079495299475" y="3322.090295120998" text-anchor="start" dominant-baseline="alphabetic" xml:space="preserve">true</text></g><g><path fill="none" stroke="black" paint-order="fill stroke markers" d=" M 653.3040294423176 3328.624376440998 L 119.62813883366665 3328.624376440998" stroke-miterlimit="10" stroke-width="1.3612669416666667" stroke-dasharray="6.53408132"/><g transform="translate(106.17882144999999,3328.624376440998) translate(-106.17882144999999,-3328.624376440998)"><path fill="black" stroke="none" paint-order="stroke fill markers" d=" M 119.79149086666665 3321.8180417326644 L 106.17882144999999 3328.624376440998 L 119.79149086666665 3335.4307111493313 Z"/></g></g><g><g/><path fill="none" stroke="black" paint-order="fill stroke markers" d=" M 32.67040659999999 311.51232693099996 L 1001.9491660058594 311.51232693099996 L 1001.9491660058594 581.043181381 L 32.67040659999999 581.043181381 L 32.67040659999999 311.51232693099996 Z" stroke-miterlimit="10" stroke-width="2.3336004714285714" stroke-dasharray=""/><path fill="white" stroke="black" paint-order="fill stroke markers" d=" M 32.67040659999999 311.51232693099996 L 32.67040659999999 331.11457089099997 L 191.80474142265624 331.11457089099997 L 201.60586340265624 321.31344891099997 L 201.60586340265624 311.51232693099996 L 32.67040659999999 311.51232693099996" stroke-miterlimit="10" stroke-width="2.3336004714285714" stroke-dasharray=""/><text fill="black" stroke="none" font-family="sans-serif" font-size="8.8pt" font-style="normal" font-weight="bold" text-decoration="normal" x="49.005609899999996" y="324.580489571" text-anchor="start" dominant-baseline="alphabetic" xml:space="preserve">parse XML Declaration</text></g><g><g/><path fill="none" stroke="black" paint-order="fill stroke markers" d=" M 32.67040659999999 697.0231248109998 L 718.6448426423177 697.0231248109998 L 718.6448426423177 832.6053122009997 L 32.67040659999999 832.6053122009997 L 32.67040659999999 697.0231248109998 Z" stroke-miterlimit="10" stroke-width="2.3336004714285714" stroke-dasharray=""/><path fill="white" stroke="black" paint-order="fill stroke markers" d=" M 32.67040659999999 697.0231248109998 L 32.67040659999999 716.6253687709998 L 156.60332540703124 716.6253687709998 L 166.40444738703124 706.8242467909997 L 166.40444738703124 697.0231248109998 L 32.67040659999999 697.0231248109998" stroke-miterlimit="10" stroke-width="2.3336004714285714" stroke-dasharray=""/><text fill="black" stroke="none" font-family="sans-serif" font-size="8.8pt" font-style="normal" font-weight="bold" text-decoration="normal" x="49.005609899999996" y="710.0912874509997" text-anchor="start" dominant-baseline="alphabetic" xml:space="preserve">parse DOCTYPE</text></g><g><g/><path fill="none" stroke="black" paint-order="fill stroke markers" d=" M 16.335203299999996 919.1818896909998 L 734.9800459423177 919.1818896909998 L 734.9800459423177 3353.127181390998 L 16.335203299999996 3353.127181390998 L 16.335203299999996 919.1818896909998 Z" stroke-miterlimit="10" stroke-width="2.3336004714285714" stroke-dasharray=""/><path fill="white" stroke="black" paint-order="fill stroke markers" d=" M 16.335203299999996 919.1818896909998 L 16.335203299999996 938.7841336509998 L 108.29700699472656 938.7841336509998 L 118.09812897472656 928.9830116709998 L 118.09812897472656 919.1818896909998 L 16.335203299999996 919.1818896909998" stroke-miterlimit="10" stroke-width="2.3336004714285714" stroke-dasharray=""/><text fill="black" stroke="none" font-family="sans-serif" font-size="8.8pt" font-style="normal" font-weight="bold" text-decoration="normal" x="32.67040659999999" y="932.2500523309998" text-anchor="start" dominant-baseline="alphabetic" xml:space="preserve">While loop</text></g><g><g/><path fill="none" stroke="black" paint-order="fill stroke markers" d=" M 32.67040659999999 1030.261272131 L 718.6448426423177 1030.261272131 L 718.6448426423177 1440.2748749610003 L 32.67040659999999 1440.2748749610003 L 32.67040659999999 1030.261272131 Z" stroke-miterlimit="10" stroke-width="2.3336004714285714" stroke-dasharray=""/><path fill="white" stroke="black" paint-order="fill stroke markers" d=" M 32.67040659999999 1030.261272131 L 32.67040659999999 1049.8635160909998 L 154.6674275798828 1049.8635160909998 L 164.4685495598828 1040.062394111 L 164.4685495598828 1030.261272131 L 32.67040659999999 1030.261272131" stroke-miterlimit="10" stroke-width="2.3336004714285714" stroke-dasharray=""/><text fill="black" stroke="none" font-family="sans-serif" font-size="8.8pt" font-style="normal" font-weight="bold" text-decoration="normal" x="49.005609899999996" y="1043.3294347709998" text-anchor="start" dominant-baseline="alphabetic" xml:space="preserve">parse Character</text></g><g><g/><path fill="none" stroke="black" paint-order="fill stroke markers" d=" M 32.67040659999999 1464.7776799110004 L 718.6448426423177 1464.7776799110004 L 718.6448426423177 1691.8370057810005 L 32.67040659999999 1691.8370057810005 L 32.67040659999999 1464.7776799110004 Z" stroke-miterlimit="10" stroke-width="2.3336004714285714" stroke-dasharray=""/><path fill="white" stroke="black" paint-order="fill stroke markers" d=" M 32.67040659999999 1464.7776799110004 L 32.67040659999999 1484.3799238710003 L 153.99158529472655 1484.3799238710003 L 163.79270727472655 1474.5788018910005 L 163.79270727472655 1464.7776799110004 L 32.67040659999999 1464.7776799110004" stroke-miterlimit="10" stroke-width="2.3336004714285714" stroke-dasharray=""/><text fill="black" stroke="none" font-family="sans-serif" font-size="8.8pt" font-style="normal" font-weight="bold" text-decoration="normal" x="49.005609899999996" y="1477.8458425510003" text-anchor="start" dominant-baseline="alphabetic" xml:space="preserve">parse Comment</text></g><g><g/><path fill="none" stroke="black" paint-order="fill stroke markers" d=" M 32.67040659999999 1716.3398107310006 L 718.6448426423177 1716.3398107310006 L 718.6448426423177 1943.3991366010007 L 32.67040659999999 1943.3991366010007 L 32.67040659999999 1716.3398107310006 Z" stroke-miterlimit="10" stroke-width="2.3336004714285714" stroke-dasharray=""/><path fill="white" stroke="black" paint-order="fill stroke markers" d=" M 32.67040659999999 1716.3398107310006 L 32.67040659999999 1735.9420546910005 L 139.2088094158203 1735.9420546910005 L 149.0099313958203 1726.1409327110007 L 149.0099313958203 1716.3398107310006 L 32.67040659999999 1716.3398107310006" stroke-miterlimit="10" stroke-width="2.3336004714285714" stroke-dasharray=""/><text fill="black" stroke="none" font-family="sans-serif" font-size="8.8pt" font-style="normal" font-weight="bold" text-decoration="normal" x="49.005609899999996" y="1729.4079733710005" text-anchor="start" dominant-baseline="alphabetic" xml:space="preserve">parse CDATA</text></g><g><g/><path fill="none" stroke="black" paint-order="fill stroke markers" d=" M 32.67040659999999 1967.9019415510008 L 718.6448426423177 1967.9019415510008 L 718.6448426423177 2194.9612674210007 L 32.67040659999999 2194.9612674210007 L 32.67040659999999 1967.9019415510008 Z" stroke-miterlimit="10" stroke-width="2.3336004714285714" stroke-dasharray=""/><path fill="white" stroke="black" paint-order="fill stroke markers" d=" M 32.67040659999999 1967.9019415510008 L 32.67040659999999 1987.5041855110007 L 163.1384511394531 1987.5041855110007 L 172.93957311945312 1977.703063531001 L 172.93957311945312 1967.9019415510008 L 32.67040659999999 1967.9019415510008" stroke-miterlimit="10" stroke-width="2.3336004714285714" stroke-dasharray=""/><text fill="black" stroke="none" font-family="sans-serif" font-size="8.8pt" font-style="normal" font-weight="bold" text-decoration="normal" x="49.005609899999996" y="1980.9701041910007" text-anchor="start" dominant-baseline="alphabetic" xml:space="preserve">parse Processing</text></g><g><g/><path fill="none" stroke="black" paint-order="fill stroke markers" d=" M 32.67040659999999 2219.4640723710004 L 718.6448426423177 2219.4640723710004 L 718.6448426423177 2446.523398241 L 32.67040659999999 2446.523398241 L 32.67040659999999 2219.4640723710004 Z" stroke-miterlimit="10" stroke-width="2.3336004714285714" stroke-dasharray=""/><path fill="white" stroke="black" paint-order="fill stroke markers" d=" M 32.67040659999999 2219.4640723710004 L 32.67040659999999 2239.0663163310005 L 145.29717306328124 2239.0663163310005 L 155.09829504328124 2229.2651943510004 L 155.09829504328124 2219.4640723710004 L 32.67040659999999 2219.4640723710004" stroke-miterlimit="10" stroke-width="2.3336004714285714" stroke-dasharray=""/><text fill="black" stroke="none" font-family="sans-serif" font-size="8.8pt" font-style="normal" font-weight="bold" text-decoration="normal" x="49.005609899999996" y="2232.5322350110005" text-anchor="start" dominant-baseline="alphabetic" xml:space="preserve">parse End Tag</text></g><g><g/><path fill="none" stroke="black" paint-order="fill stroke markers" d=" M 32.67040659999999 2471.0262031909997 L 718.6448426423177 2471.0262031909997 L 718.6448426423177 2832.0341961209992 L 32.67040659999999 2832.0341961209992 L 32.67040659999999 2471.0262031909997 Z" stroke-miterlimit="10" stroke-width="2.3336004714285714" stroke-dasharray=""/><path fill="white" stroke="black" paint-order="fill stroke markers" d=" M 32.67040659999999 2471.0262031909997 L 32.67040659999999 2490.628447151 L 149.86772970390624 2490.628447151 L 159.66885168390624 2480.8273251709998 L 159.66885168390624 2471.0262031909997 L 32.67040659999999 2471.0262031909997" stroke-miterlimit="10" stroke-width="2.3336004714285714" stroke-dasharray=""/><text fill="black" stroke="none" font-family="sans-serif" font-size="8.8pt" font-style="normal" font-weight="bold" text-decoration="normal" x="49.005609899999996" y="2484.094365831" text-anchor="start" dominant-baseline="alphabetic" xml:space="preserve">parse Start Tag</text></g><g><g/><path fill="none" stroke="black" paint-order="fill stroke markers" d=" M 32.67040659999999 2856.537001070999 L 718.6448426423177 2856.537001070999 L 718.6448426423177 2992.119188460999 L 32.67040659999999 2992.119188460999 L 32.67040659999999 2856.537001070999 Z" stroke-miterlimit="10" stroke-width="2.3336004714285714" stroke-dasharray=""/><path fill="white" stroke="black" paint-order="fill stroke markers" d=" M 32.67040659999999 2856.537001070999 L 32.67040659999999 2876.139245030999 L 165.10875753593749 2876.139245030999 L 174.9098795159375 2866.338123050999 L 174.9098795159375 2856.537001070999 L 32.67040659999999 2856.537001070999" stroke-miterlimit="10" stroke-width="2.3336004714285714" stroke-dasharray=""/><text fill="black" stroke="none" font-family="sans-serif" font-size="8.8pt" font-style="normal" font-weight="bold" text-decoration="normal" x="49.005609899999996" y="2869.605163710999" text-anchor="start" dominant-baseline="alphabetic" xml:space="preserve">parse Namespace</text></g></g><g/><g/></g></svg>